%TF.GenerationSoftware,KiCad,Pcbnew,9.0.4*%
%TF.CreationDate,2026-02-05T15:32:58-05:00*%
%TF.ProjectId,micromouse-pcb,6d696372-6f6d-46f7-9573-652d7063622e,rev?*%
%TF.SameCoordinates,Original*%
%TF.FileFunction,Drillmap*%
%TF.FilePolarity,Positive*%
%FSLAX45Y45*%
G04 Gerber Fmt 4.5, Leading zero omitted, Abs format (unit mm)*
G04 Created by KiCad (PCBNEW 9.0.4) date 2026-02-05 15:32:58*
%MOMM*%
%LPD*%
G01*
G04 APERTURE LIST*
%ADD10C,0.050000*%
%ADD11C,0.200000*%
%ADD12C,0.100000*%
%ADD13C,0.104000*%
%ADD14C,0.110000*%
%ADD15C,0.150000*%
G04 APERTURE END LIST*
D10*
X5450000Y-11150000D02*
X5450000Y-10550000D01*
X9050000Y-1750000D02*
X9460000Y-1750000D01*
X5550000Y-2550000D02*
X8950000Y-2550000D01*
X2700000Y-1850000D02*
X2700000Y-11150000D01*
X2700000Y-1850000D02*
G75*
G02*
X2800000Y-1750000I100000J0D01*
G01*
X5450000Y-11150000D02*
G75*
G02*
X5350000Y-11250000I-100000J0D01*
G01*
X13218770Y-8618081D02*
G75*
G02*
X9460000Y-11250000I-3758770J1368081D01*
G01*
X5550000Y-2550000D02*
G75*
G02*
X5450000Y-2450000I0J100000D01*
G01*
X8950000Y-10450000D02*
G75*
G02*
X9050000Y-10550000I0J-100000D01*
G01*
X9050000Y-11250000D02*
X9460000Y-11250000D01*
X2800000Y-11250000D02*
G75*
G02*
X2700000Y-11150000I0J100000D01*
G01*
X5450000Y-10550000D02*
G75*
G02*
X5550000Y-10450000I100000J0D01*
G01*
X9050000Y-10550000D02*
X9050000Y-11250000D01*
X2800000Y-1750000D02*
X5350000Y-1750000D01*
X2800000Y-11250000D02*
X5350000Y-11250000D01*
X9050000Y-2450000D02*
G75*
G02*
X8950000Y-2550000I-100000J0D01*
G01*
X5350000Y-1750000D02*
G75*
G02*
X5450000Y-1850000I0J-100000D01*
G01*
X5450000Y-1850000D02*
X5450000Y-2450000D01*
X5550000Y-10450000D02*
X8950000Y-10450000D01*
X9050000Y-2450000D02*
X9050000Y-1750000D01*
X9460000Y-1750000D02*
G75*
G02*
X13218770Y-4381919I0J-4000000D01*
G01*
X13218770Y-4381919D02*
G75*
G02*
X13218770Y-8618081I-18771J-2118081D01*
G01*
D11*
D12*
X3823750Y-8980000D02*
X3863750Y-9020000D01*
X3863750Y-8980000D02*
X3823750Y-9020000D01*
X3984000Y-10941250D02*
X4024000Y-10981250D01*
X4024000Y-10941250D02*
X3984000Y-10981250D01*
X4028750Y-2080000D02*
X4068750Y-2120000D01*
X4068750Y-2080000D02*
X4028750Y-2120000D01*
X4480000Y-10622500D02*
X4520000Y-10662500D01*
X4520000Y-10622500D02*
X4480000Y-10662500D01*
X4480000Y-10935000D02*
X4520000Y-10975000D01*
X4520000Y-10935000D02*
X4480000Y-10975000D01*
X5080000Y-10020000D02*
X5120000Y-10060000D01*
X5120000Y-10020000D02*
X5080000Y-10060000D01*
X5080000Y-10927500D02*
X5120000Y-10967500D01*
X5120000Y-10927500D02*
X5080000Y-10967500D01*
X5880000Y-4980000D02*
X5920000Y-5020000D01*
X5920000Y-4980000D02*
X5880000Y-5020000D01*
X5880000Y-5885000D02*
X5920000Y-5925000D01*
X5920000Y-5885000D02*
X5880000Y-5925000D01*
X6880000Y-6380000D02*
X6920000Y-6420000D01*
X6920000Y-6380000D02*
X6880000Y-6420000D01*
X6930000Y-6280000D02*
X6970000Y-6320000D01*
X6970000Y-6280000D02*
X6930000Y-6320000D01*
X7280000Y-6680000D02*
X7320000Y-6720000D01*
X7320000Y-6680000D02*
X7280000Y-6720000D01*
X7380000Y-6580000D02*
X7420000Y-6620000D01*
X7420000Y-6580000D02*
X7380000Y-6620000D01*
X9880000Y-9620000D02*
X9920000Y-9660000D01*
X9920000Y-9620000D02*
X9880000Y-9660000D01*
X9970000Y-3880000D02*
X10010000Y-3920000D01*
X10010000Y-3880000D02*
X9970000Y-3920000D01*
X9975000Y-5080000D02*
X10015000Y-5120000D01*
X10015000Y-5080000D02*
X9975000Y-5120000D01*
X10280000Y-3030000D02*
X10320000Y-3070000D01*
X10320000Y-3030000D02*
X10280000Y-3070000D01*
X10420000Y-8180000D02*
X10460000Y-8220000D01*
X10460000Y-8180000D02*
X10420000Y-8220000D01*
X11330000Y-9530000D02*
X11370000Y-9570000D01*
X11370000Y-9530000D02*
X11330000Y-9570000D01*
X11380000Y-4440000D02*
X11420000Y-4480000D01*
X11420000Y-4440000D02*
X11380000Y-4480000D01*
X11780000Y-8470000D02*
X11820000Y-8510000D01*
X11820000Y-8470000D02*
X11780000Y-8510000D01*
X3287500Y-9150000D02*
G75*
G02*
X3212500Y-9150000I-37500J0D01*
G01*
X3212500Y-9150000D02*
G75*
G02*
X3287500Y-9150000I37500J0D01*
G01*
X3287500Y-9350000D02*
G75*
G02*
X3212500Y-9350000I-37500J0D01*
G01*
X3212500Y-9350000D02*
G75*
G02*
X3287500Y-9350000I37500J0D01*
G01*
X10837500Y-3096000D02*
G75*
G02*
X10762500Y-3096000I-37500J0D01*
G01*
X10762500Y-3096000D02*
G75*
G02*
X10837500Y-3096000I37500J0D01*
G01*
X10837500Y-3223000D02*
G75*
G02*
X10762500Y-3223000I-37500J0D01*
G01*
X10762500Y-3223000D02*
G75*
G02*
X10837500Y-3223000I37500J0D01*
G01*
X10837500Y-3350000D02*
G75*
G02*
X10762500Y-3350000I-37500J0D01*
G01*
X10762500Y-3350000D02*
G75*
G02*
X10837500Y-3350000I37500J0D01*
G01*
X10887500Y-4696000D02*
G75*
G02*
X10812500Y-4696000I-37500J0D01*
G01*
X10812500Y-4696000D02*
G75*
G02*
X10887500Y-4696000I37500J0D01*
G01*
X10887500Y-4823000D02*
G75*
G02*
X10812500Y-4823000I-37500J0D01*
G01*
X10812500Y-4823000D02*
G75*
G02*
X10887500Y-4823000I37500J0D01*
G01*
X10887500Y-4950000D02*
G75*
G02*
X10812500Y-4950000I-37500J0D01*
G01*
X10812500Y-4950000D02*
G75*
G02*
X10887500Y-4950000I37500J0D01*
G01*
X10887500Y-9096000D02*
G75*
G02*
X10812500Y-9096000I-37500J0D01*
G01*
X10812500Y-9096000D02*
G75*
G02*
X10887500Y-9096000I37500J0D01*
G01*
X10887500Y-9223000D02*
G75*
G02*
X10812500Y-9223000I-37500J0D01*
G01*
X10812500Y-9223000D02*
G75*
G02*
X10887500Y-9223000I37500J0D01*
G01*
X10887500Y-9350000D02*
G75*
G02*
X10812500Y-9350000I-37500J0D01*
G01*
X10812500Y-9350000D02*
G75*
G02*
X10887500Y-9350000I37500J0D01*
G01*
X11251500Y-8373000D02*
G75*
G02*
X11176500Y-8373000I-37500J0D01*
G01*
X11176500Y-8373000D02*
G75*
G02*
X11251500Y-8373000I37500J0D01*
G01*
X11251500Y-8500000D02*
G75*
G02*
X11176500Y-8500000I-37500J0D01*
G01*
X11176500Y-8500000D02*
G75*
G02*
X11251500Y-8500000I37500J0D01*
G01*
X11251500Y-8627000D02*
G75*
G02*
X11176500Y-8627000I-37500J0D01*
G01*
X11176500Y-8627000D02*
G75*
G02*
X11251500Y-8627000I37500J0D01*
G01*
X3288000Y-2489000D02*
X3288000Y-2569000D01*
X3248000Y-2529000D02*
X3328000Y-2529000D01*
X3288000Y-2743000D02*
X3288000Y-2823000D01*
X3248000Y-2783000D02*
X3328000Y-2783000D01*
X3288000Y-2997000D02*
X3288000Y-3077000D01*
X3248000Y-3037000D02*
X3328000Y-3037000D01*
X3288000Y-3251000D02*
X3288000Y-3331000D01*
X3248000Y-3291000D02*
X3328000Y-3291000D01*
X3288000Y-3505000D02*
X3288000Y-3585000D01*
X3248000Y-3545000D02*
X3328000Y-3545000D01*
X3288000Y-3759000D02*
X3288000Y-3839000D01*
X3248000Y-3799000D02*
X3328000Y-3799000D01*
X3288000Y-4013000D02*
X3288000Y-4093000D01*
X3248000Y-4053000D02*
X3328000Y-4053000D01*
X3288000Y-4267000D02*
X3288000Y-4347000D01*
X3248000Y-4307000D02*
X3328000Y-4307000D01*
X3288000Y-4521000D02*
X3288000Y-4601000D01*
X3248000Y-4561000D02*
X3328000Y-4561000D01*
X3288000Y-4775000D02*
X3288000Y-4855000D01*
X3248000Y-4815000D02*
X3328000Y-4815000D01*
X3288000Y-5029000D02*
X3288000Y-5109000D01*
X3248000Y-5069000D02*
X3328000Y-5069000D01*
X3288000Y-5283000D02*
X3288000Y-5363000D01*
X3248000Y-5323000D02*
X3328000Y-5323000D01*
X3288000Y-5537000D02*
X3288000Y-5617000D01*
X3248000Y-5577000D02*
X3328000Y-5577000D01*
X3288000Y-5791000D02*
X3288000Y-5871000D01*
X3248000Y-5831000D02*
X3328000Y-5831000D01*
X3288000Y-6045000D02*
X3288000Y-6125000D01*
X3248000Y-6085000D02*
X3328000Y-6085000D01*
X3288000Y-6299000D02*
X3288000Y-6379000D01*
X3248000Y-6339000D02*
X3328000Y-6339000D01*
X3288000Y-6553000D02*
X3288000Y-6633000D01*
X3248000Y-6593000D02*
X3328000Y-6593000D01*
X3288000Y-6807000D02*
X3288000Y-6887000D01*
X3248000Y-6847000D02*
X3328000Y-6847000D01*
X3288000Y-7061000D02*
X3288000Y-7141000D01*
X3248000Y-7101000D02*
X3328000Y-7101000D01*
X3288000Y-7315000D02*
X3288000Y-7395000D01*
X3248000Y-7355000D02*
X3328000Y-7355000D01*
X3288000Y-7569000D02*
X3288000Y-7649000D01*
X3248000Y-7609000D02*
X3328000Y-7609000D01*
X3288000Y-7823000D02*
X3288000Y-7903000D01*
X3248000Y-7863000D02*
X3328000Y-7863000D01*
X3288000Y-8077000D02*
X3288000Y-8157000D01*
X3248000Y-8117000D02*
X3328000Y-8117000D01*
X3288000Y-8331000D02*
X3288000Y-8411000D01*
X3248000Y-8371000D02*
X3328000Y-8371000D01*
X4812000Y-2489000D02*
X4812000Y-2569000D01*
X4772000Y-2529000D02*
X4852000Y-2529000D01*
X4812000Y-2743000D02*
X4812000Y-2823000D01*
X4772000Y-2783000D02*
X4852000Y-2783000D01*
X4812000Y-2997000D02*
X4812000Y-3077000D01*
X4772000Y-3037000D02*
X4852000Y-3037000D01*
X4812000Y-3251000D02*
X4812000Y-3331000D01*
X4772000Y-3291000D02*
X4852000Y-3291000D01*
X4812000Y-3505000D02*
X4812000Y-3585000D01*
X4772000Y-3545000D02*
X4852000Y-3545000D01*
X4812000Y-3759000D02*
X4812000Y-3839000D01*
X4772000Y-3799000D02*
X4852000Y-3799000D01*
X4812000Y-4013000D02*
X4812000Y-4093000D01*
X4772000Y-4053000D02*
X4852000Y-4053000D01*
X4812000Y-4267000D02*
X4812000Y-4347000D01*
X4772000Y-4307000D02*
X4852000Y-4307000D01*
X4812000Y-4521000D02*
X4812000Y-4601000D01*
X4772000Y-4561000D02*
X4852000Y-4561000D01*
X4812000Y-4775000D02*
X4812000Y-4855000D01*
X4772000Y-4815000D02*
X4852000Y-4815000D01*
X4812000Y-5029000D02*
X4812000Y-5109000D01*
X4772000Y-5069000D02*
X4852000Y-5069000D01*
X4812000Y-5283000D02*
X4812000Y-5363000D01*
X4772000Y-5323000D02*
X4852000Y-5323000D01*
X4812000Y-5537000D02*
X4812000Y-5617000D01*
X4772000Y-5577000D02*
X4852000Y-5577000D01*
X4812000Y-5791000D02*
X4812000Y-5871000D01*
X4772000Y-5831000D02*
X4852000Y-5831000D01*
X4812000Y-6045000D02*
X4812000Y-6125000D01*
X4772000Y-6085000D02*
X4852000Y-6085000D01*
X4812000Y-6299000D02*
X4812000Y-6379000D01*
X4772000Y-6339000D02*
X4852000Y-6339000D01*
X4812000Y-6553000D02*
X4812000Y-6633000D01*
X4772000Y-6593000D02*
X4852000Y-6593000D01*
X4812000Y-6807000D02*
X4812000Y-6887000D01*
X4772000Y-6847000D02*
X4852000Y-6847000D01*
X4812000Y-7061000D02*
X4812000Y-7141000D01*
X4772000Y-7101000D02*
X4852000Y-7101000D01*
X4812000Y-7315000D02*
X4812000Y-7395000D01*
X4772000Y-7355000D02*
X4852000Y-7355000D01*
X4812000Y-7569000D02*
X4812000Y-7649000D01*
X4772000Y-7609000D02*
X4852000Y-7609000D01*
X4812000Y-7823000D02*
X4812000Y-7903000D01*
X4772000Y-7863000D02*
X4852000Y-7863000D01*
X4812000Y-8077000D02*
X4812000Y-8157000D01*
X4772000Y-8117000D02*
X4852000Y-8117000D01*
X4812000Y-8331000D02*
X4812000Y-8411000D01*
X4772000Y-8371000D02*
X4852000Y-8371000D01*
X3031820Y-10241820D02*
X3031820Y-10178180D01*
X2968180Y-10178180D01*
X2968180Y-10241820D01*
X3031820Y-10241820D01*
X3031820Y-10441820D02*
X3031820Y-10378180D01*
X2968180Y-10378180D01*
X2968180Y-10441820D01*
X3031820Y-10441820D01*
X3031820Y-10641820D02*
X3031820Y-10578180D01*
X2968180Y-10578180D01*
X2968180Y-10641820D01*
X3031820Y-10641820D01*
X5150000Y-9400000D02*
X5200000Y-9350000D01*
X5150000Y-9300000D01*
X5100000Y-9350000D01*
X5150000Y-9400000D01*
X5150000Y-9750000D02*
X5200000Y-9700000D01*
X5150000Y-9650000D01*
X5100000Y-9700000D01*
X5150000Y-9750000D01*
X5440000Y-4792000D02*
X5490000Y-4742000D01*
X5440000Y-4692000D01*
X5390000Y-4742000D01*
X5440000Y-4792000D01*
X5440000Y-5046000D02*
X5490000Y-4996000D01*
X5440000Y-4946000D01*
X5390000Y-4996000D01*
X5440000Y-5046000D01*
X5440000Y-5300000D02*
X5490000Y-5250000D01*
X5440000Y-5200000D01*
X5390000Y-5250000D01*
X5440000Y-5300000D01*
X5440000Y-5554000D02*
X5490000Y-5504000D01*
X5440000Y-5454000D01*
X5390000Y-5504000D01*
X5440000Y-5554000D01*
X5440000Y-5808000D02*
X5490000Y-5758000D01*
X5440000Y-5708000D01*
X5390000Y-5758000D01*
X5440000Y-5808000D01*
X5440000Y-6062000D02*
X5490000Y-6012000D01*
X5440000Y-5962000D01*
X5390000Y-6012000D01*
X5440000Y-6062000D01*
X5440000Y-6316000D02*
X5490000Y-6266000D01*
X5440000Y-6216000D01*
X5390000Y-6266000D01*
X5440000Y-6316000D01*
X5440000Y-6570000D02*
X5490000Y-6520000D01*
X5440000Y-6470000D01*
X5390000Y-6520000D01*
X5440000Y-6570000D01*
X9050000Y-4784000D02*
X9100000Y-4734000D01*
X9050000Y-4684000D01*
X9000000Y-4734000D01*
X9050000Y-4784000D01*
X9050000Y-5038000D02*
X9100000Y-4988000D01*
X9050000Y-4938000D01*
X9000000Y-4988000D01*
X9050000Y-5038000D01*
X9050000Y-5292000D02*
X9100000Y-5242000D01*
X9050000Y-5192000D01*
X9000000Y-5242000D01*
X9050000Y-5292000D01*
X9050000Y-5546000D02*
X9100000Y-5496000D01*
X9050000Y-5446000D01*
X9000000Y-5496000D01*
X9050000Y-5546000D01*
X9050000Y-5800000D02*
X9100000Y-5750000D01*
X9050000Y-5700000D01*
X9000000Y-5750000D01*
X9050000Y-5800000D01*
X9050000Y-6054000D02*
X9100000Y-6004000D01*
X9050000Y-5954000D01*
X9000000Y-6004000D01*
X9050000Y-6054000D01*
X9050000Y-7192000D02*
X9100000Y-7142000D01*
X9050000Y-7092000D01*
X9000000Y-7142000D01*
X9050000Y-7192000D01*
X9050000Y-7446000D02*
X9100000Y-7396000D01*
X9050000Y-7346000D01*
X9000000Y-7396000D01*
X9050000Y-7446000D01*
X9050000Y-7700000D02*
X9100000Y-7650000D01*
X9050000Y-7600000D01*
X9000000Y-7650000D01*
X9050000Y-7700000D01*
X9050000Y-7954000D02*
X9100000Y-7904000D01*
X9050000Y-7854000D01*
X9000000Y-7904000D01*
X9050000Y-7954000D01*
X9050000Y-8208000D02*
X9100000Y-8158000D01*
X9050000Y-8108000D01*
X9000000Y-8158000D01*
X9050000Y-8208000D01*
X9050000Y-8462000D02*
X9100000Y-8412000D01*
X9050000Y-8362000D01*
X9000000Y-8412000D01*
X9050000Y-8462000D01*
X9500000Y-2350000D02*
X9550000Y-2300000D01*
X9500000Y-2250000D01*
X9450000Y-2300000D01*
X9500000Y-2350000D01*
X9500000Y-2604000D02*
X9550000Y-2554000D01*
X9500000Y-2504000D01*
X9450000Y-2554000D01*
X9500000Y-2604000D01*
X9500000Y-10496000D02*
X9550000Y-10446000D01*
X9500000Y-10396000D01*
X9450000Y-10446000D01*
X9500000Y-10496000D01*
X9500000Y-10750000D02*
X9550000Y-10700000D01*
X9500000Y-10650000D01*
X9450000Y-10700000D01*
X9500000Y-10750000D01*
X9796000Y-5762500D02*
X9846000Y-5712500D01*
X9796000Y-5662500D01*
X9746000Y-5712500D01*
X9796000Y-5762500D01*
X9796000Y-7350000D02*
X9846000Y-7300000D01*
X9796000Y-7250000D01*
X9746000Y-7300000D01*
X9796000Y-7350000D01*
X10050000Y-5762500D02*
X10100000Y-5712500D01*
X10050000Y-5662500D01*
X10000000Y-5712500D01*
X10050000Y-5762500D01*
X10050000Y-7350000D02*
X10100000Y-7300000D01*
X10050000Y-7250000D01*
X10000000Y-7300000D01*
X10050000Y-7350000D01*
X10050000Y-7700000D02*
X10100000Y-7650000D01*
X10050000Y-7600000D01*
X10000000Y-7650000D01*
X10050000Y-7700000D01*
X10304000Y-5762500D02*
X10354000Y-5712500D01*
X10304000Y-5662500D01*
X10254000Y-5712500D01*
X10304000Y-5762500D01*
X10304000Y-7350000D02*
X10354000Y-7300000D01*
X10304000Y-7250000D01*
X10254000Y-7300000D01*
X10304000Y-7350000D01*
X10350000Y-7700000D02*
X10400000Y-7650000D01*
X10350000Y-7600000D01*
X10300000Y-7650000D01*
X10350000Y-7700000D01*
X10558000Y-5762500D02*
X10608000Y-5712500D01*
X10558000Y-5662500D01*
X10508000Y-5712500D01*
X10558000Y-5762500D01*
X10558000Y-7350000D02*
X10608000Y-7300000D01*
X10558000Y-7250000D01*
X10508000Y-7300000D01*
X10558000Y-7350000D01*
X10812000Y-5762500D02*
X10862000Y-5712500D01*
X10812000Y-5662500D01*
X10762000Y-5712500D01*
X10812000Y-5762500D01*
X10812000Y-7350000D02*
X10862000Y-7300000D01*
X10812000Y-7250000D01*
X10762000Y-7300000D01*
X10812000Y-7350000D01*
X11066000Y-5762500D02*
X11116000Y-5712500D01*
X11066000Y-5662500D01*
X11016000Y-5712500D01*
X11066000Y-5762500D01*
X11066000Y-7350000D02*
X11116000Y-7300000D01*
X11066000Y-7250000D01*
X11016000Y-7300000D01*
X11066000Y-7350000D01*
X11320000Y-5762500D02*
X11370000Y-5712500D01*
X11320000Y-5662500D01*
X11270000Y-5712500D01*
X11320000Y-5762500D01*
X11320000Y-7350000D02*
X11370000Y-7300000D01*
X11320000Y-7250000D01*
X11270000Y-7300000D01*
X11320000Y-7350000D01*
X11574000Y-5762500D02*
X11624000Y-5712500D01*
X11574000Y-5662500D01*
X11524000Y-5712500D01*
X11574000Y-5762500D01*
X11574000Y-7350000D02*
X11624000Y-7300000D01*
X11574000Y-7250000D01*
X11524000Y-7300000D01*
X11574000Y-7350000D01*
X12210197Y-4910197D02*
X12260197Y-4860197D01*
X12210197Y-4810197D01*
X12160197Y-4860197D01*
X12210197Y-4910197D01*
X12210197Y-8129605D02*
X12260197Y-8079605D01*
X12210197Y-8029605D01*
X12160197Y-8079605D01*
X12210197Y-8129605D01*
X12389803Y-5089803D02*
X12439803Y-5039803D01*
X12389803Y-4989803D01*
X12339803Y-5039803D01*
X12389803Y-5089803D01*
X12389803Y-7950000D02*
X12439803Y-7900000D01*
X12389803Y-7850000D01*
X12339803Y-7900000D01*
X12389803Y-7950000D01*
X13400000Y-5550000D02*
X13450000Y-5500000D01*
X13400000Y-5450000D01*
X13350000Y-5500000D01*
X13400000Y-5550000D01*
X13400000Y-5900000D02*
X13450000Y-5850000D01*
X13400000Y-5800000D01*
X13350000Y-5850000D01*
X13400000Y-5900000D01*
D13*
X9998000Y-2248000D02*
X10102000Y-2352000D01*
X10102000Y-2248000D02*
X9998000Y-2352000D01*
X10102000Y-2300000D02*
G75*
G02*
X9998000Y-2300000I-52000J0D01*
G01*
X9998000Y-2300000D02*
G75*
G02*
X10102000Y-2300000I52000J0D01*
G01*
X9998000Y-2502000D02*
X10102000Y-2606000D01*
X10102000Y-2502000D02*
X9998000Y-2606000D01*
X10102000Y-2554000D02*
G75*
G02*
X9998000Y-2554000I-52000J0D01*
G01*
X9998000Y-2554000D02*
G75*
G02*
X10102000Y-2554000I52000J0D01*
G01*
X9998000Y-10394000D02*
X10102000Y-10498000D01*
X10102000Y-10394000D02*
X9998000Y-10498000D01*
X10102000Y-10446000D02*
G75*
G02*
X9998000Y-10446000I-52000J0D01*
G01*
X9998000Y-10446000D02*
G75*
G02*
X10102000Y-10446000I52000J0D01*
G01*
X9998000Y-10648000D02*
X10102000Y-10752000D01*
X10102000Y-10648000D02*
X9998000Y-10752000D01*
X10102000Y-10700000D02*
G75*
G02*
X9998000Y-10700000I-52000J0D01*
G01*
X9998000Y-10700000D02*
G75*
G02*
X10102000Y-10700000I52000J0D01*
G01*
X12558197Y-4408197D02*
X12662197Y-4512197D01*
X12662197Y-4408197D02*
X12558197Y-4512197D01*
X12662197Y-4460197D02*
G75*
G02*
X12558197Y-4460197I-52000J0D01*
G01*
X12558197Y-4460197D02*
G75*
G02*
X12662197Y-4460197I52000J0D01*
G01*
X12558197Y-8398000D02*
X12662197Y-8502000D01*
X12662197Y-8398000D02*
X12558197Y-8502000D01*
X12662197Y-8450000D02*
G75*
G02*
X12558197Y-8450000I-52000J0D01*
G01*
X12558197Y-8450000D02*
G75*
G02*
X12662197Y-8450000I52000J0D01*
G01*
X12737803Y-4587803D02*
X12841803Y-4691803D01*
X12841803Y-4587803D02*
X12737803Y-4691803D01*
X12841803Y-4639803D02*
G75*
G02*
X12737803Y-4639803I-52000J0D01*
G01*
X12737803Y-4639803D02*
G75*
G02*
X12841803Y-4639803I52000J0D01*
G01*
X12737803Y-8218395D02*
X12841803Y-8322395D01*
X12841803Y-8218395D02*
X12737803Y-8322395D01*
X12841803Y-8270395D02*
G75*
G02*
X12737803Y-8270395I-52000J0D01*
G01*
X12737803Y-8270395D02*
G75*
G02*
X12841803Y-8270395I52000J0D01*
G01*
D14*
X3937000Y-9595000D02*
X4047000Y-9705000D01*
X4047000Y-9595000D02*
X3937000Y-9705000D01*
X3992000Y-9595000D02*
X3992000Y-9705000D01*
X3937000Y-9650000D02*
X4047000Y-9650000D01*
X3941000Y-10245000D02*
X4051000Y-10355000D01*
X4051000Y-10245000D02*
X3941000Y-10355000D01*
X3996000Y-10245000D02*
X3996000Y-10355000D01*
X3941000Y-10300000D02*
X4051000Y-10300000D01*
X4191000Y-9595000D02*
X4301000Y-9705000D01*
X4301000Y-9595000D02*
X4191000Y-9705000D01*
X4246000Y-9595000D02*
X4246000Y-9705000D01*
X4191000Y-9650000D02*
X4301000Y-9650000D01*
X4195000Y-10245000D02*
X4305000Y-10355000D01*
X4305000Y-10245000D02*
X4195000Y-10355000D01*
X4250000Y-10245000D02*
X4250000Y-10355000D01*
X4195000Y-10300000D02*
X4305000Y-10300000D01*
X4445000Y-9595000D02*
X4555000Y-9705000D01*
X4555000Y-9595000D02*
X4445000Y-9705000D01*
X4500000Y-9595000D02*
X4500000Y-9705000D01*
X4445000Y-9650000D02*
X4555000Y-9650000D01*
X4449000Y-10245000D02*
X4559000Y-10355000D01*
X4559000Y-10245000D02*
X4449000Y-10355000D01*
X4504000Y-10245000D02*
X4504000Y-10355000D01*
X4449000Y-10300000D02*
X4559000Y-10300000D01*
D15*
X2925000Y-9925000D02*
X3075000Y-10075000D01*
X3075000Y-9925000D02*
X2925000Y-10075000D01*
X3053033Y-10053034D02*
X3053033Y-9946967D01*
X2946966Y-9946967D01*
X2946966Y-10053034D01*
X3053033Y-10053034D01*
X2925000Y-10745000D02*
X3075000Y-10895000D01*
X3075000Y-10745000D02*
X2925000Y-10895000D01*
X3053033Y-10873034D02*
X3053033Y-10766967D01*
X2946966Y-10766967D01*
X2946966Y-10873034D01*
X3053033Y-10873034D01*
D11*
X2958277Y-11563984D02*
X2958277Y-11363984D01*
X2958277Y-11363984D02*
X3005896Y-11363984D01*
X3005896Y-11363984D02*
X3034467Y-11373508D01*
X3034467Y-11373508D02*
X3053515Y-11392555D01*
X3053515Y-11392555D02*
X3063039Y-11411603D01*
X3063039Y-11411603D02*
X3072562Y-11449698D01*
X3072562Y-11449698D02*
X3072562Y-11478269D01*
X3072562Y-11478269D02*
X3063039Y-11516365D01*
X3063039Y-11516365D02*
X3053515Y-11535412D01*
X3053515Y-11535412D02*
X3034467Y-11554460D01*
X3034467Y-11554460D02*
X3005896Y-11563984D01*
X3005896Y-11563984D02*
X2958277Y-11563984D01*
X3158277Y-11563984D02*
X3158277Y-11430650D01*
X3158277Y-11468746D02*
X3167801Y-11449698D01*
X3167801Y-11449698D02*
X3177324Y-11440174D01*
X3177324Y-11440174D02*
X3196372Y-11430650D01*
X3196372Y-11430650D02*
X3215420Y-11430650D01*
X3282086Y-11563984D02*
X3282086Y-11430650D01*
X3282086Y-11363984D02*
X3272562Y-11373508D01*
X3272562Y-11373508D02*
X3282086Y-11383031D01*
X3282086Y-11383031D02*
X3291610Y-11373508D01*
X3291610Y-11373508D02*
X3282086Y-11363984D01*
X3282086Y-11363984D02*
X3282086Y-11383031D01*
X3405896Y-11563984D02*
X3386848Y-11554460D01*
X3386848Y-11554460D02*
X3377324Y-11535412D01*
X3377324Y-11535412D02*
X3377324Y-11363984D01*
X3510658Y-11563984D02*
X3491610Y-11554460D01*
X3491610Y-11554460D02*
X3482086Y-11535412D01*
X3482086Y-11535412D02*
X3482086Y-11363984D01*
X3739229Y-11563984D02*
X3739229Y-11363984D01*
X3739229Y-11363984D02*
X3805896Y-11506841D01*
X3805896Y-11506841D02*
X3872562Y-11363984D01*
X3872562Y-11363984D02*
X3872562Y-11563984D01*
X4053515Y-11563984D02*
X4053515Y-11459222D01*
X4053515Y-11459222D02*
X4043991Y-11440174D01*
X4043991Y-11440174D02*
X4024943Y-11430650D01*
X4024943Y-11430650D02*
X3986848Y-11430650D01*
X3986848Y-11430650D02*
X3967801Y-11440174D01*
X4053515Y-11554460D02*
X4034467Y-11563984D01*
X4034467Y-11563984D02*
X3986848Y-11563984D01*
X3986848Y-11563984D02*
X3967801Y-11554460D01*
X3967801Y-11554460D02*
X3958277Y-11535412D01*
X3958277Y-11535412D02*
X3958277Y-11516365D01*
X3958277Y-11516365D02*
X3967801Y-11497317D01*
X3967801Y-11497317D02*
X3986848Y-11487793D01*
X3986848Y-11487793D02*
X4034467Y-11487793D01*
X4034467Y-11487793D02*
X4053515Y-11478269D01*
X4148753Y-11430650D02*
X4148753Y-11630650D01*
X4148753Y-11440174D02*
X4167801Y-11430650D01*
X4167801Y-11430650D02*
X4205896Y-11430650D01*
X4205896Y-11430650D02*
X4224944Y-11440174D01*
X4224944Y-11440174D02*
X4234467Y-11449698D01*
X4234467Y-11449698D02*
X4243991Y-11468746D01*
X4243991Y-11468746D02*
X4243991Y-11525888D01*
X4243991Y-11525888D02*
X4234467Y-11544936D01*
X4234467Y-11544936D02*
X4224944Y-11554460D01*
X4224944Y-11554460D02*
X4205896Y-11563984D01*
X4205896Y-11563984D02*
X4167801Y-11563984D01*
X4167801Y-11563984D02*
X4148753Y-11554460D01*
X4329705Y-11544936D02*
X4339229Y-11554460D01*
X4339229Y-11554460D02*
X4329705Y-11563984D01*
X4329705Y-11563984D02*
X4320182Y-11554460D01*
X4320182Y-11554460D02*
X4329705Y-11544936D01*
X4329705Y-11544936D02*
X4329705Y-11563984D01*
X4329705Y-11440174D02*
X4339229Y-11449698D01*
X4339229Y-11449698D02*
X4329705Y-11459222D01*
X4329705Y-11459222D02*
X4320182Y-11449698D01*
X4320182Y-11449698D02*
X4329705Y-11440174D01*
X4329705Y-11440174D02*
X4329705Y-11459222D01*
D12*
X2657500Y-11872500D02*
X2697500Y-11912500D01*
X2697500Y-11872500D02*
X2657500Y-11912500D01*
D11*
X2996372Y-11783984D02*
X3015420Y-11783984D01*
X3015420Y-11783984D02*
X3034467Y-11793508D01*
X3034467Y-11793508D02*
X3043991Y-11803031D01*
X3043991Y-11803031D02*
X3053515Y-11822079D01*
X3053515Y-11822079D02*
X3063039Y-11860174D01*
X3063039Y-11860174D02*
X3063039Y-11907793D01*
X3063039Y-11907793D02*
X3053515Y-11945888D01*
X3053515Y-11945888D02*
X3043991Y-11964936D01*
X3043991Y-11964936D02*
X3034467Y-11974460D01*
X3034467Y-11974460D02*
X3015420Y-11983984D01*
X3015420Y-11983984D02*
X2996372Y-11983984D01*
X2996372Y-11983984D02*
X2977324Y-11974460D01*
X2977324Y-11974460D02*
X2967801Y-11964936D01*
X2967801Y-11964936D02*
X2958277Y-11945888D01*
X2958277Y-11945888D02*
X2948753Y-11907793D01*
X2948753Y-11907793D02*
X2948753Y-11860174D01*
X2948753Y-11860174D02*
X2958277Y-11822079D01*
X2958277Y-11822079D02*
X2967801Y-11803031D01*
X2967801Y-11803031D02*
X2977324Y-11793508D01*
X2977324Y-11793508D02*
X2996372Y-11783984D01*
X3148753Y-11964936D02*
X3158277Y-11974460D01*
X3158277Y-11974460D02*
X3148753Y-11983984D01*
X3148753Y-11983984D02*
X3139229Y-11974460D01*
X3139229Y-11974460D02*
X3148753Y-11964936D01*
X3148753Y-11964936D02*
X3148753Y-11983984D01*
X3329705Y-11850650D02*
X3329705Y-11983984D01*
X3282086Y-11774460D02*
X3234467Y-11917317D01*
X3234467Y-11917317D02*
X3358277Y-11917317D01*
X3472562Y-11783984D02*
X3491610Y-11783984D01*
X3491610Y-11783984D02*
X3510658Y-11793508D01*
X3510658Y-11793508D02*
X3520182Y-11803031D01*
X3520182Y-11803031D02*
X3529705Y-11822079D01*
X3529705Y-11822079D02*
X3539229Y-11860174D01*
X3539229Y-11860174D02*
X3539229Y-11907793D01*
X3539229Y-11907793D02*
X3529705Y-11945888D01*
X3529705Y-11945888D02*
X3520182Y-11964936D01*
X3520182Y-11964936D02*
X3510658Y-11974460D01*
X3510658Y-11974460D02*
X3491610Y-11983984D01*
X3491610Y-11983984D02*
X3472562Y-11983984D01*
X3472562Y-11983984D02*
X3453515Y-11974460D01*
X3453515Y-11974460D02*
X3443991Y-11964936D01*
X3443991Y-11964936D02*
X3434467Y-11945888D01*
X3434467Y-11945888D02*
X3424943Y-11907793D01*
X3424943Y-11907793D02*
X3424943Y-11860174D01*
X3424943Y-11860174D02*
X3434467Y-11822079D01*
X3434467Y-11822079D02*
X3443991Y-11803031D01*
X3443991Y-11803031D02*
X3453515Y-11793508D01*
X3453515Y-11793508D02*
X3472562Y-11783984D01*
X3663039Y-11783984D02*
X3682086Y-11783984D01*
X3682086Y-11783984D02*
X3701134Y-11793508D01*
X3701134Y-11793508D02*
X3710658Y-11803031D01*
X3710658Y-11803031D02*
X3720182Y-11822079D01*
X3720182Y-11822079D02*
X3729705Y-11860174D01*
X3729705Y-11860174D02*
X3729705Y-11907793D01*
X3729705Y-11907793D02*
X3720182Y-11945888D01*
X3720182Y-11945888D02*
X3710658Y-11964936D01*
X3710658Y-11964936D02*
X3701134Y-11974460D01*
X3701134Y-11974460D02*
X3682086Y-11983984D01*
X3682086Y-11983984D02*
X3663039Y-11983984D01*
X3663039Y-11983984D02*
X3643991Y-11974460D01*
X3643991Y-11974460D02*
X3634467Y-11964936D01*
X3634467Y-11964936D02*
X3624943Y-11945888D01*
X3624943Y-11945888D02*
X3615420Y-11907793D01*
X3615420Y-11907793D02*
X3615420Y-11860174D01*
X3615420Y-11860174D02*
X3624943Y-11822079D01*
X3624943Y-11822079D02*
X3634467Y-11803031D01*
X3634467Y-11803031D02*
X3643991Y-11793508D01*
X3643991Y-11793508D02*
X3663039Y-11783984D01*
X3815420Y-11983984D02*
X3815420Y-11850650D01*
X3815420Y-11869698D02*
X3824943Y-11860174D01*
X3824943Y-11860174D02*
X3843991Y-11850650D01*
X3843991Y-11850650D02*
X3872563Y-11850650D01*
X3872563Y-11850650D02*
X3891610Y-11860174D01*
X3891610Y-11860174D02*
X3901134Y-11879222D01*
X3901134Y-11879222D02*
X3901134Y-11983984D01*
X3901134Y-11879222D02*
X3910658Y-11860174D01*
X3910658Y-11860174D02*
X3929705Y-11850650D01*
X3929705Y-11850650D02*
X3958277Y-11850650D01*
X3958277Y-11850650D02*
X3977324Y-11860174D01*
X3977324Y-11860174D02*
X3986848Y-11879222D01*
X3986848Y-11879222D02*
X3986848Y-11983984D01*
X4082086Y-11983984D02*
X4082086Y-11850650D01*
X4082086Y-11869698D02*
X4091610Y-11860174D01*
X4091610Y-11860174D02*
X4110658Y-11850650D01*
X4110658Y-11850650D02*
X4139229Y-11850650D01*
X4139229Y-11850650D02*
X4158277Y-11860174D01*
X4158277Y-11860174D02*
X4167801Y-11879222D01*
X4167801Y-11879222D02*
X4167801Y-11983984D01*
X4167801Y-11879222D02*
X4177324Y-11860174D01*
X4177324Y-11860174D02*
X4196372Y-11850650D01*
X4196372Y-11850650D02*
X4224944Y-11850650D01*
X4224944Y-11850650D02*
X4243991Y-11860174D01*
X4243991Y-11860174D02*
X4253515Y-11879222D01*
X4253515Y-11879222D02*
X4253515Y-11983984D01*
X4643991Y-11774460D02*
X4472563Y-12031603D01*
X4901134Y-11783984D02*
X4920182Y-11783984D01*
X4920182Y-11783984D02*
X4939229Y-11793508D01*
X4939229Y-11793508D02*
X4948753Y-11803031D01*
X4948753Y-11803031D02*
X4958277Y-11822079D01*
X4958277Y-11822079D02*
X4967801Y-11860174D01*
X4967801Y-11860174D02*
X4967801Y-11907793D01*
X4967801Y-11907793D02*
X4958277Y-11945888D01*
X4958277Y-11945888D02*
X4948753Y-11964936D01*
X4948753Y-11964936D02*
X4939229Y-11974460D01*
X4939229Y-11974460D02*
X4920182Y-11983984D01*
X4920182Y-11983984D02*
X4901134Y-11983984D01*
X4901134Y-11983984D02*
X4882087Y-11974460D01*
X4882087Y-11974460D02*
X4872563Y-11964936D01*
X4872563Y-11964936D02*
X4863039Y-11945888D01*
X4863039Y-11945888D02*
X4853515Y-11907793D01*
X4853515Y-11907793D02*
X4853515Y-11860174D01*
X4853515Y-11860174D02*
X4863039Y-11822079D01*
X4863039Y-11822079D02*
X4872563Y-11803031D01*
X4872563Y-11803031D02*
X4882087Y-11793508D01*
X4882087Y-11793508D02*
X4901134Y-11783984D01*
X5053515Y-11964936D02*
X5063039Y-11974460D01*
X5063039Y-11974460D02*
X5053515Y-11983984D01*
X5053515Y-11983984D02*
X5043991Y-11974460D01*
X5043991Y-11974460D02*
X5053515Y-11964936D01*
X5053515Y-11964936D02*
X5053515Y-11983984D01*
X5186848Y-11783984D02*
X5205896Y-11783984D01*
X5205896Y-11783984D02*
X5224944Y-11793508D01*
X5224944Y-11793508D02*
X5234468Y-11803031D01*
X5234468Y-11803031D02*
X5243991Y-11822079D01*
X5243991Y-11822079D02*
X5253515Y-11860174D01*
X5253515Y-11860174D02*
X5253515Y-11907793D01*
X5253515Y-11907793D02*
X5243991Y-11945888D01*
X5243991Y-11945888D02*
X5234468Y-11964936D01*
X5234468Y-11964936D02*
X5224944Y-11974460D01*
X5224944Y-11974460D02*
X5205896Y-11983984D01*
X5205896Y-11983984D02*
X5186848Y-11983984D01*
X5186848Y-11983984D02*
X5167801Y-11974460D01*
X5167801Y-11974460D02*
X5158277Y-11964936D01*
X5158277Y-11964936D02*
X5148753Y-11945888D01*
X5148753Y-11945888D02*
X5139229Y-11907793D01*
X5139229Y-11907793D02*
X5139229Y-11860174D01*
X5139229Y-11860174D02*
X5148753Y-11822079D01*
X5148753Y-11822079D02*
X5158277Y-11803031D01*
X5158277Y-11803031D02*
X5167801Y-11793508D01*
X5167801Y-11793508D02*
X5186848Y-11783984D01*
X5443991Y-11983984D02*
X5329706Y-11983984D01*
X5386848Y-11983984D02*
X5386848Y-11783984D01*
X5386848Y-11783984D02*
X5367801Y-11812555D01*
X5367801Y-11812555D02*
X5348753Y-11831603D01*
X5348753Y-11831603D02*
X5329706Y-11841127D01*
X5624944Y-11783984D02*
X5529706Y-11783984D01*
X5529706Y-11783984D02*
X5520182Y-11879222D01*
X5520182Y-11879222D02*
X5529706Y-11869698D01*
X5529706Y-11869698D02*
X5548753Y-11860174D01*
X5548753Y-11860174D02*
X5596372Y-11860174D01*
X5596372Y-11860174D02*
X5615420Y-11869698D01*
X5615420Y-11869698D02*
X5624944Y-11879222D01*
X5624944Y-11879222D02*
X5634467Y-11898269D01*
X5634467Y-11898269D02*
X5634467Y-11945888D01*
X5634467Y-11945888D02*
X5624944Y-11964936D01*
X5624944Y-11964936D02*
X5615420Y-11974460D01*
X5615420Y-11974460D02*
X5596372Y-11983984D01*
X5596372Y-11983984D02*
X5548753Y-11983984D01*
X5548753Y-11983984D02*
X5529706Y-11974460D01*
X5529706Y-11974460D02*
X5520182Y-11964936D01*
X5701134Y-11783984D02*
X5834467Y-11783984D01*
X5834467Y-11783984D02*
X5748753Y-11983984D01*
X5901134Y-11783984D02*
X5901134Y-11822079D01*
X5977325Y-11783984D02*
X5977325Y-11822079D01*
X6272563Y-12060174D02*
X6263039Y-12050650D01*
X6263039Y-12050650D02*
X6243991Y-12022079D01*
X6243991Y-12022079D02*
X6234468Y-12003031D01*
X6234468Y-12003031D02*
X6224944Y-11974460D01*
X6224944Y-11974460D02*
X6215420Y-11926841D01*
X6215420Y-11926841D02*
X6215420Y-11888746D01*
X6215420Y-11888746D02*
X6224944Y-11841127D01*
X6224944Y-11841127D02*
X6234468Y-11812555D01*
X6234468Y-11812555D02*
X6243991Y-11793508D01*
X6243991Y-11793508D02*
X6263039Y-11764936D01*
X6263039Y-11764936D02*
X6272563Y-11755412D01*
X6339229Y-11803031D02*
X6348753Y-11793508D01*
X6348753Y-11793508D02*
X6367801Y-11783984D01*
X6367801Y-11783984D02*
X6415420Y-11783984D01*
X6415420Y-11783984D02*
X6434468Y-11793508D01*
X6434468Y-11793508D02*
X6443991Y-11803031D01*
X6443991Y-11803031D02*
X6453515Y-11822079D01*
X6453515Y-11822079D02*
X6453515Y-11841127D01*
X6453515Y-11841127D02*
X6443991Y-11869698D01*
X6443991Y-11869698D02*
X6329706Y-11983984D01*
X6329706Y-11983984D02*
X6453515Y-11983984D01*
X6643991Y-11983984D02*
X6529706Y-11983984D01*
X6586848Y-11983984D02*
X6586848Y-11783984D01*
X6586848Y-11783984D02*
X6567801Y-11812555D01*
X6567801Y-11812555D02*
X6548753Y-11831603D01*
X6548753Y-11831603D02*
X6529706Y-11841127D01*
X6882087Y-11983984D02*
X6882087Y-11783984D01*
X6967801Y-11983984D02*
X6967801Y-11879222D01*
X6967801Y-11879222D02*
X6958277Y-11860174D01*
X6958277Y-11860174D02*
X6939230Y-11850650D01*
X6939230Y-11850650D02*
X6910658Y-11850650D01*
X6910658Y-11850650D02*
X6891610Y-11860174D01*
X6891610Y-11860174D02*
X6882087Y-11869698D01*
X7091610Y-11983984D02*
X7072563Y-11974460D01*
X7072563Y-11974460D02*
X7063039Y-11964936D01*
X7063039Y-11964936D02*
X7053515Y-11945888D01*
X7053515Y-11945888D02*
X7053515Y-11888746D01*
X7053515Y-11888746D02*
X7063039Y-11869698D01*
X7063039Y-11869698D02*
X7072563Y-11860174D01*
X7072563Y-11860174D02*
X7091610Y-11850650D01*
X7091610Y-11850650D02*
X7120182Y-11850650D01*
X7120182Y-11850650D02*
X7139230Y-11860174D01*
X7139230Y-11860174D02*
X7148753Y-11869698D01*
X7148753Y-11869698D02*
X7158277Y-11888746D01*
X7158277Y-11888746D02*
X7158277Y-11945888D01*
X7158277Y-11945888D02*
X7148753Y-11964936D01*
X7148753Y-11964936D02*
X7139230Y-11974460D01*
X7139230Y-11974460D02*
X7120182Y-11983984D01*
X7120182Y-11983984D02*
X7091610Y-11983984D01*
X7272563Y-11983984D02*
X7253515Y-11974460D01*
X7253515Y-11974460D02*
X7243991Y-11955412D01*
X7243991Y-11955412D02*
X7243991Y-11783984D01*
X7424944Y-11974460D02*
X7405896Y-11983984D01*
X7405896Y-11983984D02*
X7367801Y-11983984D01*
X7367801Y-11983984D02*
X7348753Y-11974460D01*
X7348753Y-11974460D02*
X7339230Y-11955412D01*
X7339230Y-11955412D02*
X7339230Y-11879222D01*
X7339230Y-11879222D02*
X7348753Y-11860174D01*
X7348753Y-11860174D02*
X7367801Y-11850650D01*
X7367801Y-11850650D02*
X7405896Y-11850650D01*
X7405896Y-11850650D02*
X7424944Y-11860174D01*
X7424944Y-11860174D02*
X7434468Y-11879222D01*
X7434468Y-11879222D02*
X7434468Y-11898269D01*
X7434468Y-11898269D02*
X7339230Y-11917317D01*
X7510658Y-11974460D02*
X7529706Y-11983984D01*
X7529706Y-11983984D02*
X7567801Y-11983984D01*
X7567801Y-11983984D02*
X7586849Y-11974460D01*
X7586849Y-11974460D02*
X7596372Y-11955412D01*
X7596372Y-11955412D02*
X7596372Y-11945888D01*
X7596372Y-11945888D02*
X7586849Y-11926841D01*
X7586849Y-11926841D02*
X7567801Y-11917317D01*
X7567801Y-11917317D02*
X7539230Y-11917317D01*
X7539230Y-11917317D02*
X7520182Y-11907793D01*
X7520182Y-11907793D02*
X7510658Y-11888746D01*
X7510658Y-11888746D02*
X7510658Y-11879222D01*
X7510658Y-11879222D02*
X7520182Y-11860174D01*
X7520182Y-11860174D02*
X7539230Y-11850650D01*
X7539230Y-11850650D02*
X7567801Y-11850650D01*
X7567801Y-11850650D02*
X7586849Y-11860174D01*
X7663039Y-12060174D02*
X7672563Y-12050650D01*
X7672563Y-12050650D02*
X7691611Y-12022079D01*
X7691611Y-12022079D02*
X7701134Y-12003031D01*
X7701134Y-12003031D02*
X7710658Y-11974460D01*
X7710658Y-11974460D02*
X7720182Y-11926841D01*
X7720182Y-11926841D02*
X7720182Y-11888746D01*
X7720182Y-11888746D02*
X7710658Y-11841127D01*
X7710658Y-11841127D02*
X7701134Y-11812555D01*
X7701134Y-11812555D02*
X7691611Y-11793508D01*
X7691611Y-11793508D02*
X7672563Y-11764936D01*
X7672563Y-11764936D02*
X7663039Y-11755412D01*
D12*
X2697500Y-12156500D02*
G75*
G02*
X2622500Y-12156500I-37500J0D01*
G01*
X2622500Y-12156500D02*
G75*
G02*
X2697500Y-12156500I37500J0D01*
G01*
D11*
X2996372Y-12047984D02*
X3015420Y-12047984D01*
X3015420Y-12047984D02*
X3034467Y-12057508D01*
X3034467Y-12057508D02*
X3043991Y-12067031D01*
X3043991Y-12067031D02*
X3053515Y-12086079D01*
X3053515Y-12086079D02*
X3063039Y-12124174D01*
X3063039Y-12124174D02*
X3063039Y-12171793D01*
X3063039Y-12171793D02*
X3053515Y-12209888D01*
X3053515Y-12209888D02*
X3043991Y-12228936D01*
X3043991Y-12228936D02*
X3034467Y-12238460D01*
X3034467Y-12238460D02*
X3015420Y-12247984D01*
X3015420Y-12247984D02*
X2996372Y-12247984D01*
X2996372Y-12247984D02*
X2977324Y-12238460D01*
X2977324Y-12238460D02*
X2967801Y-12228936D01*
X2967801Y-12228936D02*
X2958277Y-12209888D01*
X2958277Y-12209888D02*
X2948753Y-12171793D01*
X2948753Y-12171793D02*
X2948753Y-12124174D01*
X2948753Y-12124174D02*
X2958277Y-12086079D01*
X2958277Y-12086079D02*
X2967801Y-12067031D01*
X2967801Y-12067031D02*
X2977324Y-12057508D01*
X2977324Y-12057508D02*
X2996372Y-12047984D01*
X3148753Y-12228936D02*
X3158277Y-12238460D01*
X3158277Y-12238460D02*
X3148753Y-12247984D01*
X3148753Y-12247984D02*
X3139229Y-12238460D01*
X3139229Y-12238460D02*
X3148753Y-12228936D01*
X3148753Y-12228936D02*
X3148753Y-12247984D01*
X3224943Y-12047984D02*
X3358277Y-12047984D01*
X3358277Y-12047984D02*
X3272562Y-12247984D01*
X3529705Y-12047984D02*
X3434467Y-12047984D01*
X3434467Y-12047984D02*
X3424943Y-12143222D01*
X3424943Y-12143222D02*
X3434467Y-12133698D01*
X3434467Y-12133698D02*
X3453515Y-12124174D01*
X3453515Y-12124174D02*
X3501134Y-12124174D01*
X3501134Y-12124174D02*
X3520182Y-12133698D01*
X3520182Y-12133698D02*
X3529705Y-12143222D01*
X3529705Y-12143222D02*
X3539229Y-12162269D01*
X3539229Y-12162269D02*
X3539229Y-12209888D01*
X3539229Y-12209888D02*
X3529705Y-12228936D01*
X3529705Y-12228936D02*
X3520182Y-12238460D01*
X3520182Y-12238460D02*
X3501134Y-12247984D01*
X3501134Y-12247984D02*
X3453515Y-12247984D01*
X3453515Y-12247984D02*
X3434467Y-12238460D01*
X3434467Y-12238460D02*
X3424943Y-12228936D01*
X3663039Y-12047984D02*
X3682086Y-12047984D01*
X3682086Y-12047984D02*
X3701134Y-12057508D01*
X3701134Y-12057508D02*
X3710658Y-12067031D01*
X3710658Y-12067031D02*
X3720182Y-12086079D01*
X3720182Y-12086079D02*
X3729705Y-12124174D01*
X3729705Y-12124174D02*
X3729705Y-12171793D01*
X3729705Y-12171793D02*
X3720182Y-12209888D01*
X3720182Y-12209888D02*
X3710658Y-12228936D01*
X3710658Y-12228936D02*
X3701134Y-12238460D01*
X3701134Y-12238460D02*
X3682086Y-12247984D01*
X3682086Y-12247984D02*
X3663039Y-12247984D01*
X3663039Y-12247984D02*
X3643991Y-12238460D01*
X3643991Y-12238460D02*
X3634467Y-12228936D01*
X3634467Y-12228936D02*
X3624943Y-12209888D01*
X3624943Y-12209888D02*
X3615420Y-12171793D01*
X3615420Y-12171793D02*
X3615420Y-12124174D01*
X3615420Y-12124174D02*
X3624943Y-12086079D01*
X3624943Y-12086079D02*
X3634467Y-12067031D01*
X3634467Y-12067031D02*
X3643991Y-12057508D01*
X3643991Y-12057508D02*
X3663039Y-12047984D01*
X3815420Y-12247984D02*
X3815420Y-12114650D01*
X3815420Y-12133698D02*
X3824943Y-12124174D01*
X3824943Y-12124174D02*
X3843991Y-12114650D01*
X3843991Y-12114650D02*
X3872563Y-12114650D01*
X3872563Y-12114650D02*
X3891610Y-12124174D01*
X3891610Y-12124174D02*
X3901134Y-12143222D01*
X3901134Y-12143222D02*
X3901134Y-12247984D01*
X3901134Y-12143222D02*
X3910658Y-12124174D01*
X3910658Y-12124174D02*
X3929705Y-12114650D01*
X3929705Y-12114650D02*
X3958277Y-12114650D01*
X3958277Y-12114650D02*
X3977324Y-12124174D01*
X3977324Y-12124174D02*
X3986848Y-12143222D01*
X3986848Y-12143222D02*
X3986848Y-12247984D01*
X4082086Y-12247984D02*
X4082086Y-12114650D01*
X4082086Y-12133698D02*
X4091610Y-12124174D01*
X4091610Y-12124174D02*
X4110658Y-12114650D01*
X4110658Y-12114650D02*
X4139229Y-12114650D01*
X4139229Y-12114650D02*
X4158277Y-12124174D01*
X4158277Y-12124174D02*
X4167801Y-12143222D01*
X4167801Y-12143222D02*
X4167801Y-12247984D01*
X4167801Y-12143222D02*
X4177324Y-12124174D01*
X4177324Y-12124174D02*
X4196372Y-12114650D01*
X4196372Y-12114650D02*
X4224944Y-12114650D01*
X4224944Y-12114650D02*
X4243991Y-12124174D01*
X4243991Y-12124174D02*
X4253515Y-12143222D01*
X4253515Y-12143222D02*
X4253515Y-12247984D01*
X4643991Y-12038460D02*
X4472563Y-12295603D01*
X4901134Y-12047984D02*
X4920182Y-12047984D01*
X4920182Y-12047984D02*
X4939229Y-12057508D01*
X4939229Y-12057508D02*
X4948753Y-12067031D01*
X4948753Y-12067031D02*
X4958277Y-12086079D01*
X4958277Y-12086079D02*
X4967801Y-12124174D01*
X4967801Y-12124174D02*
X4967801Y-12171793D01*
X4967801Y-12171793D02*
X4958277Y-12209888D01*
X4958277Y-12209888D02*
X4948753Y-12228936D01*
X4948753Y-12228936D02*
X4939229Y-12238460D01*
X4939229Y-12238460D02*
X4920182Y-12247984D01*
X4920182Y-12247984D02*
X4901134Y-12247984D01*
X4901134Y-12247984D02*
X4882087Y-12238460D01*
X4882087Y-12238460D02*
X4872563Y-12228936D01*
X4872563Y-12228936D02*
X4863039Y-12209888D01*
X4863039Y-12209888D02*
X4853515Y-12171793D01*
X4853515Y-12171793D02*
X4853515Y-12124174D01*
X4853515Y-12124174D02*
X4863039Y-12086079D01*
X4863039Y-12086079D02*
X4872563Y-12067031D01*
X4872563Y-12067031D02*
X4882087Y-12057508D01*
X4882087Y-12057508D02*
X4901134Y-12047984D01*
X5053515Y-12228936D02*
X5063039Y-12238460D01*
X5063039Y-12238460D02*
X5053515Y-12247984D01*
X5053515Y-12247984D02*
X5043991Y-12238460D01*
X5043991Y-12238460D02*
X5053515Y-12228936D01*
X5053515Y-12228936D02*
X5053515Y-12247984D01*
X5186848Y-12047984D02*
X5205896Y-12047984D01*
X5205896Y-12047984D02*
X5224944Y-12057508D01*
X5224944Y-12057508D02*
X5234468Y-12067031D01*
X5234468Y-12067031D02*
X5243991Y-12086079D01*
X5243991Y-12086079D02*
X5253515Y-12124174D01*
X5253515Y-12124174D02*
X5253515Y-12171793D01*
X5253515Y-12171793D02*
X5243991Y-12209888D01*
X5243991Y-12209888D02*
X5234468Y-12228936D01*
X5234468Y-12228936D02*
X5224944Y-12238460D01*
X5224944Y-12238460D02*
X5205896Y-12247984D01*
X5205896Y-12247984D02*
X5186848Y-12247984D01*
X5186848Y-12247984D02*
X5167801Y-12238460D01*
X5167801Y-12238460D02*
X5158277Y-12228936D01*
X5158277Y-12228936D02*
X5148753Y-12209888D01*
X5148753Y-12209888D02*
X5139229Y-12171793D01*
X5139229Y-12171793D02*
X5139229Y-12124174D01*
X5139229Y-12124174D02*
X5148753Y-12086079D01*
X5148753Y-12086079D02*
X5158277Y-12067031D01*
X5158277Y-12067031D02*
X5167801Y-12057508D01*
X5167801Y-12057508D02*
X5186848Y-12047984D01*
X5329706Y-12067031D02*
X5339229Y-12057508D01*
X5339229Y-12057508D02*
X5358277Y-12047984D01*
X5358277Y-12047984D02*
X5405896Y-12047984D01*
X5405896Y-12047984D02*
X5424944Y-12057508D01*
X5424944Y-12057508D02*
X5434468Y-12067031D01*
X5434468Y-12067031D02*
X5443991Y-12086079D01*
X5443991Y-12086079D02*
X5443991Y-12105127D01*
X5443991Y-12105127D02*
X5434468Y-12133698D01*
X5434468Y-12133698D02*
X5320182Y-12247984D01*
X5320182Y-12247984D02*
X5443991Y-12247984D01*
X5539229Y-12247984D02*
X5577325Y-12247984D01*
X5577325Y-12247984D02*
X5596372Y-12238460D01*
X5596372Y-12238460D02*
X5605896Y-12228936D01*
X5605896Y-12228936D02*
X5624944Y-12200365D01*
X5624944Y-12200365D02*
X5634467Y-12162269D01*
X5634467Y-12162269D02*
X5634467Y-12086079D01*
X5634467Y-12086079D02*
X5624944Y-12067031D01*
X5624944Y-12067031D02*
X5615420Y-12057508D01*
X5615420Y-12057508D02*
X5596372Y-12047984D01*
X5596372Y-12047984D02*
X5558277Y-12047984D01*
X5558277Y-12047984D02*
X5539229Y-12057508D01*
X5539229Y-12057508D02*
X5529706Y-12067031D01*
X5529706Y-12067031D02*
X5520182Y-12086079D01*
X5520182Y-12086079D02*
X5520182Y-12133698D01*
X5520182Y-12133698D02*
X5529706Y-12152746D01*
X5529706Y-12152746D02*
X5539229Y-12162269D01*
X5539229Y-12162269D02*
X5558277Y-12171793D01*
X5558277Y-12171793D02*
X5596372Y-12171793D01*
X5596372Y-12171793D02*
X5615420Y-12162269D01*
X5615420Y-12162269D02*
X5624944Y-12152746D01*
X5624944Y-12152746D02*
X5634467Y-12133698D01*
X5815420Y-12047984D02*
X5720182Y-12047984D01*
X5720182Y-12047984D02*
X5710658Y-12143222D01*
X5710658Y-12143222D02*
X5720182Y-12133698D01*
X5720182Y-12133698D02*
X5739229Y-12124174D01*
X5739229Y-12124174D02*
X5786848Y-12124174D01*
X5786848Y-12124174D02*
X5805896Y-12133698D01*
X5805896Y-12133698D02*
X5815420Y-12143222D01*
X5815420Y-12143222D02*
X5824944Y-12162269D01*
X5824944Y-12162269D02*
X5824944Y-12209888D01*
X5824944Y-12209888D02*
X5815420Y-12228936D01*
X5815420Y-12228936D02*
X5805896Y-12238460D01*
X5805896Y-12238460D02*
X5786848Y-12247984D01*
X5786848Y-12247984D02*
X5739229Y-12247984D01*
X5739229Y-12247984D02*
X5720182Y-12238460D01*
X5720182Y-12238460D02*
X5710658Y-12228936D01*
X5901134Y-12047984D02*
X5901134Y-12086079D01*
X5977325Y-12047984D02*
X5977325Y-12086079D01*
X6272563Y-12324174D02*
X6263039Y-12314650D01*
X6263039Y-12314650D02*
X6243991Y-12286079D01*
X6243991Y-12286079D02*
X6234468Y-12267031D01*
X6234468Y-12267031D02*
X6224944Y-12238460D01*
X6224944Y-12238460D02*
X6215420Y-12190841D01*
X6215420Y-12190841D02*
X6215420Y-12152746D01*
X6215420Y-12152746D02*
X6224944Y-12105127D01*
X6224944Y-12105127D02*
X6234468Y-12076555D01*
X6234468Y-12076555D02*
X6243991Y-12057508D01*
X6243991Y-12057508D02*
X6263039Y-12028936D01*
X6263039Y-12028936D02*
X6272563Y-12019412D01*
X6453515Y-12247984D02*
X6339229Y-12247984D01*
X6396372Y-12247984D02*
X6396372Y-12047984D01*
X6396372Y-12047984D02*
X6377325Y-12076555D01*
X6377325Y-12076555D02*
X6358277Y-12095603D01*
X6358277Y-12095603D02*
X6339229Y-12105127D01*
X6624944Y-12114650D02*
X6624944Y-12247984D01*
X6577325Y-12038460D02*
X6529706Y-12181317D01*
X6529706Y-12181317D02*
X6653515Y-12181317D01*
X6882087Y-12247984D02*
X6882087Y-12047984D01*
X6967801Y-12247984D02*
X6967801Y-12143222D01*
X6967801Y-12143222D02*
X6958277Y-12124174D01*
X6958277Y-12124174D02*
X6939230Y-12114650D01*
X6939230Y-12114650D02*
X6910658Y-12114650D01*
X6910658Y-12114650D02*
X6891610Y-12124174D01*
X6891610Y-12124174D02*
X6882087Y-12133698D01*
X7091610Y-12247984D02*
X7072563Y-12238460D01*
X7072563Y-12238460D02*
X7063039Y-12228936D01*
X7063039Y-12228936D02*
X7053515Y-12209888D01*
X7053515Y-12209888D02*
X7053515Y-12152746D01*
X7053515Y-12152746D02*
X7063039Y-12133698D01*
X7063039Y-12133698D02*
X7072563Y-12124174D01*
X7072563Y-12124174D02*
X7091610Y-12114650D01*
X7091610Y-12114650D02*
X7120182Y-12114650D01*
X7120182Y-12114650D02*
X7139230Y-12124174D01*
X7139230Y-12124174D02*
X7148753Y-12133698D01*
X7148753Y-12133698D02*
X7158277Y-12152746D01*
X7158277Y-12152746D02*
X7158277Y-12209888D01*
X7158277Y-12209888D02*
X7148753Y-12228936D01*
X7148753Y-12228936D02*
X7139230Y-12238460D01*
X7139230Y-12238460D02*
X7120182Y-12247984D01*
X7120182Y-12247984D02*
X7091610Y-12247984D01*
X7272563Y-12247984D02*
X7253515Y-12238460D01*
X7253515Y-12238460D02*
X7243991Y-12219412D01*
X7243991Y-12219412D02*
X7243991Y-12047984D01*
X7424944Y-12238460D02*
X7405896Y-12247984D01*
X7405896Y-12247984D02*
X7367801Y-12247984D01*
X7367801Y-12247984D02*
X7348753Y-12238460D01*
X7348753Y-12238460D02*
X7339230Y-12219412D01*
X7339230Y-12219412D02*
X7339230Y-12143222D01*
X7339230Y-12143222D02*
X7348753Y-12124174D01*
X7348753Y-12124174D02*
X7367801Y-12114650D01*
X7367801Y-12114650D02*
X7405896Y-12114650D01*
X7405896Y-12114650D02*
X7424944Y-12124174D01*
X7424944Y-12124174D02*
X7434468Y-12143222D01*
X7434468Y-12143222D02*
X7434468Y-12162269D01*
X7434468Y-12162269D02*
X7339230Y-12181317D01*
X7510658Y-12238460D02*
X7529706Y-12247984D01*
X7529706Y-12247984D02*
X7567801Y-12247984D01*
X7567801Y-12247984D02*
X7586849Y-12238460D01*
X7586849Y-12238460D02*
X7596372Y-12219412D01*
X7596372Y-12219412D02*
X7596372Y-12209888D01*
X7596372Y-12209888D02*
X7586849Y-12190841D01*
X7586849Y-12190841D02*
X7567801Y-12181317D01*
X7567801Y-12181317D02*
X7539230Y-12181317D01*
X7539230Y-12181317D02*
X7520182Y-12171793D01*
X7520182Y-12171793D02*
X7510658Y-12152746D01*
X7510658Y-12152746D02*
X7510658Y-12143222D01*
X7510658Y-12143222D02*
X7520182Y-12124174D01*
X7520182Y-12124174D02*
X7539230Y-12114650D01*
X7539230Y-12114650D02*
X7567801Y-12114650D01*
X7567801Y-12114650D02*
X7586849Y-12124174D01*
X7663039Y-12324174D02*
X7672563Y-12314650D01*
X7672563Y-12314650D02*
X7691611Y-12286079D01*
X7691611Y-12286079D02*
X7701134Y-12267031D01*
X7701134Y-12267031D02*
X7710658Y-12238460D01*
X7710658Y-12238460D02*
X7720182Y-12190841D01*
X7720182Y-12190841D02*
X7720182Y-12152746D01*
X7720182Y-12152746D02*
X7710658Y-12105127D01*
X7710658Y-12105127D02*
X7701134Y-12076555D01*
X7701134Y-12076555D02*
X7691611Y-12057508D01*
X7691611Y-12057508D02*
X7672563Y-12028936D01*
X7672563Y-12028936D02*
X7663039Y-12019412D01*
D12*
X2657500Y-12380500D02*
X2657500Y-12460500D01*
X2617500Y-12420500D02*
X2697500Y-12420500D01*
D11*
X2996372Y-12311984D02*
X3015420Y-12311984D01*
X3015420Y-12311984D02*
X3034467Y-12321508D01*
X3034467Y-12321508D02*
X3043991Y-12331031D01*
X3043991Y-12331031D02*
X3053515Y-12350079D01*
X3053515Y-12350079D02*
X3063039Y-12388174D01*
X3063039Y-12388174D02*
X3063039Y-12435793D01*
X3063039Y-12435793D02*
X3053515Y-12473888D01*
X3053515Y-12473888D02*
X3043991Y-12492936D01*
X3043991Y-12492936D02*
X3034467Y-12502460D01*
X3034467Y-12502460D02*
X3015420Y-12511984D01*
X3015420Y-12511984D02*
X2996372Y-12511984D01*
X2996372Y-12511984D02*
X2977324Y-12502460D01*
X2977324Y-12502460D02*
X2967801Y-12492936D01*
X2967801Y-12492936D02*
X2958277Y-12473888D01*
X2958277Y-12473888D02*
X2948753Y-12435793D01*
X2948753Y-12435793D02*
X2948753Y-12388174D01*
X2948753Y-12388174D02*
X2958277Y-12350079D01*
X2958277Y-12350079D02*
X2967801Y-12331031D01*
X2967801Y-12331031D02*
X2977324Y-12321508D01*
X2977324Y-12321508D02*
X2996372Y-12311984D01*
X3148753Y-12492936D02*
X3158277Y-12502460D01*
X3158277Y-12502460D02*
X3148753Y-12511984D01*
X3148753Y-12511984D02*
X3139229Y-12502460D01*
X3139229Y-12502460D02*
X3148753Y-12492936D01*
X3148753Y-12492936D02*
X3148753Y-12511984D01*
X3272562Y-12397698D02*
X3253515Y-12388174D01*
X3253515Y-12388174D02*
X3243991Y-12378650D01*
X3243991Y-12378650D02*
X3234467Y-12359603D01*
X3234467Y-12359603D02*
X3234467Y-12350079D01*
X3234467Y-12350079D02*
X3243991Y-12331031D01*
X3243991Y-12331031D02*
X3253515Y-12321508D01*
X3253515Y-12321508D02*
X3272562Y-12311984D01*
X3272562Y-12311984D02*
X3310658Y-12311984D01*
X3310658Y-12311984D02*
X3329705Y-12321508D01*
X3329705Y-12321508D02*
X3339229Y-12331031D01*
X3339229Y-12331031D02*
X3348753Y-12350079D01*
X3348753Y-12350079D02*
X3348753Y-12359603D01*
X3348753Y-12359603D02*
X3339229Y-12378650D01*
X3339229Y-12378650D02*
X3329705Y-12388174D01*
X3329705Y-12388174D02*
X3310658Y-12397698D01*
X3310658Y-12397698D02*
X3272562Y-12397698D01*
X3272562Y-12397698D02*
X3253515Y-12407222D01*
X3253515Y-12407222D02*
X3243991Y-12416746D01*
X3243991Y-12416746D02*
X3234467Y-12435793D01*
X3234467Y-12435793D02*
X3234467Y-12473888D01*
X3234467Y-12473888D02*
X3243991Y-12492936D01*
X3243991Y-12492936D02*
X3253515Y-12502460D01*
X3253515Y-12502460D02*
X3272562Y-12511984D01*
X3272562Y-12511984D02*
X3310658Y-12511984D01*
X3310658Y-12511984D02*
X3329705Y-12502460D01*
X3329705Y-12502460D02*
X3339229Y-12492936D01*
X3339229Y-12492936D02*
X3348753Y-12473888D01*
X3348753Y-12473888D02*
X3348753Y-12435793D01*
X3348753Y-12435793D02*
X3339229Y-12416746D01*
X3339229Y-12416746D02*
X3329705Y-12407222D01*
X3329705Y-12407222D02*
X3310658Y-12397698D01*
X3472562Y-12311984D02*
X3491610Y-12311984D01*
X3491610Y-12311984D02*
X3510658Y-12321508D01*
X3510658Y-12321508D02*
X3520182Y-12331031D01*
X3520182Y-12331031D02*
X3529705Y-12350079D01*
X3529705Y-12350079D02*
X3539229Y-12388174D01*
X3539229Y-12388174D02*
X3539229Y-12435793D01*
X3539229Y-12435793D02*
X3529705Y-12473888D01*
X3529705Y-12473888D02*
X3520182Y-12492936D01*
X3520182Y-12492936D02*
X3510658Y-12502460D01*
X3510658Y-12502460D02*
X3491610Y-12511984D01*
X3491610Y-12511984D02*
X3472562Y-12511984D01*
X3472562Y-12511984D02*
X3453515Y-12502460D01*
X3453515Y-12502460D02*
X3443991Y-12492936D01*
X3443991Y-12492936D02*
X3434467Y-12473888D01*
X3434467Y-12473888D02*
X3424943Y-12435793D01*
X3424943Y-12435793D02*
X3424943Y-12388174D01*
X3424943Y-12388174D02*
X3434467Y-12350079D01*
X3434467Y-12350079D02*
X3443991Y-12331031D01*
X3443991Y-12331031D02*
X3453515Y-12321508D01*
X3453515Y-12321508D02*
X3472562Y-12311984D01*
X3663039Y-12311984D02*
X3682086Y-12311984D01*
X3682086Y-12311984D02*
X3701134Y-12321508D01*
X3701134Y-12321508D02*
X3710658Y-12331031D01*
X3710658Y-12331031D02*
X3720182Y-12350079D01*
X3720182Y-12350079D02*
X3729705Y-12388174D01*
X3729705Y-12388174D02*
X3729705Y-12435793D01*
X3729705Y-12435793D02*
X3720182Y-12473888D01*
X3720182Y-12473888D02*
X3710658Y-12492936D01*
X3710658Y-12492936D02*
X3701134Y-12502460D01*
X3701134Y-12502460D02*
X3682086Y-12511984D01*
X3682086Y-12511984D02*
X3663039Y-12511984D01*
X3663039Y-12511984D02*
X3643991Y-12502460D01*
X3643991Y-12502460D02*
X3634467Y-12492936D01*
X3634467Y-12492936D02*
X3624943Y-12473888D01*
X3624943Y-12473888D02*
X3615420Y-12435793D01*
X3615420Y-12435793D02*
X3615420Y-12388174D01*
X3615420Y-12388174D02*
X3624943Y-12350079D01*
X3624943Y-12350079D02*
X3634467Y-12331031D01*
X3634467Y-12331031D02*
X3643991Y-12321508D01*
X3643991Y-12321508D02*
X3663039Y-12311984D01*
X3815420Y-12511984D02*
X3815420Y-12378650D01*
X3815420Y-12397698D02*
X3824943Y-12388174D01*
X3824943Y-12388174D02*
X3843991Y-12378650D01*
X3843991Y-12378650D02*
X3872563Y-12378650D01*
X3872563Y-12378650D02*
X3891610Y-12388174D01*
X3891610Y-12388174D02*
X3901134Y-12407222D01*
X3901134Y-12407222D02*
X3901134Y-12511984D01*
X3901134Y-12407222D02*
X3910658Y-12388174D01*
X3910658Y-12388174D02*
X3929705Y-12378650D01*
X3929705Y-12378650D02*
X3958277Y-12378650D01*
X3958277Y-12378650D02*
X3977324Y-12388174D01*
X3977324Y-12388174D02*
X3986848Y-12407222D01*
X3986848Y-12407222D02*
X3986848Y-12511984D01*
X4082086Y-12511984D02*
X4082086Y-12378650D01*
X4082086Y-12397698D02*
X4091610Y-12388174D01*
X4091610Y-12388174D02*
X4110658Y-12378650D01*
X4110658Y-12378650D02*
X4139229Y-12378650D01*
X4139229Y-12378650D02*
X4158277Y-12388174D01*
X4158277Y-12388174D02*
X4167801Y-12407222D01*
X4167801Y-12407222D02*
X4167801Y-12511984D01*
X4167801Y-12407222D02*
X4177324Y-12388174D01*
X4177324Y-12388174D02*
X4196372Y-12378650D01*
X4196372Y-12378650D02*
X4224944Y-12378650D01*
X4224944Y-12378650D02*
X4243991Y-12388174D01*
X4243991Y-12388174D02*
X4253515Y-12407222D01*
X4253515Y-12407222D02*
X4253515Y-12511984D01*
X4643991Y-12302460D02*
X4472563Y-12559603D01*
X4901134Y-12311984D02*
X4920182Y-12311984D01*
X4920182Y-12311984D02*
X4939229Y-12321508D01*
X4939229Y-12321508D02*
X4948753Y-12331031D01*
X4948753Y-12331031D02*
X4958277Y-12350079D01*
X4958277Y-12350079D02*
X4967801Y-12388174D01*
X4967801Y-12388174D02*
X4967801Y-12435793D01*
X4967801Y-12435793D02*
X4958277Y-12473888D01*
X4958277Y-12473888D02*
X4948753Y-12492936D01*
X4948753Y-12492936D02*
X4939229Y-12502460D01*
X4939229Y-12502460D02*
X4920182Y-12511984D01*
X4920182Y-12511984D02*
X4901134Y-12511984D01*
X4901134Y-12511984D02*
X4882087Y-12502460D01*
X4882087Y-12502460D02*
X4872563Y-12492936D01*
X4872563Y-12492936D02*
X4863039Y-12473888D01*
X4863039Y-12473888D02*
X4853515Y-12435793D01*
X4853515Y-12435793D02*
X4853515Y-12388174D01*
X4853515Y-12388174D02*
X4863039Y-12350079D01*
X4863039Y-12350079D02*
X4872563Y-12331031D01*
X4872563Y-12331031D02*
X4882087Y-12321508D01*
X4882087Y-12321508D02*
X4901134Y-12311984D01*
X5053515Y-12492936D02*
X5063039Y-12502460D01*
X5063039Y-12502460D02*
X5053515Y-12511984D01*
X5053515Y-12511984D02*
X5043991Y-12502460D01*
X5043991Y-12502460D02*
X5053515Y-12492936D01*
X5053515Y-12492936D02*
X5053515Y-12511984D01*
X5186848Y-12311984D02*
X5205896Y-12311984D01*
X5205896Y-12311984D02*
X5224944Y-12321508D01*
X5224944Y-12321508D02*
X5234468Y-12331031D01*
X5234468Y-12331031D02*
X5243991Y-12350079D01*
X5243991Y-12350079D02*
X5253515Y-12388174D01*
X5253515Y-12388174D02*
X5253515Y-12435793D01*
X5253515Y-12435793D02*
X5243991Y-12473888D01*
X5243991Y-12473888D02*
X5234468Y-12492936D01*
X5234468Y-12492936D02*
X5224944Y-12502460D01*
X5224944Y-12502460D02*
X5205896Y-12511984D01*
X5205896Y-12511984D02*
X5186848Y-12511984D01*
X5186848Y-12511984D02*
X5167801Y-12502460D01*
X5167801Y-12502460D02*
X5158277Y-12492936D01*
X5158277Y-12492936D02*
X5148753Y-12473888D01*
X5148753Y-12473888D02*
X5139229Y-12435793D01*
X5139229Y-12435793D02*
X5139229Y-12388174D01*
X5139229Y-12388174D02*
X5148753Y-12350079D01*
X5148753Y-12350079D02*
X5158277Y-12331031D01*
X5158277Y-12331031D02*
X5167801Y-12321508D01*
X5167801Y-12321508D02*
X5186848Y-12311984D01*
X5320182Y-12311984D02*
X5443991Y-12311984D01*
X5443991Y-12311984D02*
X5377325Y-12388174D01*
X5377325Y-12388174D02*
X5405896Y-12388174D01*
X5405896Y-12388174D02*
X5424944Y-12397698D01*
X5424944Y-12397698D02*
X5434468Y-12407222D01*
X5434468Y-12407222D02*
X5443991Y-12426269D01*
X5443991Y-12426269D02*
X5443991Y-12473888D01*
X5443991Y-12473888D02*
X5434468Y-12492936D01*
X5434468Y-12492936D02*
X5424944Y-12502460D01*
X5424944Y-12502460D02*
X5405896Y-12511984D01*
X5405896Y-12511984D02*
X5348753Y-12511984D01*
X5348753Y-12511984D02*
X5329706Y-12502460D01*
X5329706Y-12502460D02*
X5320182Y-12492936D01*
X5634467Y-12511984D02*
X5520182Y-12511984D01*
X5577325Y-12511984D02*
X5577325Y-12311984D01*
X5577325Y-12311984D02*
X5558277Y-12340555D01*
X5558277Y-12340555D02*
X5539229Y-12359603D01*
X5539229Y-12359603D02*
X5520182Y-12369127D01*
X5815420Y-12311984D02*
X5720182Y-12311984D01*
X5720182Y-12311984D02*
X5710658Y-12407222D01*
X5710658Y-12407222D02*
X5720182Y-12397698D01*
X5720182Y-12397698D02*
X5739229Y-12388174D01*
X5739229Y-12388174D02*
X5786848Y-12388174D01*
X5786848Y-12388174D02*
X5805896Y-12397698D01*
X5805896Y-12397698D02*
X5815420Y-12407222D01*
X5815420Y-12407222D02*
X5824944Y-12426269D01*
X5824944Y-12426269D02*
X5824944Y-12473888D01*
X5824944Y-12473888D02*
X5815420Y-12492936D01*
X5815420Y-12492936D02*
X5805896Y-12502460D01*
X5805896Y-12502460D02*
X5786848Y-12511984D01*
X5786848Y-12511984D02*
X5739229Y-12511984D01*
X5739229Y-12511984D02*
X5720182Y-12502460D01*
X5720182Y-12502460D02*
X5710658Y-12492936D01*
X5901134Y-12311984D02*
X5901134Y-12350079D01*
X5977325Y-12311984D02*
X5977325Y-12350079D01*
X6272563Y-12588174D02*
X6263039Y-12578650D01*
X6263039Y-12578650D02*
X6243991Y-12550079D01*
X6243991Y-12550079D02*
X6234468Y-12531031D01*
X6234468Y-12531031D02*
X6224944Y-12502460D01*
X6224944Y-12502460D02*
X6215420Y-12454841D01*
X6215420Y-12454841D02*
X6215420Y-12416746D01*
X6215420Y-12416746D02*
X6224944Y-12369127D01*
X6224944Y-12369127D02*
X6234468Y-12340555D01*
X6234468Y-12340555D02*
X6243991Y-12321508D01*
X6243991Y-12321508D02*
X6263039Y-12292936D01*
X6263039Y-12292936D02*
X6272563Y-12283412D01*
X6434468Y-12378650D02*
X6434468Y-12511984D01*
X6386848Y-12302460D02*
X6339229Y-12445317D01*
X6339229Y-12445317D02*
X6463039Y-12445317D01*
X6567801Y-12397698D02*
X6548753Y-12388174D01*
X6548753Y-12388174D02*
X6539229Y-12378650D01*
X6539229Y-12378650D02*
X6529706Y-12359603D01*
X6529706Y-12359603D02*
X6529706Y-12350079D01*
X6529706Y-12350079D02*
X6539229Y-12331031D01*
X6539229Y-12331031D02*
X6548753Y-12321508D01*
X6548753Y-12321508D02*
X6567801Y-12311984D01*
X6567801Y-12311984D02*
X6605896Y-12311984D01*
X6605896Y-12311984D02*
X6624944Y-12321508D01*
X6624944Y-12321508D02*
X6634468Y-12331031D01*
X6634468Y-12331031D02*
X6643991Y-12350079D01*
X6643991Y-12350079D02*
X6643991Y-12359603D01*
X6643991Y-12359603D02*
X6634468Y-12378650D01*
X6634468Y-12378650D02*
X6624944Y-12388174D01*
X6624944Y-12388174D02*
X6605896Y-12397698D01*
X6605896Y-12397698D02*
X6567801Y-12397698D01*
X6567801Y-12397698D02*
X6548753Y-12407222D01*
X6548753Y-12407222D02*
X6539229Y-12416746D01*
X6539229Y-12416746D02*
X6529706Y-12435793D01*
X6529706Y-12435793D02*
X6529706Y-12473888D01*
X6529706Y-12473888D02*
X6539229Y-12492936D01*
X6539229Y-12492936D02*
X6548753Y-12502460D01*
X6548753Y-12502460D02*
X6567801Y-12511984D01*
X6567801Y-12511984D02*
X6605896Y-12511984D01*
X6605896Y-12511984D02*
X6624944Y-12502460D01*
X6624944Y-12502460D02*
X6634468Y-12492936D01*
X6634468Y-12492936D02*
X6643991Y-12473888D01*
X6643991Y-12473888D02*
X6643991Y-12435793D01*
X6643991Y-12435793D02*
X6634468Y-12416746D01*
X6634468Y-12416746D02*
X6624944Y-12407222D01*
X6624944Y-12407222D02*
X6605896Y-12397698D01*
X6882087Y-12511984D02*
X6882087Y-12311984D01*
X6967801Y-12511984D02*
X6967801Y-12407222D01*
X6967801Y-12407222D02*
X6958277Y-12388174D01*
X6958277Y-12388174D02*
X6939230Y-12378650D01*
X6939230Y-12378650D02*
X6910658Y-12378650D01*
X6910658Y-12378650D02*
X6891610Y-12388174D01*
X6891610Y-12388174D02*
X6882087Y-12397698D01*
X7091610Y-12511984D02*
X7072563Y-12502460D01*
X7072563Y-12502460D02*
X7063039Y-12492936D01*
X7063039Y-12492936D02*
X7053515Y-12473888D01*
X7053515Y-12473888D02*
X7053515Y-12416746D01*
X7053515Y-12416746D02*
X7063039Y-12397698D01*
X7063039Y-12397698D02*
X7072563Y-12388174D01*
X7072563Y-12388174D02*
X7091610Y-12378650D01*
X7091610Y-12378650D02*
X7120182Y-12378650D01*
X7120182Y-12378650D02*
X7139230Y-12388174D01*
X7139230Y-12388174D02*
X7148753Y-12397698D01*
X7148753Y-12397698D02*
X7158277Y-12416746D01*
X7158277Y-12416746D02*
X7158277Y-12473888D01*
X7158277Y-12473888D02*
X7148753Y-12492936D01*
X7148753Y-12492936D02*
X7139230Y-12502460D01*
X7139230Y-12502460D02*
X7120182Y-12511984D01*
X7120182Y-12511984D02*
X7091610Y-12511984D01*
X7272563Y-12511984D02*
X7253515Y-12502460D01*
X7253515Y-12502460D02*
X7243991Y-12483412D01*
X7243991Y-12483412D02*
X7243991Y-12311984D01*
X7424944Y-12502460D02*
X7405896Y-12511984D01*
X7405896Y-12511984D02*
X7367801Y-12511984D01*
X7367801Y-12511984D02*
X7348753Y-12502460D01*
X7348753Y-12502460D02*
X7339230Y-12483412D01*
X7339230Y-12483412D02*
X7339230Y-12407222D01*
X7339230Y-12407222D02*
X7348753Y-12388174D01*
X7348753Y-12388174D02*
X7367801Y-12378650D01*
X7367801Y-12378650D02*
X7405896Y-12378650D01*
X7405896Y-12378650D02*
X7424944Y-12388174D01*
X7424944Y-12388174D02*
X7434468Y-12407222D01*
X7434468Y-12407222D02*
X7434468Y-12426269D01*
X7434468Y-12426269D02*
X7339230Y-12445317D01*
X7510658Y-12502460D02*
X7529706Y-12511984D01*
X7529706Y-12511984D02*
X7567801Y-12511984D01*
X7567801Y-12511984D02*
X7586849Y-12502460D01*
X7586849Y-12502460D02*
X7596372Y-12483412D01*
X7596372Y-12483412D02*
X7596372Y-12473888D01*
X7596372Y-12473888D02*
X7586849Y-12454841D01*
X7586849Y-12454841D02*
X7567801Y-12445317D01*
X7567801Y-12445317D02*
X7539230Y-12445317D01*
X7539230Y-12445317D02*
X7520182Y-12435793D01*
X7520182Y-12435793D02*
X7510658Y-12416746D01*
X7510658Y-12416746D02*
X7510658Y-12407222D01*
X7510658Y-12407222D02*
X7520182Y-12388174D01*
X7520182Y-12388174D02*
X7539230Y-12378650D01*
X7539230Y-12378650D02*
X7567801Y-12378650D01*
X7567801Y-12378650D02*
X7586849Y-12388174D01*
X7663039Y-12588174D02*
X7672563Y-12578650D01*
X7672563Y-12578650D02*
X7691611Y-12550079D01*
X7691611Y-12550079D02*
X7701134Y-12531031D01*
X7701134Y-12531031D02*
X7710658Y-12502460D01*
X7710658Y-12502460D02*
X7720182Y-12454841D01*
X7720182Y-12454841D02*
X7720182Y-12416746D01*
X7720182Y-12416746D02*
X7710658Y-12369127D01*
X7710658Y-12369127D02*
X7701134Y-12340555D01*
X7701134Y-12340555D02*
X7691611Y-12321508D01*
X7691611Y-12321508D02*
X7672563Y-12292936D01*
X7672563Y-12292936D02*
X7663039Y-12283412D01*
D12*
X2684320Y-12716320D02*
X2684320Y-12652680D01*
X2620680Y-12652680D01*
X2620680Y-12716320D01*
X2684320Y-12716320D01*
D11*
X2996372Y-12575984D02*
X3015420Y-12575984D01*
X3015420Y-12575984D02*
X3034467Y-12585508D01*
X3034467Y-12585508D02*
X3043991Y-12595031D01*
X3043991Y-12595031D02*
X3053515Y-12614079D01*
X3053515Y-12614079D02*
X3063039Y-12652174D01*
X3063039Y-12652174D02*
X3063039Y-12699793D01*
X3063039Y-12699793D02*
X3053515Y-12737888D01*
X3053515Y-12737888D02*
X3043991Y-12756936D01*
X3043991Y-12756936D02*
X3034467Y-12766460D01*
X3034467Y-12766460D02*
X3015420Y-12775984D01*
X3015420Y-12775984D02*
X2996372Y-12775984D01*
X2996372Y-12775984D02*
X2977324Y-12766460D01*
X2977324Y-12766460D02*
X2967801Y-12756936D01*
X2967801Y-12756936D02*
X2958277Y-12737888D01*
X2958277Y-12737888D02*
X2948753Y-12699793D01*
X2948753Y-12699793D02*
X2948753Y-12652174D01*
X2948753Y-12652174D02*
X2958277Y-12614079D01*
X2958277Y-12614079D02*
X2967801Y-12595031D01*
X2967801Y-12595031D02*
X2977324Y-12585508D01*
X2977324Y-12585508D02*
X2996372Y-12575984D01*
X3148753Y-12756936D02*
X3158277Y-12766460D01*
X3158277Y-12766460D02*
X3148753Y-12775984D01*
X3148753Y-12775984D02*
X3139229Y-12766460D01*
X3139229Y-12766460D02*
X3148753Y-12756936D01*
X3148753Y-12756936D02*
X3148753Y-12775984D01*
X3253515Y-12775984D02*
X3291610Y-12775984D01*
X3291610Y-12775984D02*
X3310658Y-12766460D01*
X3310658Y-12766460D02*
X3320182Y-12756936D01*
X3320182Y-12756936D02*
X3339229Y-12728365D01*
X3339229Y-12728365D02*
X3348753Y-12690269D01*
X3348753Y-12690269D02*
X3348753Y-12614079D01*
X3348753Y-12614079D02*
X3339229Y-12595031D01*
X3339229Y-12595031D02*
X3329705Y-12585508D01*
X3329705Y-12585508D02*
X3310658Y-12575984D01*
X3310658Y-12575984D02*
X3272562Y-12575984D01*
X3272562Y-12575984D02*
X3253515Y-12585508D01*
X3253515Y-12585508D02*
X3243991Y-12595031D01*
X3243991Y-12595031D02*
X3234467Y-12614079D01*
X3234467Y-12614079D02*
X3234467Y-12661698D01*
X3234467Y-12661698D02*
X3243991Y-12680746D01*
X3243991Y-12680746D02*
X3253515Y-12690269D01*
X3253515Y-12690269D02*
X3272562Y-12699793D01*
X3272562Y-12699793D02*
X3310658Y-12699793D01*
X3310658Y-12699793D02*
X3329705Y-12690269D01*
X3329705Y-12690269D02*
X3339229Y-12680746D01*
X3339229Y-12680746D02*
X3348753Y-12661698D01*
X3472562Y-12575984D02*
X3491610Y-12575984D01*
X3491610Y-12575984D02*
X3510658Y-12585508D01*
X3510658Y-12585508D02*
X3520182Y-12595031D01*
X3520182Y-12595031D02*
X3529705Y-12614079D01*
X3529705Y-12614079D02*
X3539229Y-12652174D01*
X3539229Y-12652174D02*
X3539229Y-12699793D01*
X3539229Y-12699793D02*
X3529705Y-12737888D01*
X3529705Y-12737888D02*
X3520182Y-12756936D01*
X3520182Y-12756936D02*
X3510658Y-12766460D01*
X3510658Y-12766460D02*
X3491610Y-12775984D01*
X3491610Y-12775984D02*
X3472562Y-12775984D01*
X3472562Y-12775984D02*
X3453515Y-12766460D01*
X3453515Y-12766460D02*
X3443991Y-12756936D01*
X3443991Y-12756936D02*
X3434467Y-12737888D01*
X3434467Y-12737888D02*
X3424943Y-12699793D01*
X3424943Y-12699793D02*
X3424943Y-12652174D01*
X3424943Y-12652174D02*
X3434467Y-12614079D01*
X3434467Y-12614079D02*
X3443991Y-12595031D01*
X3443991Y-12595031D02*
X3453515Y-12585508D01*
X3453515Y-12585508D02*
X3472562Y-12575984D01*
X3663039Y-12575984D02*
X3682086Y-12575984D01*
X3682086Y-12575984D02*
X3701134Y-12585508D01*
X3701134Y-12585508D02*
X3710658Y-12595031D01*
X3710658Y-12595031D02*
X3720182Y-12614079D01*
X3720182Y-12614079D02*
X3729705Y-12652174D01*
X3729705Y-12652174D02*
X3729705Y-12699793D01*
X3729705Y-12699793D02*
X3720182Y-12737888D01*
X3720182Y-12737888D02*
X3710658Y-12756936D01*
X3710658Y-12756936D02*
X3701134Y-12766460D01*
X3701134Y-12766460D02*
X3682086Y-12775984D01*
X3682086Y-12775984D02*
X3663039Y-12775984D01*
X3663039Y-12775984D02*
X3643991Y-12766460D01*
X3643991Y-12766460D02*
X3634467Y-12756936D01*
X3634467Y-12756936D02*
X3624943Y-12737888D01*
X3624943Y-12737888D02*
X3615420Y-12699793D01*
X3615420Y-12699793D02*
X3615420Y-12652174D01*
X3615420Y-12652174D02*
X3624943Y-12614079D01*
X3624943Y-12614079D02*
X3634467Y-12595031D01*
X3634467Y-12595031D02*
X3643991Y-12585508D01*
X3643991Y-12585508D02*
X3663039Y-12575984D01*
X3815420Y-12775984D02*
X3815420Y-12642650D01*
X3815420Y-12661698D02*
X3824943Y-12652174D01*
X3824943Y-12652174D02*
X3843991Y-12642650D01*
X3843991Y-12642650D02*
X3872563Y-12642650D01*
X3872563Y-12642650D02*
X3891610Y-12652174D01*
X3891610Y-12652174D02*
X3901134Y-12671222D01*
X3901134Y-12671222D02*
X3901134Y-12775984D01*
X3901134Y-12671222D02*
X3910658Y-12652174D01*
X3910658Y-12652174D02*
X3929705Y-12642650D01*
X3929705Y-12642650D02*
X3958277Y-12642650D01*
X3958277Y-12642650D02*
X3977324Y-12652174D01*
X3977324Y-12652174D02*
X3986848Y-12671222D01*
X3986848Y-12671222D02*
X3986848Y-12775984D01*
X4082086Y-12775984D02*
X4082086Y-12642650D01*
X4082086Y-12661698D02*
X4091610Y-12652174D01*
X4091610Y-12652174D02*
X4110658Y-12642650D01*
X4110658Y-12642650D02*
X4139229Y-12642650D01*
X4139229Y-12642650D02*
X4158277Y-12652174D01*
X4158277Y-12652174D02*
X4167801Y-12671222D01*
X4167801Y-12671222D02*
X4167801Y-12775984D01*
X4167801Y-12671222D02*
X4177324Y-12652174D01*
X4177324Y-12652174D02*
X4196372Y-12642650D01*
X4196372Y-12642650D02*
X4224944Y-12642650D01*
X4224944Y-12642650D02*
X4243991Y-12652174D01*
X4243991Y-12652174D02*
X4253515Y-12671222D01*
X4253515Y-12671222D02*
X4253515Y-12775984D01*
X4643991Y-12566460D02*
X4472563Y-12823603D01*
X4901134Y-12575984D02*
X4920182Y-12575984D01*
X4920182Y-12575984D02*
X4939229Y-12585508D01*
X4939229Y-12585508D02*
X4948753Y-12595031D01*
X4948753Y-12595031D02*
X4958277Y-12614079D01*
X4958277Y-12614079D02*
X4967801Y-12652174D01*
X4967801Y-12652174D02*
X4967801Y-12699793D01*
X4967801Y-12699793D02*
X4958277Y-12737888D01*
X4958277Y-12737888D02*
X4948753Y-12756936D01*
X4948753Y-12756936D02*
X4939229Y-12766460D01*
X4939229Y-12766460D02*
X4920182Y-12775984D01*
X4920182Y-12775984D02*
X4901134Y-12775984D01*
X4901134Y-12775984D02*
X4882087Y-12766460D01*
X4882087Y-12766460D02*
X4872563Y-12756936D01*
X4872563Y-12756936D02*
X4863039Y-12737888D01*
X4863039Y-12737888D02*
X4853515Y-12699793D01*
X4853515Y-12699793D02*
X4853515Y-12652174D01*
X4853515Y-12652174D02*
X4863039Y-12614079D01*
X4863039Y-12614079D02*
X4872563Y-12595031D01*
X4872563Y-12595031D02*
X4882087Y-12585508D01*
X4882087Y-12585508D02*
X4901134Y-12575984D01*
X5053515Y-12756936D02*
X5063039Y-12766460D01*
X5063039Y-12766460D02*
X5053515Y-12775984D01*
X5053515Y-12775984D02*
X5043991Y-12766460D01*
X5043991Y-12766460D02*
X5053515Y-12756936D01*
X5053515Y-12756936D02*
X5053515Y-12775984D01*
X5186848Y-12575984D02*
X5205896Y-12575984D01*
X5205896Y-12575984D02*
X5224944Y-12585508D01*
X5224944Y-12585508D02*
X5234468Y-12595031D01*
X5234468Y-12595031D02*
X5243991Y-12614079D01*
X5243991Y-12614079D02*
X5253515Y-12652174D01*
X5253515Y-12652174D02*
X5253515Y-12699793D01*
X5253515Y-12699793D02*
X5243991Y-12737888D01*
X5243991Y-12737888D02*
X5234468Y-12756936D01*
X5234468Y-12756936D02*
X5224944Y-12766460D01*
X5224944Y-12766460D02*
X5205896Y-12775984D01*
X5205896Y-12775984D02*
X5186848Y-12775984D01*
X5186848Y-12775984D02*
X5167801Y-12766460D01*
X5167801Y-12766460D02*
X5158277Y-12756936D01*
X5158277Y-12756936D02*
X5148753Y-12737888D01*
X5148753Y-12737888D02*
X5139229Y-12699793D01*
X5139229Y-12699793D02*
X5139229Y-12652174D01*
X5139229Y-12652174D02*
X5148753Y-12614079D01*
X5148753Y-12614079D02*
X5158277Y-12595031D01*
X5158277Y-12595031D02*
X5167801Y-12585508D01*
X5167801Y-12585508D02*
X5186848Y-12575984D01*
X5320182Y-12575984D02*
X5443991Y-12575984D01*
X5443991Y-12575984D02*
X5377325Y-12652174D01*
X5377325Y-12652174D02*
X5405896Y-12652174D01*
X5405896Y-12652174D02*
X5424944Y-12661698D01*
X5424944Y-12661698D02*
X5434468Y-12671222D01*
X5434468Y-12671222D02*
X5443991Y-12690269D01*
X5443991Y-12690269D02*
X5443991Y-12737888D01*
X5443991Y-12737888D02*
X5434468Y-12756936D01*
X5434468Y-12756936D02*
X5424944Y-12766460D01*
X5424944Y-12766460D02*
X5405896Y-12775984D01*
X5405896Y-12775984D02*
X5348753Y-12775984D01*
X5348753Y-12775984D02*
X5329706Y-12766460D01*
X5329706Y-12766460D02*
X5320182Y-12756936D01*
X5624944Y-12575984D02*
X5529706Y-12575984D01*
X5529706Y-12575984D02*
X5520182Y-12671222D01*
X5520182Y-12671222D02*
X5529706Y-12661698D01*
X5529706Y-12661698D02*
X5548753Y-12652174D01*
X5548753Y-12652174D02*
X5596372Y-12652174D01*
X5596372Y-12652174D02*
X5615420Y-12661698D01*
X5615420Y-12661698D02*
X5624944Y-12671222D01*
X5624944Y-12671222D02*
X5634467Y-12690269D01*
X5634467Y-12690269D02*
X5634467Y-12737888D01*
X5634467Y-12737888D02*
X5624944Y-12756936D01*
X5624944Y-12756936D02*
X5615420Y-12766460D01*
X5615420Y-12766460D02*
X5596372Y-12775984D01*
X5596372Y-12775984D02*
X5548753Y-12775984D01*
X5548753Y-12775984D02*
X5529706Y-12766460D01*
X5529706Y-12766460D02*
X5520182Y-12756936D01*
X5805896Y-12642650D02*
X5805896Y-12775984D01*
X5758277Y-12566460D02*
X5710658Y-12709317D01*
X5710658Y-12709317D02*
X5834467Y-12709317D01*
X5901134Y-12575984D02*
X5901134Y-12614079D01*
X5977325Y-12575984D02*
X5977325Y-12614079D01*
X6272563Y-12852174D02*
X6263039Y-12842650D01*
X6263039Y-12842650D02*
X6243991Y-12814079D01*
X6243991Y-12814079D02*
X6234468Y-12795031D01*
X6234468Y-12795031D02*
X6224944Y-12766460D01*
X6224944Y-12766460D02*
X6215420Y-12718841D01*
X6215420Y-12718841D02*
X6215420Y-12680746D01*
X6215420Y-12680746D02*
X6224944Y-12633127D01*
X6224944Y-12633127D02*
X6234468Y-12604555D01*
X6234468Y-12604555D02*
X6243991Y-12585508D01*
X6243991Y-12585508D02*
X6263039Y-12556936D01*
X6263039Y-12556936D02*
X6272563Y-12547412D01*
X6329706Y-12575984D02*
X6453515Y-12575984D01*
X6453515Y-12575984D02*
X6386848Y-12652174D01*
X6386848Y-12652174D02*
X6415420Y-12652174D01*
X6415420Y-12652174D02*
X6434468Y-12661698D01*
X6434468Y-12661698D02*
X6443991Y-12671222D01*
X6443991Y-12671222D02*
X6453515Y-12690269D01*
X6453515Y-12690269D02*
X6453515Y-12737888D01*
X6453515Y-12737888D02*
X6443991Y-12756936D01*
X6443991Y-12756936D02*
X6434468Y-12766460D01*
X6434468Y-12766460D02*
X6415420Y-12775984D01*
X6415420Y-12775984D02*
X6358277Y-12775984D01*
X6358277Y-12775984D02*
X6339229Y-12766460D01*
X6339229Y-12766460D02*
X6329706Y-12756936D01*
X6691610Y-12775984D02*
X6691610Y-12575984D01*
X6777325Y-12775984D02*
X6777325Y-12671222D01*
X6777325Y-12671222D02*
X6767801Y-12652174D01*
X6767801Y-12652174D02*
X6748753Y-12642650D01*
X6748753Y-12642650D02*
X6720182Y-12642650D01*
X6720182Y-12642650D02*
X6701134Y-12652174D01*
X6701134Y-12652174D02*
X6691610Y-12661698D01*
X6901134Y-12775984D02*
X6882087Y-12766460D01*
X6882087Y-12766460D02*
X6872563Y-12756936D01*
X6872563Y-12756936D02*
X6863039Y-12737888D01*
X6863039Y-12737888D02*
X6863039Y-12680746D01*
X6863039Y-12680746D02*
X6872563Y-12661698D01*
X6872563Y-12661698D02*
X6882087Y-12652174D01*
X6882087Y-12652174D02*
X6901134Y-12642650D01*
X6901134Y-12642650D02*
X6929706Y-12642650D01*
X6929706Y-12642650D02*
X6948753Y-12652174D01*
X6948753Y-12652174D02*
X6958277Y-12661698D01*
X6958277Y-12661698D02*
X6967801Y-12680746D01*
X6967801Y-12680746D02*
X6967801Y-12737888D01*
X6967801Y-12737888D02*
X6958277Y-12756936D01*
X6958277Y-12756936D02*
X6948753Y-12766460D01*
X6948753Y-12766460D02*
X6929706Y-12775984D01*
X6929706Y-12775984D02*
X6901134Y-12775984D01*
X7082087Y-12775984D02*
X7063039Y-12766460D01*
X7063039Y-12766460D02*
X7053515Y-12747412D01*
X7053515Y-12747412D02*
X7053515Y-12575984D01*
X7234468Y-12766460D02*
X7215420Y-12775984D01*
X7215420Y-12775984D02*
X7177325Y-12775984D01*
X7177325Y-12775984D02*
X7158277Y-12766460D01*
X7158277Y-12766460D02*
X7148753Y-12747412D01*
X7148753Y-12747412D02*
X7148753Y-12671222D01*
X7148753Y-12671222D02*
X7158277Y-12652174D01*
X7158277Y-12652174D02*
X7177325Y-12642650D01*
X7177325Y-12642650D02*
X7215420Y-12642650D01*
X7215420Y-12642650D02*
X7234468Y-12652174D01*
X7234468Y-12652174D02*
X7243991Y-12671222D01*
X7243991Y-12671222D02*
X7243991Y-12690269D01*
X7243991Y-12690269D02*
X7148753Y-12709317D01*
X7320182Y-12766460D02*
X7339230Y-12775984D01*
X7339230Y-12775984D02*
X7377325Y-12775984D01*
X7377325Y-12775984D02*
X7396372Y-12766460D01*
X7396372Y-12766460D02*
X7405896Y-12747412D01*
X7405896Y-12747412D02*
X7405896Y-12737888D01*
X7405896Y-12737888D02*
X7396372Y-12718841D01*
X7396372Y-12718841D02*
X7377325Y-12709317D01*
X7377325Y-12709317D02*
X7348753Y-12709317D01*
X7348753Y-12709317D02*
X7329706Y-12699793D01*
X7329706Y-12699793D02*
X7320182Y-12680746D01*
X7320182Y-12680746D02*
X7320182Y-12671222D01*
X7320182Y-12671222D02*
X7329706Y-12652174D01*
X7329706Y-12652174D02*
X7348753Y-12642650D01*
X7348753Y-12642650D02*
X7377325Y-12642650D01*
X7377325Y-12642650D02*
X7396372Y-12652174D01*
X7472563Y-12852174D02*
X7482087Y-12842650D01*
X7482087Y-12842650D02*
X7501134Y-12814079D01*
X7501134Y-12814079D02*
X7510658Y-12795031D01*
X7510658Y-12795031D02*
X7520182Y-12766460D01*
X7520182Y-12766460D02*
X7529706Y-12718841D01*
X7529706Y-12718841D02*
X7529706Y-12680746D01*
X7529706Y-12680746D02*
X7520182Y-12633127D01*
X7520182Y-12633127D02*
X7510658Y-12604555D01*
X7510658Y-12604555D02*
X7501134Y-12585508D01*
X7501134Y-12585508D02*
X7482087Y-12556936D01*
X7482087Y-12556936D02*
X7472563Y-12547412D01*
D12*
X2647500Y-12998500D02*
X2697500Y-12948500D01*
X2647500Y-12898500D01*
X2597500Y-12948500D01*
X2647500Y-12998500D01*
D11*
X3063039Y-13039984D02*
X2948753Y-13039984D01*
X3005896Y-13039984D02*
X3005896Y-12839984D01*
X3005896Y-12839984D02*
X2986848Y-12868555D01*
X2986848Y-12868555D02*
X2967801Y-12887603D01*
X2967801Y-12887603D02*
X2948753Y-12897127D01*
X3148753Y-13020936D02*
X3158277Y-13030460D01*
X3158277Y-13030460D02*
X3148753Y-13039984D01*
X3148753Y-13039984D02*
X3139229Y-13030460D01*
X3139229Y-13030460D02*
X3148753Y-13020936D01*
X3148753Y-13020936D02*
X3148753Y-13039984D01*
X3282086Y-12839984D02*
X3301134Y-12839984D01*
X3301134Y-12839984D02*
X3320182Y-12849508D01*
X3320182Y-12849508D02*
X3329705Y-12859031D01*
X3329705Y-12859031D02*
X3339229Y-12878079D01*
X3339229Y-12878079D02*
X3348753Y-12916174D01*
X3348753Y-12916174D02*
X3348753Y-12963793D01*
X3348753Y-12963793D02*
X3339229Y-13001888D01*
X3339229Y-13001888D02*
X3329705Y-13020936D01*
X3329705Y-13020936D02*
X3320182Y-13030460D01*
X3320182Y-13030460D02*
X3301134Y-13039984D01*
X3301134Y-13039984D02*
X3282086Y-13039984D01*
X3282086Y-13039984D02*
X3263039Y-13030460D01*
X3263039Y-13030460D02*
X3253515Y-13020936D01*
X3253515Y-13020936D02*
X3243991Y-13001888D01*
X3243991Y-13001888D02*
X3234467Y-12963793D01*
X3234467Y-12963793D02*
X3234467Y-12916174D01*
X3234467Y-12916174D02*
X3243991Y-12878079D01*
X3243991Y-12878079D02*
X3253515Y-12859031D01*
X3253515Y-12859031D02*
X3263039Y-12849508D01*
X3263039Y-12849508D02*
X3282086Y-12839984D01*
X3472562Y-12839984D02*
X3491610Y-12839984D01*
X3491610Y-12839984D02*
X3510658Y-12849508D01*
X3510658Y-12849508D02*
X3520182Y-12859031D01*
X3520182Y-12859031D02*
X3529705Y-12878079D01*
X3529705Y-12878079D02*
X3539229Y-12916174D01*
X3539229Y-12916174D02*
X3539229Y-12963793D01*
X3539229Y-12963793D02*
X3529705Y-13001888D01*
X3529705Y-13001888D02*
X3520182Y-13020936D01*
X3520182Y-13020936D02*
X3510658Y-13030460D01*
X3510658Y-13030460D02*
X3491610Y-13039984D01*
X3491610Y-13039984D02*
X3472562Y-13039984D01*
X3472562Y-13039984D02*
X3453515Y-13030460D01*
X3453515Y-13030460D02*
X3443991Y-13020936D01*
X3443991Y-13020936D02*
X3434467Y-13001888D01*
X3434467Y-13001888D02*
X3424943Y-12963793D01*
X3424943Y-12963793D02*
X3424943Y-12916174D01*
X3424943Y-12916174D02*
X3434467Y-12878079D01*
X3434467Y-12878079D02*
X3443991Y-12859031D01*
X3443991Y-12859031D02*
X3453515Y-12849508D01*
X3453515Y-12849508D02*
X3472562Y-12839984D01*
X3663039Y-12839984D02*
X3682086Y-12839984D01*
X3682086Y-12839984D02*
X3701134Y-12849508D01*
X3701134Y-12849508D02*
X3710658Y-12859031D01*
X3710658Y-12859031D02*
X3720182Y-12878079D01*
X3720182Y-12878079D02*
X3729705Y-12916174D01*
X3729705Y-12916174D02*
X3729705Y-12963793D01*
X3729705Y-12963793D02*
X3720182Y-13001888D01*
X3720182Y-13001888D02*
X3710658Y-13020936D01*
X3710658Y-13020936D02*
X3701134Y-13030460D01*
X3701134Y-13030460D02*
X3682086Y-13039984D01*
X3682086Y-13039984D02*
X3663039Y-13039984D01*
X3663039Y-13039984D02*
X3643991Y-13030460D01*
X3643991Y-13030460D02*
X3634467Y-13020936D01*
X3634467Y-13020936D02*
X3624943Y-13001888D01*
X3624943Y-13001888D02*
X3615420Y-12963793D01*
X3615420Y-12963793D02*
X3615420Y-12916174D01*
X3615420Y-12916174D02*
X3624943Y-12878079D01*
X3624943Y-12878079D02*
X3634467Y-12859031D01*
X3634467Y-12859031D02*
X3643991Y-12849508D01*
X3643991Y-12849508D02*
X3663039Y-12839984D01*
X3815420Y-13039984D02*
X3815420Y-12906650D01*
X3815420Y-12925698D02*
X3824943Y-12916174D01*
X3824943Y-12916174D02*
X3843991Y-12906650D01*
X3843991Y-12906650D02*
X3872563Y-12906650D01*
X3872563Y-12906650D02*
X3891610Y-12916174D01*
X3891610Y-12916174D02*
X3901134Y-12935222D01*
X3901134Y-12935222D02*
X3901134Y-13039984D01*
X3901134Y-12935222D02*
X3910658Y-12916174D01*
X3910658Y-12916174D02*
X3929705Y-12906650D01*
X3929705Y-12906650D02*
X3958277Y-12906650D01*
X3958277Y-12906650D02*
X3977324Y-12916174D01*
X3977324Y-12916174D02*
X3986848Y-12935222D01*
X3986848Y-12935222D02*
X3986848Y-13039984D01*
X4082086Y-13039984D02*
X4082086Y-12906650D01*
X4082086Y-12925698D02*
X4091610Y-12916174D01*
X4091610Y-12916174D02*
X4110658Y-12906650D01*
X4110658Y-12906650D02*
X4139229Y-12906650D01*
X4139229Y-12906650D02*
X4158277Y-12916174D01*
X4158277Y-12916174D02*
X4167801Y-12935222D01*
X4167801Y-12935222D02*
X4167801Y-13039984D01*
X4167801Y-12935222D02*
X4177324Y-12916174D01*
X4177324Y-12916174D02*
X4196372Y-12906650D01*
X4196372Y-12906650D02*
X4224944Y-12906650D01*
X4224944Y-12906650D02*
X4243991Y-12916174D01*
X4243991Y-12916174D02*
X4253515Y-12935222D01*
X4253515Y-12935222D02*
X4253515Y-13039984D01*
X4643991Y-12830460D02*
X4472563Y-13087603D01*
X4901134Y-12839984D02*
X4920182Y-12839984D01*
X4920182Y-12839984D02*
X4939229Y-12849508D01*
X4939229Y-12849508D02*
X4948753Y-12859031D01*
X4948753Y-12859031D02*
X4958277Y-12878079D01*
X4958277Y-12878079D02*
X4967801Y-12916174D01*
X4967801Y-12916174D02*
X4967801Y-12963793D01*
X4967801Y-12963793D02*
X4958277Y-13001888D01*
X4958277Y-13001888D02*
X4948753Y-13020936D01*
X4948753Y-13020936D02*
X4939229Y-13030460D01*
X4939229Y-13030460D02*
X4920182Y-13039984D01*
X4920182Y-13039984D02*
X4901134Y-13039984D01*
X4901134Y-13039984D02*
X4882087Y-13030460D01*
X4882087Y-13030460D02*
X4872563Y-13020936D01*
X4872563Y-13020936D02*
X4863039Y-13001888D01*
X4863039Y-13001888D02*
X4853515Y-12963793D01*
X4853515Y-12963793D02*
X4853515Y-12916174D01*
X4853515Y-12916174D02*
X4863039Y-12878079D01*
X4863039Y-12878079D02*
X4872563Y-12859031D01*
X4872563Y-12859031D02*
X4882087Y-12849508D01*
X4882087Y-12849508D02*
X4901134Y-12839984D01*
X5053515Y-13020936D02*
X5063039Y-13030460D01*
X5063039Y-13030460D02*
X5053515Y-13039984D01*
X5053515Y-13039984D02*
X5043991Y-13030460D01*
X5043991Y-13030460D02*
X5053515Y-13020936D01*
X5053515Y-13020936D02*
X5053515Y-13039984D01*
X5186848Y-12839984D02*
X5205896Y-12839984D01*
X5205896Y-12839984D02*
X5224944Y-12849508D01*
X5224944Y-12849508D02*
X5234468Y-12859031D01*
X5234468Y-12859031D02*
X5243991Y-12878079D01*
X5243991Y-12878079D02*
X5253515Y-12916174D01*
X5253515Y-12916174D02*
X5253515Y-12963793D01*
X5253515Y-12963793D02*
X5243991Y-13001888D01*
X5243991Y-13001888D02*
X5234468Y-13020936D01*
X5234468Y-13020936D02*
X5224944Y-13030460D01*
X5224944Y-13030460D02*
X5205896Y-13039984D01*
X5205896Y-13039984D02*
X5186848Y-13039984D01*
X5186848Y-13039984D02*
X5167801Y-13030460D01*
X5167801Y-13030460D02*
X5158277Y-13020936D01*
X5158277Y-13020936D02*
X5148753Y-13001888D01*
X5148753Y-13001888D02*
X5139229Y-12963793D01*
X5139229Y-12963793D02*
X5139229Y-12916174D01*
X5139229Y-12916174D02*
X5148753Y-12878079D01*
X5148753Y-12878079D02*
X5158277Y-12859031D01*
X5158277Y-12859031D02*
X5167801Y-12849508D01*
X5167801Y-12849508D02*
X5186848Y-12839984D01*
X5320182Y-12839984D02*
X5443991Y-12839984D01*
X5443991Y-12839984D02*
X5377325Y-12916174D01*
X5377325Y-12916174D02*
X5405896Y-12916174D01*
X5405896Y-12916174D02*
X5424944Y-12925698D01*
X5424944Y-12925698D02*
X5434468Y-12935222D01*
X5434468Y-12935222D02*
X5443991Y-12954269D01*
X5443991Y-12954269D02*
X5443991Y-13001888D01*
X5443991Y-13001888D02*
X5434468Y-13020936D01*
X5434468Y-13020936D02*
X5424944Y-13030460D01*
X5424944Y-13030460D02*
X5405896Y-13039984D01*
X5405896Y-13039984D02*
X5348753Y-13039984D01*
X5348753Y-13039984D02*
X5329706Y-13030460D01*
X5329706Y-13030460D02*
X5320182Y-13020936D01*
X5539229Y-13039984D02*
X5577325Y-13039984D01*
X5577325Y-13039984D02*
X5596372Y-13030460D01*
X5596372Y-13030460D02*
X5605896Y-13020936D01*
X5605896Y-13020936D02*
X5624944Y-12992365D01*
X5624944Y-12992365D02*
X5634467Y-12954269D01*
X5634467Y-12954269D02*
X5634467Y-12878079D01*
X5634467Y-12878079D02*
X5624944Y-12859031D01*
X5624944Y-12859031D02*
X5615420Y-12849508D01*
X5615420Y-12849508D02*
X5596372Y-12839984D01*
X5596372Y-12839984D02*
X5558277Y-12839984D01*
X5558277Y-12839984D02*
X5539229Y-12849508D01*
X5539229Y-12849508D02*
X5529706Y-12859031D01*
X5529706Y-12859031D02*
X5520182Y-12878079D01*
X5520182Y-12878079D02*
X5520182Y-12925698D01*
X5520182Y-12925698D02*
X5529706Y-12944746D01*
X5529706Y-12944746D02*
X5539229Y-12954269D01*
X5539229Y-12954269D02*
X5558277Y-12963793D01*
X5558277Y-12963793D02*
X5596372Y-12963793D01*
X5596372Y-12963793D02*
X5615420Y-12954269D01*
X5615420Y-12954269D02*
X5624944Y-12944746D01*
X5624944Y-12944746D02*
X5634467Y-12925698D01*
X5805896Y-12906650D02*
X5805896Y-13039984D01*
X5758277Y-12830460D02*
X5710658Y-12973317D01*
X5710658Y-12973317D02*
X5834467Y-12973317D01*
X5901134Y-12839984D02*
X5901134Y-12878079D01*
X5977325Y-12839984D02*
X5977325Y-12878079D01*
X6272563Y-13116174D02*
X6263039Y-13106650D01*
X6263039Y-13106650D02*
X6243991Y-13078079D01*
X6243991Y-13078079D02*
X6234468Y-13059031D01*
X6234468Y-13059031D02*
X6224944Y-13030460D01*
X6224944Y-13030460D02*
X6215420Y-12982841D01*
X6215420Y-12982841D02*
X6215420Y-12944746D01*
X6215420Y-12944746D02*
X6224944Y-12897127D01*
X6224944Y-12897127D02*
X6234468Y-12868555D01*
X6234468Y-12868555D02*
X6243991Y-12849508D01*
X6243991Y-12849508D02*
X6263039Y-12820936D01*
X6263039Y-12820936D02*
X6272563Y-12811412D01*
X6443991Y-12839984D02*
X6348753Y-12839984D01*
X6348753Y-12839984D02*
X6339229Y-12935222D01*
X6339229Y-12935222D02*
X6348753Y-12925698D01*
X6348753Y-12925698D02*
X6367801Y-12916174D01*
X6367801Y-12916174D02*
X6415420Y-12916174D01*
X6415420Y-12916174D02*
X6434468Y-12925698D01*
X6434468Y-12925698D02*
X6443991Y-12935222D01*
X6443991Y-12935222D02*
X6453515Y-12954269D01*
X6453515Y-12954269D02*
X6453515Y-13001888D01*
X6453515Y-13001888D02*
X6443991Y-13020936D01*
X6443991Y-13020936D02*
X6434468Y-13030460D01*
X6434468Y-13030460D02*
X6415420Y-13039984D01*
X6415420Y-13039984D02*
X6367801Y-13039984D01*
X6367801Y-13039984D02*
X6348753Y-13030460D01*
X6348753Y-13030460D02*
X6339229Y-13020936D01*
X6577325Y-12839984D02*
X6596372Y-12839984D01*
X6596372Y-12839984D02*
X6615420Y-12849508D01*
X6615420Y-12849508D02*
X6624944Y-12859031D01*
X6624944Y-12859031D02*
X6634468Y-12878079D01*
X6634468Y-12878079D02*
X6643991Y-12916174D01*
X6643991Y-12916174D02*
X6643991Y-12963793D01*
X6643991Y-12963793D02*
X6634468Y-13001888D01*
X6634468Y-13001888D02*
X6624944Y-13020936D01*
X6624944Y-13020936D02*
X6615420Y-13030460D01*
X6615420Y-13030460D02*
X6596372Y-13039984D01*
X6596372Y-13039984D02*
X6577325Y-13039984D01*
X6577325Y-13039984D02*
X6558277Y-13030460D01*
X6558277Y-13030460D02*
X6548753Y-13020936D01*
X6548753Y-13020936D02*
X6539229Y-13001888D01*
X6539229Y-13001888D02*
X6529706Y-12963793D01*
X6529706Y-12963793D02*
X6529706Y-12916174D01*
X6529706Y-12916174D02*
X6539229Y-12878079D01*
X6539229Y-12878079D02*
X6548753Y-12859031D01*
X6548753Y-12859031D02*
X6558277Y-12849508D01*
X6558277Y-12849508D02*
X6577325Y-12839984D01*
X6882087Y-13039984D02*
X6882087Y-12839984D01*
X6967801Y-13039984D02*
X6967801Y-12935222D01*
X6967801Y-12935222D02*
X6958277Y-12916174D01*
X6958277Y-12916174D02*
X6939230Y-12906650D01*
X6939230Y-12906650D02*
X6910658Y-12906650D01*
X6910658Y-12906650D02*
X6891610Y-12916174D01*
X6891610Y-12916174D02*
X6882087Y-12925698D01*
X7091610Y-13039984D02*
X7072563Y-13030460D01*
X7072563Y-13030460D02*
X7063039Y-13020936D01*
X7063039Y-13020936D02*
X7053515Y-13001888D01*
X7053515Y-13001888D02*
X7053515Y-12944746D01*
X7053515Y-12944746D02*
X7063039Y-12925698D01*
X7063039Y-12925698D02*
X7072563Y-12916174D01*
X7072563Y-12916174D02*
X7091610Y-12906650D01*
X7091610Y-12906650D02*
X7120182Y-12906650D01*
X7120182Y-12906650D02*
X7139230Y-12916174D01*
X7139230Y-12916174D02*
X7148753Y-12925698D01*
X7148753Y-12925698D02*
X7158277Y-12944746D01*
X7158277Y-12944746D02*
X7158277Y-13001888D01*
X7158277Y-13001888D02*
X7148753Y-13020936D01*
X7148753Y-13020936D02*
X7139230Y-13030460D01*
X7139230Y-13030460D02*
X7120182Y-13039984D01*
X7120182Y-13039984D02*
X7091610Y-13039984D01*
X7272563Y-13039984D02*
X7253515Y-13030460D01*
X7253515Y-13030460D02*
X7243991Y-13011412D01*
X7243991Y-13011412D02*
X7243991Y-12839984D01*
X7424944Y-13030460D02*
X7405896Y-13039984D01*
X7405896Y-13039984D02*
X7367801Y-13039984D01*
X7367801Y-13039984D02*
X7348753Y-13030460D01*
X7348753Y-13030460D02*
X7339230Y-13011412D01*
X7339230Y-13011412D02*
X7339230Y-12935222D01*
X7339230Y-12935222D02*
X7348753Y-12916174D01*
X7348753Y-12916174D02*
X7367801Y-12906650D01*
X7367801Y-12906650D02*
X7405896Y-12906650D01*
X7405896Y-12906650D02*
X7424944Y-12916174D01*
X7424944Y-12916174D02*
X7434468Y-12935222D01*
X7434468Y-12935222D02*
X7434468Y-12954269D01*
X7434468Y-12954269D02*
X7339230Y-12973317D01*
X7510658Y-13030460D02*
X7529706Y-13039984D01*
X7529706Y-13039984D02*
X7567801Y-13039984D01*
X7567801Y-13039984D02*
X7586849Y-13030460D01*
X7586849Y-13030460D02*
X7596372Y-13011412D01*
X7596372Y-13011412D02*
X7596372Y-13001888D01*
X7596372Y-13001888D02*
X7586849Y-12982841D01*
X7586849Y-12982841D02*
X7567801Y-12973317D01*
X7567801Y-12973317D02*
X7539230Y-12973317D01*
X7539230Y-12973317D02*
X7520182Y-12963793D01*
X7520182Y-12963793D02*
X7510658Y-12944746D01*
X7510658Y-12944746D02*
X7510658Y-12935222D01*
X7510658Y-12935222D02*
X7520182Y-12916174D01*
X7520182Y-12916174D02*
X7539230Y-12906650D01*
X7539230Y-12906650D02*
X7567801Y-12906650D01*
X7567801Y-12906650D02*
X7586849Y-12916174D01*
X7663039Y-13116174D02*
X7672563Y-13106650D01*
X7672563Y-13106650D02*
X7691611Y-13078079D01*
X7691611Y-13078079D02*
X7701134Y-13059031D01*
X7701134Y-13059031D02*
X7710658Y-13030460D01*
X7710658Y-13030460D02*
X7720182Y-12982841D01*
X7720182Y-12982841D02*
X7720182Y-12944746D01*
X7720182Y-12944746D02*
X7710658Y-12897127D01*
X7710658Y-12897127D02*
X7701134Y-12868555D01*
X7701134Y-12868555D02*
X7691611Y-12849508D01*
X7691611Y-12849508D02*
X7672563Y-12820936D01*
X7672563Y-12820936D02*
X7663039Y-12811412D01*
D13*
X2593500Y-13160500D02*
X2697500Y-13264500D01*
X2697500Y-13160500D02*
X2593500Y-13264500D01*
X2697500Y-13212500D02*
G75*
G02*
X2593500Y-13212500I-52000J0D01*
G01*
X2593500Y-13212500D02*
G75*
G02*
X2697500Y-13212500I52000J0D01*
G01*
D11*
X3063039Y-13303984D02*
X2948753Y-13303984D01*
X3005896Y-13303984D02*
X3005896Y-13103984D01*
X3005896Y-13103984D02*
X2986848Y-13132555D01*
X2986848Y-13132555D02*
X2967801Y-13151603D01*
X2967801Y-13151603D02*
X2948753Y-13161127D01*
X3148753Y-13284936D02*
X3158277Y-13294460D01*
X3158277Y-13294460D02*
X3148753Y-13303984D01*
X3148753Y-13303984D02*
X3139229Y-13294460D01*
X3139229Y-13294460D02*
X3148753Y-13284936D01*
X3148753Y-13284936D02*
X3148753Y-13303984D01*
X3282086Y-13103984D02*
X3301134Y-13103984D01*
X3301134Y-13103984D02*
X3320182Y-13113508D01*
X3320182Y-13113508D02*
X3329705Y-13123031D01*
X3329705Y-13123031D02*
X3339229Y-13142079D01*
X3339229Y-13142079D02*
X3348753Y-13180174D01*
X3348753Y-13180174D02*
X3348753Y-13227793D01*
X3348753Y-13227793D02*
X3339229Y-13265888D01*
X3339229Y-13265888D02*
X3329705Y-13284936D01*
X3329705Y-13284936D02*
X3320182Y-13294460D01*
X3320182Y-13294460D02*
X3301134Y-13303984D01*
X3301134Y-13303984D02*
X3282086Y-13303984D01*
X3282086Y-13303984D02*
X3263039Y-13294460D01*
X3263039Y-13294460D02*
X3253515Y-13284936D01*
X3253515Y-13284936D02*
X3243991Y-13265888D01*
X3243991Y-13265888D02*
X3234467Y-13227793D01*
X3234467Y-13227793D02*
X3234467Y-13180174D01*
X3234467Y-13180174D02*
X3243991Y-13142079D01*
X3243991Y-13142079D02*
X3253515Y-13123031D01*
X3253515Y-13123031D02*
X3263039Y-13113508D01*
X3263039Y-13113508D02*
X3282086Y-13103984D01*
X3520182Y-13170650D02*
X3520182Y-13303984D01*
X3472562Y-13094460D02*
X3424943Y-13237317D01*
X3424943Y-13237317D02*
X3548753Y-13237317D01*
X3663039Y-13103984D02*
X3682086Y-13103984D01*
X3682086Y-13103984D02*
X3701134Y-13113508D01*
X3701134Y-13113508D02*
X3710658Y-13123031D01*
X3710658Y-13123031D02*
X3720182Y-13142079D01*
X3720182Y-13142079D02*
X3729705Y-13180174D01*
X3729705Y-13180174D02*
X3729705Y-13227793D01*
X3729705Y-13227793D02*
X3720182Y-13265888D01*
X3720182Y-13265888D02*
X3710658Y-13284936D01*
X3710658Y-13284936D02*
X3701134Y-13294460D01*
X3701134Y-13294460D02*
X3682086Y-13303984D01*
X3682086Y-13303984D02*
X3663039Y-13303984D01*
X3663039Y-13303984D02*
X3643991Y-13294460D01*
X3643991Y-13294460D02*
X3634467Y-13284936D01*
X3634467Y-13284936D02*
X3624943Y-13265888D01*
X3624943Y-13265888D02*
X3615420Y-13227793D01*
X3615420Y-13227793D02*
X3615420Y-13180174D01*
X3615420Y-13180174D02*
X3624943Y-13142079D01*
X3624943Y-13142079D02*
X3634467Y-13123031D01*
X3634467Y-13123031D02*
X3643991Y-13113508D01*
X3643991Y-13113508D02*
X3663039Y-13103984D01*
X3815420Y-13303984D02*
X3815420Y-13170650D01*
X3815420Y-13189698D02*
X3824943Y-13180174D01*
X3824943Y-13180174D02*
X3843991Y-13170650D01*
X3843991Y-13170650D02*
X3872563Y-13170650D01*
X3872563Y-13170650D02*
X3891610Y-13180174D01*
X3891610Y-13180174D02*
X3901134Y-13199222D01*
X3901134Y-13199222D02*
X3901134Y-13303984D01*
X3901134Y-13199222D02*
X3910658Y-13180174D01*
X3910658Y-13180174D02*
X3929705Y-13170650D01*
X3929705Y-13170650D02*
X3958277Y-13170650D01*
X3958277Y-13170650D02*
X3977324Y-13180174D01*
X3977324Y-13180174D02*
X3986848Y-13199222D01*
X3986848Y-13199222D02*
X3986848Y-13303984D01*
X4082086Y-13303984D02*
X4082086Y-13170650D01*
X4082086Y-13189698D02*
X4091610Y-13180174D01*
X4091610Y-13180174D02*
X4110658Y-13170650D01*
X4110658Y-13170650D02*
X4139229Y-13170650D01*
X4139229Y-13170650D02*
X4158277Y-13180174D01*
X4158277Y-13180174D02*
X4167801Y-13199222D01*
X4167801Y-13199222D02*
X4167801Y-13303984D01*
X4167801Y-13199222D02*
X4177324Y-13180174D01*
X4177324Y-13180174D02*
X4196372Y-13170650D01*
X4196372Y-13170650D02*
X4224944Y-13170650D01*
X4224944Y-13170650D02*
X4243991Y-13180174D01*
X4243991Y-13180174D02*
X4253515Y-13199222D01*
X4253515Y-13199222D02*
X4253515Y-13303984D01*
X4643991Y-13094460D02*
X4472563Y-13351603D01*
X4901134Y-13103984D02*
X4920182Y-13103984D01*
X4920182Y-13103984D02*
X4939229Y-13113508D01*
X4939229Y-13113508D02*
X4948753Y-13123031D01*
X4948753Y-13123031D02*
X4958277Y-13142079D01*
X4958277Y-13142079D02*
X4967801Y-13180174D01*
X4967801Y-13180174D02*
X4967801Y-13227793D01*
X4967801Y-13227793D02*
X4958277Y-13265888D01*
X4958277Y-13265888D02*
X4948753Y-13284936D01*
X4948753Y-13284936D02*
X4939229Y-13294460D01*
X4939229Y-13294460D02*
X4920182Y-13303984D01*
X4920182Y-13303984D02*
X4901134Y-13303984D01*
X4901134Y-13303984D02*
X4882087Y-13294460D01*
X4882087Y-13294460D02*
X4872563Y-13284936D01*
X4872563Y-13284936D02*
X4863039Y-13265888D01*
X4863039Y-13265888D02*
X4853515Y-13227793D01*
X4853515Y-13227793D02*
X4853515Y-13180174D01*
X4853515Y-13180174D02*
X4863039Y-13142079D01*
X4863039Y-13142079D02*
X4872563Y-13123031D01*
X4872563Y-13123031D02*
X4882087Y-13113508D01*
X4882087Y-13113508D02*
X4901134Y-13103984D01*
X5053515Y-13284936D02*
X5063039Y-13294460D01*
X5063039Y-13294460D02*
X5053515Y-13303984D01*
X5053515Y-13303984D02*
X5043991Y-13294460D01*
X5043991Y-13294460D02*
X5053515Y-13284936D01*
X5053515Y-13284936D02*
X5053515Y-13303984D01*
X5186848Y-13103984D02*
X5205896Y-13103984D01*
X5205896Y-13103984D02*
X5224944Y-13113508D01*
X5224944Y-13113508D02*
X5234468Y-13123031D01*
X5234468Y-13123031D02*
X5243991Y-13142079D01*
X5243991Y-13142079D02*
X5253515Y-13180174D01*
X5253515Y-13180174D02*
X5253515Y-13227793D01*
X5253515Y-13227793D02*
X5243991Y-13265888D01*
X5243991Y-13265888D02*
X5234468Y-13284936D01*
X5234468Y-13284936D02*
X5224944Y-13294460D01*
X5224944Y-13294460D02*
X5205896Y-13303984D01*
X5205896Y-13303984D02*
X5186848Y-13303984D01*
X5186848Y-13303984D02*
X5167801Y-13294460D01*
X5167801Y-13294460D02*
X5158277Y-13284936D01*
X5158277Y-13284936D02*
X5148753Y-13265888D01*
X5148753Y-13265888D02*
X5139229Y-13227793D01*
X5139229Y-13227793D02*
X5139229Y-13180174D01*
X5139229Y-13180174D02*
X5148753Y-13142079D01*
X5148753Y-13142079D02*
X5158277Y-13123031D01*
X5158277Y-13123031D02*
X5167801Y-13113508D01*
X5167801Y-13113508D02*
X5186848Y-13103984D01*
X5424944Y-13170650D02*
X5424944Y-13303984D01*
X5377325Y-13094460D02*
X5329706Y-13237317D01*
X5329706Y-13237317D02*
X5453515Y-13237317D01*
X5567801Y-13103984D02*
X5586849Y-13103984D01*
X5586849Y-13103984D02*
X5605896Y-13113508D01*
X5605896Y-13113508D02*
X5615420Y-13123031D01*
X5615420Y-13123031D02*
X5624944Y-13142079D01*
X5624944Y-13142079D02*
X5634467Y-13180174D01*
X5634467Y-13180174D02*
X5634467Y-13227793D01*
X5634467Y-13227793D02*
X5624944Y-13265888D01*
X5624944Y-13265888D02*
X5615420Y-13284936D01*
X5615420Y-13284936D02*
X5605896Y-13294460D01*
X5605896Y-13294460D02*
X5586849Y-13303984D01*
X5586849Y-13303984D02*
X5567801Y-13303984D01*
X5567801Y-13303984D02*
X5548753Y-13294460D01*
X5548753Y-13294460D02*
X5539229Y-13284936D01*
X5539229Y-13284936D02*
X5529706Y-13265888D01*
X5529706Y-13265888D02*
X5520182Y-13227793D01*
X5520182Y-13227793D02*
X5520182Y-13180174D01*
X5520182Y-13180174D02*
X5529706Y-13142079D01*
X5529706Y-13142079D02*
X5539229Y-13123031D01*
X5539229Y-13123031D02*
X5548753Y-13113508D01*
X5548753Y-13113508D02*
X5567801Y-13103984D01*
X5729706Y-13303984D02*
X5767801Y-13303984D01*
X5767801Y-13303984D02*
X5786848Y-13294460D01*
X5786848Y-13294460D02*
X5796372Y-13284936D01*
X5796372Y-13284936D02*
X5815420Y-13256365D01*
X5815420Y-13256365D02*
X5824944Y-13218269D01*
X5824944Y-13218269D02*
X5824944Y-13142079D01*
X5824944Y-13142079D02*
X5815420Y-13123031D01*
X5815420Y-13123031D02*
X5805896Y-13113508D01*
X5805896Y-13113508D02*
X5786848Y-13103984D01*
X5786848Y-13103984D02*
X5748753Y-13103984D01*
X5748753Y-13103984D02*
X5729706Y-13113508D01*
X5729706Y-13113508D02*
X5720182Y-13123031D01*
X5720182Y-13123031D02*
X5710658Y-13142079D01*
X5710658Y-13142079D02*
X5710658Y-13189698D01*
X5710658Y-13189698D02*
X5720182Y-13208746D01*
X5720182Y-13208746D02*
X5729706Y-13218269D01*
X5729706Y-13218269D02*
X5748753Y-13227793D01*
X5748753Y-13227793D02*
X5786848Y-13227793D01*
X5786848Y-13227793D02*
X5805896Y-13218269D01*
X5805896Y-13218269D02*
X5815420Y-13208746D01*
X5815420Y-13208746D02*
X5824944Y-13189698D01*
X5901134Y-13103984D02*
X5901134Y-13142079D01*
X5977325Y-13103984D02*
X5977325Y-13142079D01*
X6272563Y-13380174D02*
X6263039Y-13370650D01*
X6263039Y-13370650D02*
X6243991Y-13342079D01*
X6243991Y-13342079D02*
X6234468Y-13323031D01*
X6234468Y-13323031D02*
X6224944Y-13294460D01*
X6224944Y-13294460D02*
X6215420Y-13246841D01*
X6215420Y-13246841D02*
X6215420Y-13208746D01*
X6215420Y-13208746D02*
X6224944Y-13161127D01*
X6224944Y-13161127D02*
X6234468Y-13132555D01*
X6234468Y-13132555D02*
X6243991Y-13113508D01*
X6243991Y-13113508D02*
X6263039Y-13084936D01*
X6263039Y-13084936D02*
X6272563Y-13075412D01*
X6377325Y-13189698D02*
X6358277Y-13180174D01*
X6358277Y-13180174D02*
X6348753Y-13170650D01*
X6348753Y-13170650D02*
X6339229Y-13151603D01*
X6339229Y-13151603D02*
X6339229Y-13142079D01*
X6339229Y-13142079D02*
X6348753Y-13123031D01*
X6348753Y-13123031D02*
X6358277Y-13113508D01*
X6358277Y-13113508D02*
X6377325Y-13103984D01*
X6377325Y-13103984D02*
X6415420Y-13103984D01*
X6415420Y-13103984D02*
X6434468Y-13113508D01*
X6434468Y-13113508D02*
X6443991Y-13123031D01*
X6443991Y-13123031D02*
X6453515Y-13142079D01*
X6453515Y-13142079D02*
X6453515Y-13151603D01*
X6453515Y-13151603D02*
X6443991Y-13170650D01*
X6443991Y-13170650D02*
X6434468Y-13180174D01*
X6434468Y-13180174D02*
X6415420Y-13189698D01*
X6415420Y-13189698D02*
X6377325Y-13189698D01*
X6377325Y-13189698D02*
X6358277Y-13199222D01*
X6358277Y-13199222D02*
X6348753Y-13208746D01*
X6348753Y-13208746D02*
X6339229Y-13227793D01*
X6339229Y-13227793D02*
X6339229Y-13265888D01*
X6339229Y-13265888D02*
X6348753Y-13284936D01*
X6348753Y-13284936D02*
X6358277Y-13294460D01*
X6358277Y-13294460D02*
X6377325Y-13303984D01*
X6377325Y-13303984D02*
X6415420Y-13303984D01*
X6415420Y-13303984D02*
X6434468Y-13294460D01*
X6434468Y-13294460D02*
X6443991Y-13284936D01*
X6443991Y-13284936D02*
X6453515Y-13265888D01*
X6453515Y-13265888D02*
X6453515Y-13227793D01*
X6453515Y-13227793D02*
X6443991Y-13208746D01*
X6443991Y-13208746D02*
X6434468Y-13199222D01*
X6434468Y-13199222D02*
X6415420Y-13189698D01*
X6691610Y-13303984D02*
X6691610Y-13103984D01*
X6777325Y-13303984D02*
X6777325Y-13199222D01*
X6777325Y-13199222D02*
X6767801Y-13180174D01*
X6767801Y-13180174D02*
X6748753Y-13170650D01*
X6748753Y-13170650D02*
X6720182Y-13170650D01*
X6720182Y-13170650D02*
X6701134Y-13180174D01*
X6701134Y-13180174D02*
X6691610Y-13189698D01*
X6901134Y-13303984D02*
X6882087Y-13294460D01*
X6882087Y-13294460D02*
X6872563Y-13284936D01*
X6872563Y-13284936D02*
X6863039Y-13265888D01*
X6863039Y-13265888D02*
X6863039Y-13208746D01*
X6863039Y-13208746D02*
X6872563Y-13189698D01*
X6872563Y-13189698D02*
X6882087Y-13180174D01*
X6882087Y-13180174D02*
X6901134Y-13170650D01*
X6901134Y-13170650D02*
X6929706Y-13170650D01*
X6929706Y-13170650D02*
X6948753Y-13180174D01*
X6948753Y-13180174D02*
X6958277Y-13189698D01*
X6958277Y-13189698D02*
X6967801Y-13208746D01*
X6967801Y-13208746D02*
X6967801Y-13265888D01*
X6967801Y-13265888D02*
X6958277Y-13284936D01*
X6958277Y-13284936D02*
X6948753Y-13294460D01*
X6948753Y-13294460D02*
X6929706Y-13303984D01*
X6929706Y-13303984D02*
X6901134Y-13303984D01*
X7082087Y-13303984D02*
X7063039Y-13294460D01*
X7063039Y-13294460D02*
X7053515Y-13275412D01*
X7053515Y-13275412D02*
X7053515Y-13103984D01*
X7234468Y-13294460D02*
X7215420Y-13303984D01*
X7215420Y-13303984D02*
X7177325Y-13303984D01*
X7177325Y-13303984D02*
X7158277Y-13294460D01*
X7158277Y-13294460D02*
X7148753Y-13275412D01*
X7148753Y-13275412D02*
X7148753Y-13199222D01*
X7148753Y-13199222D02*
X7158277Y-13180174D01*
X7158277Y-13180174D02*
X7177325Y-13170650D01*
X7177325Y-13170650D02*
X7215420Y-13170650D01*
X7215420Y-13170650D02*
X7234468Y-13180174D01*
X7234468Y-13180174D02*
X7243991Y-13199222D01*
X7243991Y-13199222D02*
X7243991Y-13218269D01*
X7243991Y-13218269D02*
X7148753Y-13237317D01*
X7320182Y-13294460D02*
X7339230Y-13303984D01*
X7339230Y-13303984D02*
X7377325Y-13303984D01*
X7377325Y-13303984D02*
X7396372Y-13294460D01*
X7396372Y-13294460D02*
X7405896Y-13275412D01*
X7405896Y-13275412D02*
X7405896Y-13265888D01*
X7405896Y-13265888D02*
X7396372Y-13246841D01*
X7396372Y-13246841D02*
X7377325Y-13237317D01*
X7377325Y-13237317D02*
X7348753Y-13237317D01*
X7348753Y-13237317D02*
X7329706Y-13227793D01*
X7329706Y-13227793D02*
X7320182Y-13208746D01*
X7320182Y-13208746D02*
X7320182Y-13199222D01*
X7320182Y-13199222D02*
X7329706Y-13180174D01*
X7329706Y-13180174D02*
X7348753Y-13170650D01*
X7348753Y-13170650D02*
X7377325Y-13170650D01*
X7377325Y-13170650D02*
X7396372Y-13180174D01*
X7472563Y-13380174D02*
X7482087Y-13370650D01*
X7482087Y-13370650D02*
X7501134Y-13342079D01*
X7501134Y-13342079D02*
X7510658Y-13323031D01*
X7510658Y-13323031D02*
X7520182Y-13294460D01*
X7520182Y-13294460D02*
X7529706Y-13246841D01*
X7529706Y-13246841D02*
X7529706Y-13208746D01*
X7529706Y-13208746D02*
X7520182Y-13161127D01*
X7520182Y-13161127D02*
X7510658Y-13132555D01*
X7510658Y-13132555D02*
X7501134Y-13113508D01*
X7501134Y-13113508D02*
X7482087Y-13084936D01*
X7482087Y-13084936D02*
X7472563Y-13075412D01*
D14*
X2587500Y-13421500D02*
X2697500Y-13531500D01*
X2697500Y-13421500D02*
X2587500Y-13531500D01*
X2642500Y-13421500D02*
X2642500Y-13531500D01*
X2587500Y-13476500D02*
X2697500Y-13476500D01*
D11*
X3063039Y-13567984D02*
X2948753Y-13567984D01*
X3005896Y-13567984D02*
X3005896Y-13367984D01*
X3005896Y-13367984D02*
X2986848Y-13396555D01*
X2986848Y-13396555D02*
X2967801Y-13415603D01*
X2967801Y-13415603D02*
X2948753Y-13425127D01*
X3148753Y-13548936D02*
X3158277Y-13558460D01*
X3158277Y-13558460D02*
X3148753Y-13567984D01*
X3148753Y-13567984D02*
X3139229Y-13558460D01*
X3139229Y-13558460D02*
X3148753Y-13548936D01*
X3148753Y-13548936D02*
X3148753Y-13567984D01*
X3348753Y-13567984D02*
X3234467Y-13567984D01*
X3291610Y-13567984D02*
X3291610Y-13367984D01*
X3291610Y-13367984D02*
X3272562Y-13396555D01*
X3272562Y-13396555D02*
X3253515Y-13415603D01*
X3253515Y-13415603D02*
X3234467Y-13425127D01*
X3472562Y-13367984D02*
X3491610Y-13367984D01*
X3491610Y-13367984D02*
X3510658Y-13377508D01*
X3510658Y-13377508D02*
X3520182Y-13387031D01*
X3520182Y-13387031D02*
X3529705Y-13406079D01*
X3529705Y-13406079D02*
X3539229Y-13444174D01*
X3539229Y-13444174D02*
X3539229Y-13491793D01*
X3539229Y-13491793D02*
X3529705Y-13529888D01*
X3529705Y-13529888D02*
X3520182Y-13548936D01*
X3520182Y-13548936D02*
X3510658Y-13558460D01*
X3510658Y-13558460D02*
X3491610Y-13567984D01*
X3491610Y-13567984D02*
X3472562Y-13567984D01*
X3472562Y-13567984D02*
X3453515Y-13558460D01*
X3453515Y-13558460D02*
X3443991Y-13548936D01*
X3443991Y-13548936D02*
X3434467Y-13529888D01*
X3434467Y-13529888D02*
X3424943Y-13491793D01*
X3424943Y-13491793D02*
X3424943Y-13444174D01*
X3424943Y-13444174D02*
X3434467Y-13406079D01*
X3434467Y-13406079D02*
X3443991Y-13387031D01*
X3443991Y-13387031D02*
X3453515Y-13377508D01*
X3453515Y-13377508D02*
X3472562Y-13367984D01*
X3663039Y-13367984D02*
X3682086Y-13367984D01*
X3682086Y-13367984D02*
X3701134Y-13377508D01*
X3701134Y-13377508D02*
X3710658Y-13387031D01*
X3710658Y-13387031D02*
X3720182Y-13406079D01*
X3720182Y-13406079D02*
X3729705Y-13444174D01*
X3729705Y-13444174D02*
X3729705Y-13491793D01*
X3729705Y-13491793D02*
X3720182Y-13529888D01*
X3720182Y-13529888D02*
X3710658Y-13548936D01*
X3710658Y-13548936D02*
X3701134Y-13558460D01*
X3701134Y-13558460D02*
X3682086Y-13567984D01*
X3682086Y-13567984D02*
X3663039Y-13567984D01*
X3663039Y-13567984D02*
X3643991Y-13558460D01*
X3643991Y-13558460D02*
X3634467Y-13548936D01*
X3634467Y-13548936D02*
X3624943Y-13529888D01*
X3624943Y-13529888D02*
X3615420Y-13491793D01*
X3615420Y-13491793D02*
X3615420Y-13444174D01*
X3615420Y-13444174D02*
X3624943Y-13406079D01*
X3624943Y-13406079D02*
X3634467Y-13387031D01*
X3634467Y-13387031D02*
X3643991Y-13377508D01*
X3643991Y-13377508D02*
X3663039Y-13367984D01*
X3815420Y-13567984D02*
X3815420Y-13434650D01*
X3815420Y-13453698D02*
X3824943Y-13444174D01*
X3824943Y-13444174D02*
X3843991Y-13434650D01*
X3843991Y-13434650D02*
X3872563Y-13434650D01*
X3872563Y-13434650D02*
X3891610Y-13444174D01*
X3891610Y-13444174D02*
X3901134Y-13463222D01*
X3901134Y-13463222D02*
X3901134Y-13567984D01*
X3901134Y-13463222D02*
X3910658Y-13444174D01*
X3910658Y-13444174D02*
X3929705Y-13434650D01*
X3929705Y-13434650D02*
X3958277Y-13434650D01*
X3958277Y-13434650D02*
X3977324Y-13444174D01*
X3977324Y-13444174D02*
X3986848Y-13463222D01*
X3986848Y-13463222D02*
X3986848Y-13567984D01*
X4082086Y-13567984D02*
X4082086Y-13434650D01*
X4082086Y-13453698D02*
X4091610Y-13444174D01*
X4091610Y-13444174D02*
X4110658Y-13434650D01*
X4110658Y-13434650D02*
X4139229Y-13434650D01*
X4139229Y-13434650D02*
X4158277Y-13444174D01*
X4158277Y-13444174D02*
X4167801Y-13463222D01*
X4167801Y-13463222D02*
X4167801Y-13567984D01*
X4167801Y-13463222D02*
X4177324Y-13444174D01*
X4177324Y-13444174D02*
X4196372Y-13434650D01*
X4196372Y-13434650D02*
X4224944Y-13434650D01*
X4224944Y-13434650D02*
X4243991Y-13444174D01*
X4243991Y-13444174D02*
X4253515Y-13463222D01*
X4253515Y-13463222D02*
X4253515Y-13567984D01*
X4643991Y-13358460D02*
X4472563Y-13615603D01*
X4901134Y-13367984D02*
X4920182Y-13367984D01*
X4920182Y-13367984D02*
X4939229Y-13377508D01*
X4939229Y-13377508D02*
X4948753Y-13387031D01*
X4948753Y-13387031D02*
X4958277Y-13406079D01*
X4958277Y-13406079D02*
X4967801Y-13444174D01*
X4967801Y-13444174D02*
X4967801Y-13491793D01*
X4967801Y-13491793D02*
X4958277Y-13529888D01*
X4958277Y-13529888D02*
X4948753Y-13548936D01*
X4948753Y-13548936D02*
X4939229Y-13558460D01*
X4939229Y-13558460D02*
X4920182Y-13567984D01*
X4920182Y-13567984D02*
X4901134Y-13567984D01*
X4901134Y-13567984D02*
X4882087Y-13558460D01*
X4882087Y-13558460D02*
X4872563Y-13548936D01*
X4872563Y-13548936D02*
X4863039Y-13529888D01*
X4863039Y-13529888D02*
X4853515Y-13491793D01*
X4853515Y-13491793D02*
X4853515Y-13444174D01*
X4853515Y-13444174D02*
X4863039Y-13406079D01*
X4863039Y-13406079D02*
X4872563Y-13387031D01*
X4872563Y-13387031D02*
X4882087Y-13377508D01*
X4882087Y-13377508D02*
X4901134Y-13367984D01*
X5053515Y-13548936D02*
X5063039Y-13558460D01*
X5063039Y-13558460D02*
X5053515Y-13567984D01*
X5053515Y-13567984D02*
X5043991Y-13558460D01*
X5043991Y-13558460D02*
X5053515Y-13548936D01*
X5053515Y-13548936D02*
X5053515Y-13567984D01*
X5186848Y-13367984D02*
X5205896Y-13367984D01*
X5205896Y-13367984D02*
X5224944Y-13377508D01*
X5224944Y-13377508D02*
X5234468Y-13387031D01*
X5234468Y-13387031D02*
X5243991Y-13406079D01*
X5243991Y-13406079D02*
X5253515Y-13444174D01*
X5253515Y-13444174D02*
X5253515Y-13491793D01*
X5253515Y-13491793D02*
X5243991Y-13529888D01*
X5243991Y-13529888D02*
X5234468Y-13548936D01*
X5234468Y-13548936D02*
X5224944Y-13558460D01*
X5224944Y-13558460D02*
X5205896Y-13567984D01*
X5205896Y-13567984D02*
X5186848Y-13567984D01*
X5186848Y-13567984D02*
X5167801Y-13558460D01*
X5167801Y-13558460D02*
X5158277Y-13548936D01*
X5158277Y-13548936D02*
X5148753Y-13529888D01*
X5148753Y-13529888D02*
X5139229Y-13491793D01*
X5139229Y-13491793D02*
X5139229Y-13444174D01*
X5139229Y-13444174D02*
X5148753Y-13406079D01*
X5148753Y-13406079D02*
X5158277Y-13387031D01*
X5158277Y-13387031D02*
X5167801Y-13377508D01*
X5167801Y-13377508D02*
X5186848Y-13367984D01*
X5424944Y-13434650D02*
X5424944Y-13567984D01*
X5377325Y-13358460D02*
X5329706Y-13501317D01*
X5329706Y-13501317D02*
X5453515Y-13501317D01*
X5510658Y-13367984D02*
X5634467Y-13367984D01*
X5634467Y-13367984D02*
X5567801Y-13444174D01*
X5567801Y-13444174D02*
X5596372Y-13444174D01*
X5596372Y-13444174D02*
X5615420Y-13453698D01*
X5615420Y-13453698D02*
X5624944Y-13463222D01*
X5624944Y-13463222D02*
X5634467Y-13482269D01*
X5634467Y-13482269D02*
X5634467Y-13529888D01*
X5634467Y-13529888D02*
X5624944Y-13548936D01*
X5624944Y-13548936D02*
X5615420Y-13558460D01*
X5615420Y-13558460D02*
X5596372Y-13567984D01*
X5596372Y-13567984D02*
X5539229Y-13567984D01*
X5539229Y-13567984D02*
X5520182Y-13558460D01*
X5520182Y-13558460D02*
X5510658Y-13548936D01*
X5701134Y-13367984D02*
X5824944Y-13367984D01*
X5824944Y-13367984D02*
X5758277Y-13444174D01*
X5758277Y-13444174D02*
X5786848Y-13444174D01*
X5786848Y-13444174D02*
X5805896Y-13453698D01*
X5805896Y-13453698D02*
X5815420Y-13463222D01*
X5815420Y-13463222D02*
X5824944Y-13482269D01*
X5824944Y-13482269D02*
X5824944Y-13529888D01*
X5824944Y-13529888D02*
X5815420Y-13548936D01*
X5815420Y-13548936D02*
X5805896Y-13558460D01*
X5805896Y-13558460D02*
X5786848Y-13567984D01*
X5786848Y-13567984D02*
X5729706Y-13567984D01*
X5729706Y-13567984D02*
X5710658Y-13558460D01*
X5710658Y-13558460D02*
X5701134Y-13548936D01*
X5901134Y-13367984D02*
X5901134Y-13406079D01*
X5977325Y-13367984D02*
X5977325Y-13406079D01*
X6272563Y-13644174D02*
X6263039Y-13634650D01*
X6263039Y-13634650D02*
X6243991Y-13606079D01*
X6243991Y-13606079D02*
X6234468Y-13587031D01*
X6234468Y-13587031D02*
X6224944Y-13558460D01*
X6224944Y-13558460D02*
X6215420Y-13510841D01*
X6215420Y-13510841D02*
X6215420Y-13472746D01*
X6215420Y-13472746D02*
X6224944Y-13425127D01*
X6224944Y-13425127D02*
X6234468Y-13396555D01*
X6234468Y-13396555D02*
X6243991Y-13377508D01*
X6243991Y-13377508D02*
X6263039Y-13348936D01*
X6263039Y-13348936D02*
X6272563Y-13339412D01*
X6434468Y-13367984D02*
X6396372Y-13367984D01*
X6396372Y-13367984D02*
X6377325Y-13377508D01*
X6377325Y-13377508D02*
X6367801Y-13387031D01*
X6367801Y-13387031D02*
X6348753Y-13415603D01*
X6348753Y-13415603D02*
X6339229Y-13453698D01*
X6339229Y-13453698D02*
X6339229Y-13529888D01*
X6339229Y-13529888D02*
X6348753Y-13548936D01*
X6348753Y-13548936D02*
X6358277Y-13558460D01*
X6358277Y-13558460D02*
X6377325Y-13567984D01*
X6377325Y-13567984D02*
X6415420Y-13567984D01*
X6415420Y-13567984D02*
X6434468Y-13558460D01*
X6434468Y-13558460D02*
X6443991Y-13548936D01*
X6443991Y-13548936D02*
X6453515Y-13529888D01*
X6453515Y-13529888D02*
X6453515Y-13482269D01*
X6453515Y-13482269D02*
X6443991Y-13463222D01*
X6443991Y-13463222D02*
X6434468Y-13453698D01*
X6434468Y-13453698D02*
X6415420Y-13444174D01*
X6415420Y-13444174D02*
X6377325Y-13444174D01*
X6377325Y-13444174D02*
X6358277Y-13453698D01*
X6358277Y-13453698D02*
X6348753Y-13463222D01*
X6348753Y-13463222D02*
X6339229Y-13482269D01*
X6691610Y-13567984D02*
X6691610Y-13367984D01*
X6777325Y-13567984D02*
X6777325Y-13463222D01*
X6777325Y-13463222D02*
X6767801Y-13444174D01*
X6767801Y-13444174D02*
X6748753Y-13434650D01*
X6748753Y-13434650D02*
X6720182Y-13434650D01*
X6720182Y-13434650D02*
X6701134Y-13444174D01*
X6701134Y-13444174D02*
X6691610Y-13453698D01*
X6901134Y-13567984D02*
X6882087Y-13558460D01*
X6882087Y-13558460D02*
X6872563Y-13548936D01*
X6872563Y-13548936D02*
X6863039Y-13529888D01*
X6863039Y-13529888D02*
X6863039Y-13472746D01*
X6863039Y-13472746D02*
X6872563Y-13453698D01*
X6872563Y-13453698D02*
X6882087Y-13444174D01*
X6882087Y-13444174D02*
X6901134Y-13434650D01*
X6901134Y-13434650D02*
X6929706Y-13434650D01*
X6929706Y-13434650D02*
X6948753Y-13444174D01*
X6948753Y-13444174D02*
X6958277Y-13453698D01*
X6958277Y-13453698D02*
X6967801Y-13472746D01*
X6967801Y-13472746D02*
X6967801Y-13529888D01*
X6967801Y-13529888D02*
X6958277Y-13548936D01*
X6958277Y-13548936D02*
X6948753Y-13558460D01*
X6948753Y-13558460D02*
X6929706Y-13567984D01*
X6929706Y-13567984D02*
X6901134Y-13567984D01*
X7082087Y-13567984D02*
X7063039Y-13558460D01*
X7063039Y-13558460D02*
X7053515Y-13539412D01*
X7053515Y-13539412D02*
X7053515Y-13367984D01*
X7234468Y-13558460D02*
X7215420Y-13567984D01*
X7215420Y-13567984D02*
X7177325Y-13567984D01*
X7177325Y-13567984D02*
X7158277Y-13558460D01*
X7158277Y-13558460D02*
X7148753Y-13539412D01*
X7148753Y-13539412D02*
X7148753Y-13463222D01*
X7148753Y-13463222D02*
X7158277Y-13444174D01*
X7158277Y-13444174D02*
X7177325Y-13434650D01*
X7177325Y-13434650D02*
X7215420Y-13434650D01*
X7215420Y-13434650D02*
X7234468Y-13444174D01*
X7234468Y-13444174D02*
X7243991Y-13463222D01*
X7243991Y-13463222D02*
X7243991Y-13482269D01*
X7243991Y-13482269D02*
X7148753Y-13501317D01*
X7320182Y-13558460D02*
X7339230Y-13567984D01*
X7339230Y-13567984D02*
X7377325Y-13567984D01*
X7377325Y-13567984D02*
X7396372Y-13558460D01*
X7396372Y-13558460D02*
X7405896Y-13539412D01*
X7405896Y-13539412D02*
X7405896Y-13529888D01*
X7405896Y-13529888D02*
X7396372Y-13510841D01*
X7396372Y-13510841D02*
X7377325Y-13501317D01*
X7377325Y-13501317D02*
X7348753Y-13501317D01*
X7348753Y-13501317D02*
X7329706Y-13491793D01*
X7329706Y-13491793D02*
X7320182Y-13472746D01*
X7320182Y-13472746D02*
X7320182Y-13463222D01*
X7320182Y-13463222D02*
X7329706Y-13444174D01*
X7329706Y-13444174D02*
X7348753Y-13434650D01*
X7348753Y-13434650D02*
X7377325Y-13434650D01*
X7377325Y-13434650D02*
X7396372Y-13444174D01*
X7472563Y-13644174D02*
X7482087Y-13634650D01*
X7482087Y-13634650D02*
X7501134Y-13606079D01*
X7501134Y-13606079D02*
X7510658Y-13587031D01*
X7510658Y-13587031D02*
X7520182Y-13558460D01*
X7520182Y-13558460D02*
X7529706Y-13510841D01*
X7529706Y-13510841D02*
X7529706Y-13472746D01*
X7529706Y-13472746D02*
X7520182Y-13425127D01*
X7520182Y-13425127D02*
X7510658Y-13396555D01*
X7510658Y-13396555D02*
X7501134Y-13377508D01*
X7501134Y-13377508D02*
X7482087Y-13348936D01*
X7482087Y-13348936D02*
X7472563Y-13339412D01*
D15*
X2547500Y-13665500D02*
X2697500Y-13815500D01*
X2697500Y-13665500D02*
X2547500Y-13815500D01*
X2675534Y-13793533D02*
X2675534Y-13687466D01*
X2569467Y-13687466D01*
X2569467Y-13793533D01*
X2675534Y-13793533D01*
D11*
X3063039Y-13831984D02*
X2948753Y-13831984D01*
X3005896Y-13831984D02*
X3005896Y-13631984D01*
X3005896Y-13631984D02*
X2986848Y-13660555D01*
X2986848Y-13660555D02*
X2967801Y-13679603D01*
X2967801Y-13679603D02*
X2948753Y-13689127D01*
X3148753Y-13812936D02*
X3158277Y-13822460D01*
X3158277Y-13822460D02*
X3148753Y-13831984D01*
X3148753Y-13831984D02*
X3139229Y-13822460D01*
X3139229Y-13822460D02*
X3148753Y-13812936D01*
X3148753Y-13812936D02*
X3148753Y-13831984D01*
X3339229Y-13631984D02*
X3243991Y-13631984D01*
X3243991Y-13631984D02*
X3234467Y-13727222D01*
X3234467Y-13727222D02*
X3243991Y-13717698D01*
X3243991Y-13717698D02*
X3263039Y-13708174D01*
X3263039Y-13708174D02*
X3310658Y-13708174D01*
X3310658Y-13708174D02*
X3329705Y-13717698D01*
X3329705Y-13717698D02*
X3339229Y-13727222D01*
X3339229Y-13727222D02*
X3348753Y-13746269D01*
X3348753Y-13746269D02*
X3348753Y-13793888D01*
X3348753Y-13793888D02*
X3339229Y-13812936D01*
X3339229Y-13812936D02*
X3329705Y-13822460D01*
X3329705Y-13822460D02*
X3310658Y-13831984D01*
X3310658Y-13831984D02*
X3263039Y-13831984D01*
X3263039Y-13831984D02*
X3243991Y-13822460D01*
X3243991Y-13822460D02*
X3234467Y-13812936D01*
X3472562Y-13631984D02*
X3491610Y-13631984D01*
X3491610Y-13631984D02*
X3510658Y-13641508D01*
X3510658Y-13641508D02*
X3520182Y-13651031D01*
X3520182Y-13651031D02*
X3529705Y-13670079D01*
X3529705Y-13670079D02*
X3539229Y-13708174D01*
X3539229Y-13708174D02*
X3539229Y-13755793D01*
X3539229Y-13755793D02*
X3529705Y-13793888D01*
X3529705Y-13793888D02*
X3520182Y-13812936D01*
X3520182Y-13812936D02*
X3510658Y-13822460D01*
X3510658Y-13822460D02*
X3491610Y-13831984D01*
X3491610Y-13831984D02*
X3472562Y-13831984D01*
X3472562Y-13831984D02*
X3453515Y-13822460D01*
X3453515Y-13822460D02*
X3443991Y-13812936D01*
X3443991Y-13812936D02*
X3434467Y-13793888D01*
X3434467Y-13793888D02*
X3424943Y-13755793D01*
X3424943Y-13755793D02*
X3424943Y-13708174D01*
X3424943Y-13708174D02*
X3434467Y-13670079D01*
X3434467Y-13670079D02*
X3443991Y-13651031D01*
X3443991Y-13651031D02*
X3453515Y-13641508D01*
X3453515Y-13641508D02*
X3472562Y-13631984D01*
X3663039Y-13631984D02*
X3682086Y-13631984D01*
X3682086Y-13631984D02*
X3701134Y-13641508D01*
X3701134Y-13641508D02*
X3710658Y-13651031D01*
X3710658Y-13651031D02*
X3720182Y-13670079D01*
X3720182Y-13670079D02*
X3729705Y-13708174D01*
X3729705Y-13708174D02*
X3729705Y-13755793D01*
X3729705Y-13755793D02*
X3720182Y-13793888D01*
X3720182Y-13793888D02*
X3710658Y-13812936D01*
X3710658Y-13812936D02*
X3701134Y-13822460D01*
X3701134Y-13822460D02*
X3682086Y-13831984D01*
X3682086Y-13831984D02*
X3663039Y-13831984D01*
X3663039Y-13831984D02*
X3643991Y-13822460D01*
X3643991Y-13822460D02*
X3634467Y-13812936D01*
X3634467Y-13812936D02*
X3624943Y-13793888D01*
X3624943Y-13793888D02*
X3615420Y-13755793D01*
X3615420Y-13755793D02*
X3615420Y-13708174D01*
X3615420Y-13708174D02*
X3624943Y-13670079D01*
X3624943Y-13670079D02*
X3634467Y-13651031D01*
X3634467Y-13651031D02*
X3643991Y-13641508D01*
X3643991Y-13641508D02*
X3663039Y-13631984D01*
X3815420Y-13831984D02*
X3815420Y-13698650D01*
X3815420Y-13717698D02*
X3824943Y-13708174D01*
X3824943Y-13708174D02*
X3843991Y-13698650D01*
X3843991Y-13698650D02*
X3872563Y-13698650D01*
X3872563Y-13698650D02*
X3891610Y-13708174D01*
X3891610Y-13708174D02*
X3901134Y-13727222D01*
X3901134Y-13727222D02*
X3901134Y-13831984D01*
X3901134Y-13727222D02*
X3910658Y-13708174D01*
X3910658Y-13708174D02*
X3929705Y-13698650D01*
X3929705Y-13698650D02*
X3958277Y-13698650D01*
X3958277Y-13698650D02*
X3977324Y-13708174D01*
X3977324Y-13708174D02*
X3986848Y-13727222D01*
X3986848Y-13727222D02*
X3986848Y-13831984D01*
X4082086Y-13831984D02*
X4082086Y-13698650D01*
X4082086Y-13717698D02*
X4091610Y-13708174D01*
X4091610Y-13708174D02*
X4110658Y-13698650D01*
X4110658Y-13698650D02*
X4139229Y-13698650D01*
X4139229Y-13698650D02*
X4158277Y-13708174D01*
X4158277Y-13708174D02*
X4167801Y-13727222D01*
X4167801Y-13727222D02*
X4167801Y-13831984D01*
X4167801Y-13727222D02*
X4177324Y-13708174D01*
X4177324Y-13708174D02*
X4196372Y-13698650D01*
X4196372Y-13698650D02*
X4224944Y-13698650D01*
X4224944Y-13698650D02*
X4243991Y-13708174D01*
X4243991Y-13708174D02*
X4253515Y-13727222D01*
X4253515Y-13727222D02*
X4253515Y-13831984D01*
X4643991Y-13622460D02*
X4472563Y-13879603D01*
X4901134Y-13631984D02*
X4920182Y-13631984D01*
X4920182Y-13631984D02*
X4939229Y-13641508D01*
X4939229Y-13641508D02*
X4948753Y-13651031D01*
X4948753Y-13651031D02*
X4958277Y-13670079D01*
X4958277Y-13670079D02*
X4967801Y-13708174D01*
X4967801Y-13708174D02*
X4967801Y-13755793D01*
X4967801Y-13755793D02*
X4958277Y-13793888D01*
X4958277Y-13793888D02*
X4948753Y-13812936D01*
X4948753Y-13812936D02*
X4939229Y-13822460D01*
X4939229Y-13822460D02*
X4920182Y-13831984D01*
X4920182Y-13831984D02*
X4901134Y-13831984D01*
X4901134Y-13831984D02*
X4882087Y-13822460D01*
X4882087Y-13822460D02*
X4872563Y-13812936D01*
X4872563Y-13812936D02*
X4863039Y-13793888D01*
X4863039Y-13793888D02*
X4853515Y-13755793D01*
X4853515Y-13755793D02*
X4853515Y-13708174D01*
X4853515Y-13708174D02*
X4863039Y-13670079D01*
X4863039Y-13670079D02*
X4872563Y-13651031D01*
X4872563Y-13651031D02*
X4882087Y-13641508D01*
X4882087Y-13641508D02*
X4901134Y-13631984D01*
X5053515Y-13812936D02*
X5063039Y-13822460D01*
X5063039Y-13822460D02*
X5053515Y-13831984D01*
X5053515Y-13831984D02*
X5043991Y-13822460D01*
X5043991Y-13822460D02*
X5053515Y-13812936D01*
X5053515Y-13812936D02*
X5053515Y-13831984D01*
X5186848Y-13631984D02*
X5205896Y-13631984D01*
X5205896Y-13631984D02*
X5224944Y-13641508D01*
X5224944Y-13641508D02*
X5234468Y-13651031D01*
X5234468Y-13651031D02*
X5243991Y-13670079D01*
X5243991Y-13670079D02*
X5253515Y-13708174D01*
X5253515Y-13708174D02*
X5253515Y-13755793D01*
X5253515Y-13755793D02*
X5243991Y-13793888D01*
X5243991Y-13793888D02*
X5234468Y-13812936D01*
X5234468Y-13812936D02*
X5224944Y-13822460D01*
X5224944Y-13822460D02*
X5205896Y-13831984D01*
X5205896Y-13831984D02*
X5186848Y-13831984D01*
X5186848Y-13831984D02*
X5167801Y-13822460D01*
X5167801Y-13822460D02*
X5158277Y-13812936D01*
X5158277Y-13812936D02*
X5148753Y-13793888D01*
X5148753Y-13793888D02*
X5139229Y-13755793D01*
X5139229Y-13755793D02*
X5139229Y-13708174D01*
X5139229Y-13708174D02*
X5148753Y-13670079D01*
X5148753Y-13670079D02*
X5158277Y-13651031D01*
X5158277Y-13651031D02*
X5167801Y-13641508D01*
X5167801Y-13641508D02*
X5186848Y-13631984D01*
X5434468Y-13631984D02*
X5339229Y-13631984D01*
X5339229Y-13631984D02*
X5329706Y-13727222D01*
X5329706Y-13727222D02*
X5339229Y-13717698D01*
X5339229Y-13717698D02*
X5358277Y-13708174D01*
X5358277Y-13708174D02*
X5405896Y-13708174D01*
X5405896Y-13708174D02*
X5424944Y-13717698D01*
X5424944Y-13717698D02*
X5434468Y-13727222D01*
X5434468Y-13727222D02*
X5443991Y-13746269D01*
X5443991Y-13746269D02*
X5443991Y-13793888D01*
X5443991Y-13793888D02*
X5434468Y-13812936D01*
X5434468Y-13812936D02*
X5424944Y-13822460D01*
X5424944Y-13822460D02*
X5405896Y-13831984D01*
X5405896Y-13831984D02*
X5358277Y-13831984D01*
X5358277Y-13831984D02*
X5339229Y-13822460D01*
X5339229Y-13822460D02*
X5329706Y-13812936D01*
X5539229Y-13831984D02*
X5577325Y-13831984D01*
X5577325Y-13831984D02*
X5596372Y-13822460D01*
X5596372Y-13822460D02*
X5605896Y-13812936D01*
X5605896Y-13812936D02*
X5624944Y-13784365D01*
X5624944Y-13784365D02*
X5634467Y-13746269D01*
X5634467Y-13746269D02*
X5634467Y-13670079D01*
X5634467Y-13670079D02*
X5624944Y-13651031D01*
X5624944Y-13651031D02*
X5615420Y-13641508D01*
X5615420Y-13641508D02*
X5596372Y-13631984D01*
X5596372Y-13631984D02*
X5558277Y-13631984D01*
X5558277Y-13631984D02*
X5539229Y-13641508D01*
X5539229Y-13641508D02*
X5529706Y-13651031D01*
X5529706Y-13651031D02*
X5520182Y-13670079D01*
X5520182Y-13670079D02*
X5520182Y-13717698D01*
X5520182Y-13717698D02*
X5529706Y-13736746D01*
X5529706Y-13736746D02*
X5539229Y-13746269D01*
X5539229Y-13746269D02*
X5558277Y-13755793D01*
X5558277Y-13755793D02*
X5596372Y-13755793D01*
X5596372Y-13755793D02*
X5615420Y-13746269D01*
X5615420Y-13746269D02*
X5624944Y-13736746D01*
X5624944Y-13736746D02*
X5634467Y-13717698D01*
X5824944Y-13831984D02*
X5710658Y-13831984D01*
X5767801Y-13831984D02*
X5767801Y-13631984D01*
X5767801Y-13631984D02*
X5748753Y-13660555D01*
X5748753Y-13660555D02*
X5729706Y-13679603D01*
X5729706Y-13679603D02*
X5710658Y-13689127D01*
X5901134Y-13631984D02*
X5901134Y-13670079D01*
X5977325Y-13631984D02*
X5977325Y-13670079D01*
X6272563Y-13908174D02*
X6263039Y-13898650D01*
X6263039Y-13898650D02*
X6243991Y-13870079D01*
X6243991Y-13870079D02*
X6234468Y-13851031D01*
X6234468Y-13851031D02*
X6224944Y-13822460D01*
X6224944Y-13822460D02*
X6215420Y-13774841D01*
X6215420Y-13774841D02*
X6215420Y-13736746D01*
X6215420Y-13736746D02*
X6224944Y-13689127D01*
X6224944Y-13689127D02*
X6234468Y-13660555D01*
X6234468Y-13660555D02*
X6243991Y-13641508D01*
X6243991Y-13641508D02*
X6263039Y-13612936D01*
X6263039Y-13612936D02*
X6272563Y-13603412D01*
X6339229Y-13651031D02*
X6348753Y-13641508D01*
X6348753Y-13641508D02*
X6367801Y-13631984D01*
X6367801Y-13631984D02*
X6415420Y-13631984D01*
X6415420Y-13631984D02*
X6434468Y-13641508D01*
X6434468Y-13641508D02*
X6443991Y-13651031D01*
X6443991Y-13651031D02*
X6453515Y-13670079D01*
X6453515Y-13670079D02*
X6453515Y-13689127D01*
X6453515Y-13689127D02*
X6443991Y-13717698D01*
X6443991Y-13717698D02*
X6329706Y-13831984D01*
X6329706Y-13831984D02*
X6453515Y-13831984D01*
X6691610Y-13831984D02*
X6691610Y-13631984D01*
X6777325Y-13831984D02*
X6777325Y-13727222D01*
X6777325Y-13727222D02*
X6767801Y-13708174D01*
X6767801Y-13708174D02*
X6748753Y-13698650D01*
X6748753Y-13698650D02*
X6720182Y-13698650D01*
X6720182Y-13698650D02*
X6701134Y-13708174D01*
X6701134Y-13708174D02*
X6691610Y-13717698D01*
X6901134Y-13831984D02*
X6882087Y-13822460D01*
X6882087Y-13822460D02*
X6872563Y-13812936D01*
X6872563Y-13812936D02*
X6863039Y-13793888D01*
X6863039Y-13793888D02*
X6863039Y-13736746D01*
X6863039Y-13736746D02*
X6872563Y-13717698D01*
X6872563Y-13717698D02*
X6882087Y-13708174D01*
X6882087Y-13708174D02*
X6901134Y-13698650D01*
X6901134Y-13698650D02*
X6929706Y-13698650D01*
X6929706Y-13698650D02*
X6948753Y-13708174D01*
X6948753Y-13708174D02*
X6958277Y-13717698D01*
X6958277Y-13717698D02*
X6967801Y-13736746D01*
X6967801Y-13736746D02*
X6967801Y-13793888D01*
X6967801Y-13793888D02*
X6958277Y-13812936D01*
X6958277Y-13812936D02*
X6948753Y-13822460D01*
X6948753Y-13822460D02*
X6929706Y-13831984D01*
X6929706Y-13831984D02*
X6901134Y-13831984D01*
X7082087Y-13831984D02*
X7063039Y-13822460D01*
X7063039Y-13822460D02*
X7053515Y-13803412D01*
X7053515Y-13803412D02*
X7053515Y-13631984D01*
X7234468Y-13822460D02*
X7215420Y-13831984D01*
X7215420Y-13831984D02*
X7177325Y-13831984D01*
X7177325Y-13831984D02*
X7158277Y-13822460D01*
X7158277Y-13822460D02*
X7148753Y-13803412D01*
X7148753Y-13803412D02*
X7148753Y-13727222D01*
X7148753Y-13727222D02*
X7158277Y-13708174D01*
X7158277Y-13708174D02*
X7177325Y-13698650D01*
X7177325Y-13698650D02*
X7215420Y-13698650D01*
X7215420Y-13698650D02*
X7234468Y-13708174D01*
X7234468Y-13708174D02*
X7243991Y-13727222D01*
X7243991Y-13727222D02*
X7243991Y-13746269D01*
X7243991Y-13746269D02*
X7148753Y-13765317D01*
X7320182Y-13822460D02*
X7339230Y-13831984D01*
X7339230Y-13831984D02*
X7377325Y-13831984D01*
X7377325Y-13831984D02*
X7396372Y-13822460D01*
X7396372Y-13822460D02*
X7405896Y-13803412D01*
X7405896Y-13803412D02*
X7405896Y-13793888D01*
X7405896Y-13793888D02*
X7396372Y-13774841D01*
X7396372Y-13774841D02*
X7377325Y-13765317D01*
X7377325Y-13765317D02*
X7348753Y-13765317D01*
X7348753Y-13765317D02*
X7329706Y-13755793D01*
X7329706Y-13755793D02*
X7320182Y-13736746D01*
X7320182Y-13736746D02*
X7320182Y-13727222D01*
X7320182Y-13727222D02*
X7329706Y-13708174D01*
X7329706Y-13708174D02*
X7348753Y-13698650D01*
X7348753Y-13698650D02*
X7377325Y-13698650D01*
X7377325Y-13698650D02*
X7396372Y-13708174D01*
X7472563Y-13908174D02*
X7482087Y-13898650D01*
X7482087Y-13898650D02*
X7501134Y-13870079D01*
X7501134Y-13870079D02*
X7510658Y-13851031D01*
X7510658Y-13851031D02*
X7520182Y-13822460D01*
X7520182Y-13822460D02*
X7529706Y-13774841D01*
X7529706Y-13774841D02*
X7529706Y-13736746D01*
X7529706Y-13736746D02*
X7520182Y-13689127D01*
X7520182Y-13689127D02*
X7510658Y-13660555D01*
X7510658Y-13660555D02*
X7501134Y-13641508D01*
X7501134Y-13641508D02*
X7482087Y-13612936D01*
X7482087Y-13612936D02*
X7472563Y-13603412D01*
M02*
