G04 #@! TF.GenerationSoftware,KiCad,Pcbnew,9.0.4*
G04 #@! TF.CreationDate,2026-02-05T15:32:58-05:00*
G04 #@! TF.ProjectId,micromouse-pcb,6d696372-6f6d-46f7-9573-652d7063622e,rev?*
G04 #@! TF.SameCoordinates,Original*
G04 #@! TF.FileFunction,Legend,Bot*
G04 #@! TF.FilePolarity,Positive*
%FSLAX46Y46*%
G04 Gerber Fmt 4.6, Leading zero omitted, Abs format (unit mm)*
G04 Created by KiCad (PCBNEW 9.0.4) date 2026-02-05 15:32:58*
%MOMM*%
%LPD*%
G01*
G04 APERTURE LIST*
G04 Aperture macros list*
%AMRoundRect*
0 Rectangle with rounded corners*
0 $1 Rounding radius*
0 $2 $3 $4 $5 $6 $7 $8 $9 X,Y pos of 4 corners*
0 Add a 4 corners polygon primitive as box body*
4,1,4,$2,$3,$4,$5,$6,$7,$8,$9,$2,$3,0*
0 Add four circle primitives for the rounded corners*
1,1,$1+$1,$2,$3*
1,1,$1+$1,$4,$5*
1,1,$1+$1,$6,$7*
1,1,$1+$1,$8,$9*
0 Add four rect primitives between the rounded corners*
20,1,$1+$1,$2,$3,$4,$5,0*
20,1,$1+$1,$4,$5,$6,$7,0*
20,1,$1+$1,$6,$7,$8,$9,0*
20,1,$1+$1,$8,$9,$2,$3,0*%
G04 Aperture macros list end*
%ADD10C,1.000000*%
%ADD11C,2.000000*%
%ADD12C,4.300000*%
%ADD13R,1.700000X1.700000*%
%ADD14C,1.700000*%
%ADD15O,3.500000X2.200000*%
%ADD16R,2.500000X1.500000*%
%ADD17O,2.500000X1.500000*%
%ADD18R,1.500000X1.050000*%
%ADD19O,1.500000X1.050000*%
%ADD20R,1.905000X2.000000*%
%ADD21O,1.905000X2.000000*%
%ADD22C,1.512000*%
%ADD23C,1.764000*%
%ADD24RoundRect,0.102000X-0.780000X0.780000X-0.780000X-0.780000X0.780000X-0.780000X0.780000X0.780000X0*%
%ADD25RoundRect,0.250000X-0.625000X0.350000X-0.625000X-0.350000X0.625000X-0.350000X0.625000X0.350000X0*%
%ADD26O,1.750000X1.200000*%
%ADD27RoundRect,0.102000X-1.103087X0.000000X0.000000X-1.103087X1.103087X0.000000X0.000000X1.103087X0*%
%ADD28RoundRect,0.102000X0.780000X-0.780000X0.780000X0.780000X-0.780000X0.780000X-0.780000X-0.780000X0*%
%ADD29RoundRect,0.102000X0.000000X-1.103087X1.103087X0.000000X0.000000X1.103087X-1.103087X0.000000X0*%
G04 APERTURE END LIST*
%LPC*%
D10*
G04 #@! TO.C,D2*
X122601975Y-48601974D02*
G75*
G02*
X121601973Y-48601974I-500001J0D01*
G01*
X121601973Y-48601974D02*
G75*
G02*
X122601975Y-48601974I500001J0D01*
G01*
X124398025Y-50398026D02*
G75*
G02*
X123398027Y-50398026I-499999J0D01*
G01*
X123398027Y-50398026D02*
G75*
G02*
X124398025Y-50398026I499999J0D01*
G01*
G04 #@! TO.C,D1*
X95500000Y-23000000D02*
G75*
G02*
X94500000Y-23000000I-500000J0D01*
G01*
X94500000Y-23000000D02*
G75*
G02*
X95500000Y-23000000I500000J0D01*
G01*
X95500000Y-25540000D02*
G75*
G02*
X94500000Y-25540000I-500000J0D01*
G01*
X94500000Y-25540000D02*
G75*
G02*
X95500000Y-25540000I500000J0D01*
G01*
G04 #@! TO.C,D4*
X95500000Y-104460000D02*
G75*
G02*
X94500000Y-104460000I-500000J0D01*
G01*
X94500000Y-104460000D02*
G75*
G02*
X95500000Y-104460000I500000J0D01*
G01*
X95500000Y-107000000D02*
G75*
G02*
X94500000Y-107000000I-500000J0D01*
G01*
X94500000Y-107000000D02*
G75*
G02*
X95500000Y-107000000I500000J0D01*
G01*
G04 #@! TO.C,D3*
X122601975Y-80796052D02*
G75*
G02*
X121601973Y-80796052I-500001J0D01*
G01*
X121601973Y-80796052D02*
G75*
G02*
X122601975Y-80796052I500001J0D01*
G01*
X124398025Y-79000000D02*
G75*
G02*
X123398027Y-79000000I-499999J0D01*
G01*
X123398027Y-79000000D02*
G75*
G02*
X124398025Y-79000000I499999J0D01*
G01*
G04 #@! TD*
D11*
G04 #@! TO.C,TP3*
X134000000Y-55000000D03*
G04 #@! TD*
D12*
G04 #@! TO.C,H6*
X147500000Y-65000000D03*
G04 #@! TD*
D13*
G04 #@! TO.C,J2_MotorEncoder1*
X90500000Y-84120000D03*
D14*
X90500000Y-81580000D03*
X90500000Y-79040000D03*
X90500000Y-76500000D03*
X90500000Y-73960000D03*
X90500000Y-71420000D03*
G04 #@! TD*
D12*
G04 #@! TO.C,H4*
X84000000Y-94500000D03*
G04 #@! TD*
D15*
G04 #@! TO.C,SW2*
X30000000Y-100000000D03*
X30000000Y-108200000D03*
D16*
X30000000Y-102100000D03*
D17*
X30000000Y-104100000D03*
X30000000Y-106100000D03*
G04 #@! TD*
D12*
G04 #@! TO.C,H1*
X59000000Y-35500000D03*
G04 #@! TD*
D11*
G04 #@! TO.C,TP5*
X103500000Y-76500000D03*
G04 #@! TD*
D18*
G04 #@! TO.C,Q3*
X108500000Y-49500000D03*
D19*
X108500000Y-48230000D03*
X108500000Y-46960000D03*
G04 #@! TD*
D20*
G04 #@! TO.C,Q9*
X39920000Y-96500000D03*
D21*
X42460000Y-96500000D03*
X45000000Y-96500000D03*
G04 #@! TD*
D13*
G04 #@! TO.C,J3*
X97960000Y-73000000D03*
D14*
X100500000Y-73000000D03*
X103040000Y-73000000D03*
X105580000Y-73000000D03*
X108120000Y-73000000D03*
X110660000Y-73000000D03*
X113200000Y-73000000D03*
X115740000Y-73000000D03*
G04 #@! TD*
D18*
G04 #@! TO.C,Q7*
X108500000Y-93500000D03*
D19*
X108500000Y-92230000D03*
X108500000Y-90960000D03*
G04 #@! TD*
D11*
G04 #@! TO.C,TP1*
X51500000Y-93500000D03*
G04 #@! TD*
G04 #@! TO.C,TP4*
X134000000Y-58500000D03*
G04 #@! TD*
D18*
G04 #@! TO.C,Q5*
X112140000Y-83730000D03*
D19*
X112140000Y-85000000D03*
X112140000Y-86270000D03*
G04 #@! TD*
D22*
G04 #@! TO.C,U1*
X32880000Y-27830000D03*
X32880000Y-30370000D03*
X32880000Y-32910000D03*
X32880000Y-35450000D03*
X32880000Y-60850000D03*
X48120000Y-30370000D03*
X32880000Y-37990000D03*
X32880000Y-40530000D03*
X32880000Y-43070000D03*
X32880000Y-45610000D03*
X32880000Y-48150000D03*
X32880000Y-50690000D03*
X32880000Y-53230000D03*
X32880000Y-55770000D03*
X32880000Y-58310000D03*
X48120000Y-58310000D03*
X48120000Y-55770000D03*
X48120000Y-53230000D03*
X48120000Y-50690000D03*
X48120000Y-48150000D03*
X48120000Y-45610000D03*
X48120000Y-43070000D03*
X48120000Y-40530000D03*
X48120000Y-37990000D03*
X48120000Y-35450000D03*
X48120000Y-32910000D03*
X32880000Y-63390000D03*
X32880000Y-65930000D03*
X32880000Y-68470000D03*
X32880000Y-71010000D03*
X32880000Y-73550000D03*
X32880000Y-76090000D03*
X32880000Y-78630000D03*
X32880000Y-81170000D03*
X32880000Y-83710000D03*
X48120000Y-83710000D03*
X48120000Y-81170000D03*
X48120000Y-78630000D03*
X48120000Y-76090000D03*
X48120000Y-73550000D03*
X48120000Y-71010000D03*
X48120000Y-68470000D03*
X48120000Y-65930000D03*
X48120000Y-63390000D03*
X32880000Y-25290000D03*
X48120000Y-60850000D03*
X48120000Y-27830000D03*
X48120000Y-25290000D03*
G04 #@! TD*
D23*
G04 #@! TO.C,Q8*
X100500000Y-107000000D03*
D24*
X100500000Y-104460000D03*
G04 #@! TD*
D20*
G04 #@! TO.C,U2*
X39960000Y-103000000D03*
D21*
X42500000Y-103000000D03*
X45040000Y-103000000D03*
G04 #@! TD*
D13*
G04 #@! TO.C,J1_MotorEncoder1*
X90500000Y-60040000D03*
D14*
X90500000Y-57500000D03*
X90500000Y-54960000D03*
X90500000Y-52420000D03*
X90500000Y-49880000D03*
X90500000Y-47340000D03*
G04 #@! TD*
D12*
G04 #@! TO.C,H3*
X59000000Y-94500000D03*
G04 #@! TD*
D11*
G04 #@! TO.C,TP6*
X100500000Y-76500000D03*
G04 #@! TD*
D12*
G04 #@! TO.C,H5*
X108000000Y-65000000D03*
G04 #@! TD*
D18*
G04 #@! TO.C,Q1*
X108000000Y-30960000D03*
D19*
X108000000Y-32230000D03*
X108000000Y-33500000D03*
G04 #@! TD*
D25*
G04 #@! TO.C,7.4_LiPo1*
X32500000Y-91500000D03*
D26*
X32500000Y-93500000D03*
G04 #@! TD*
D11*
G04 #@! TO.C,TP2*
X51500000Y-97000000D03*
G04 #@! TD*
D12*
G04 #@! TO.C,H2*
X84000000Y-35500000D03*
G04 #@! TD*
D23*
G04 #@! TO.C,Q4*
X127898026Y-46398026D03*
D27*
X126101974Y-44601974D03*
G04 #@! TD*
D23*
G04 #@! TO.C,Q2*
X100500000Y-23000000D03*
D28*
X100500000Y-25540000D03*
G04 #@! TD*
D13*
G04 #@! TO.C,J1*
X54400000Y-47420000D03*
D14*
X54400000Y-49960000D03*
X54400000Y-52500000D03*
X54400000Y-55040000D03*
X54400000Y-57580000D03*
X54400000Y-60120000D03*
X54400000Y-62660000D03*
X54400000Y-65200000D03*
G04 #@! TD*
D13*
G04 #@! TO.C,J4*
X97960000Y-57125000D03*
D14*
X100500000Y-57125000D03*
X103040000Y-57125000D03*
X105580000Y-57125000D03*
X108120000Y-57125000D03*
X110660000Y-57125000D03*
X113200000Y-57125000D03*
X115740000Y-57125000D03*
G04 #@! TD*
D23*
G04 #@! TO.C,Q6*
X127898026Y-82703948D03*
D29*
X126101974Y-84500000D03*
G04 #@! TD*
%LPD*%
M02*
