G04 #@! TF.GenerationSoftware,KiCad,Pcbnew,9.0.4*
G04 #@! TF.CreationDate,2026-02-05T15:32:58-05:00*
G04 #@! TF.ProjectId,micromouse-pcb,6d696372-6f6d-46f7-9573-652d7063622e,rev?*
G04 #@! TF.SameCoordinates,Original*
G04 #@! TF.FileFunction,Soldermask,Top*
G04 #@! TF.FilePolarity,Negative*
%FSLAX46Y46*%
G04 Gerber Fmt 4.6, Leading zero omitted, Abs format (unit mm)*
G04 Created by KiCad (PCBNEW 9.0.4) date 2026-02-05 15:32:58*
%MOMM*%
%LPD*%
G01*
G04 APERTURE LIST*
G04 Aperture macros list*
%AMRoundRect*
0 Rectangle with rounded corners*
0 $1 Rounding radius*
0 $2 $3 $4 $5 $6 $7 $8 $9 X,Y pos of 4 corners*
0 Add a 4 corners polygon primitive as box body*
4,1,4,$2,$3,$4,$5,$6,$7,$8,$9,$2,$3,0*
0 Add four circle primitives for the rounded corners*
1,1,$1+$1,$2,$3*
1,1,$1+$1,$4,$5*
1,1,$1+$1,$6,$7*
1,1,$1+$1,$8,$9*
0 Add four rect primitives between the rounded corners*
20,1,$1+$1,$2,$3,$4,$5,0*
20,1,$1+$1,$4,$5,$6,$7,0*
20,1,$1+$1,$6,$7,$8,$9,0*
20,1,$1+$1,$8,$9,$2,$3,0*%
G04 Aperture macros list end*
%ADD10C,1.000000*%
%ADD11C,2.000000*%
%ADD12C,4.300000*%
%ADD13RoundRect,0.250000X-0.625000X0.400000X-0.625000X-0.400000X0.625000X-0.400000X0.625000X0.400000X0*%
%ADD14R,1.700000X1.700000*%
%ADD15C,1.700000*%
%ADD16RoundRect,0.250000X0.400000X0.625000X-0.400000X0.625000X-0.400000X-0.625000X0.400000X-0.625000X0*%
%ADD17RoundRect,0.250001X0.624999X-0.462499X0.624999X0.462499X-0.624999X0.462499X-0.624999X-0.462499X0*%
%ADD18O,3.500000X2.200000*%
%ADD19R,2.500000X1.500000*%
%ADD20O,2.500000X1.500000*%
%ADD21RoundRect,0.250000X-0.650000X0.412500X-0.650000X-0.412500X0.650000X-0.412500X0.650000X0.412500X0*%
%ADD22RoundRect,0.250000X0.412500X0.650000X-0.412500X0.650000X-0.412500X-0.650000X0.412500X-0.650000X0*%
%ADD23R,1.500000X1.050000*%
%ADD24O,1.500000X1.050000*%
%ADD25R,1.905000X2.000000*%
%ADD26O,1.905000X2.000000*%
%ADD27RoundRect,0.250000X-0.400000X-0.625000X0.400000X-0.625000X0.400000X0.625000X-0.400000X0.625000X0*%
%ADD28C,1.512000*%
%ADD29C,1.764000*%
%ADD30RoundRect,0.102000X-0.780000X0.780000X-0.780000X-0.780000X0.780000X-0.780000X0.780000X0.780000X0*%
%ADD31RoundRect,0.250000X0.625000X-0.400000X0.625000X0.400000X-0.625000X0.400000X-0.625000X-0.400000X0*%
%ADD32RoundRect,0.250001X0.462499X0.624999X-0.462499X0.624999X-0.462499X-0.624999X0.462499X-0.624999X0*%
%ADD33RoundRect,0.250000X-0.625000X0.350000X-0.625000X-0.350000X0.625000X-0.350000X0.625000X0.350000X0*%
%ADD34O,1.750000X1.200000*%
%ADD35RoundRect,0.102000X-1.103087X0.000000X0.000000X-1.103087X1.103087X0.000000X0.000000X1.103087X0*%
%ADD36RoundRect,0.250000X0.650000X-0.412500X0.650000X0.412500X-0.650000X0.412500X-0.650000X-0.412500X0*%
%ADD37RoundRect,0.102000X0.780000X-0.780000X0.780000X0.780000X-0.780000X0.780000X-0.780000X-0.780000X0*%
%ADD38RoundRect,0.102000X0.000000X-1.103087X1.103087X0.000000X0.000000X1.103087X-1.103087X0.000000X0*%
G04 APERTURE END LIST*
D10*
G04 #@! TO.C,D2*
X122601975Y-48601974D02*
G75*
G02*
X121601973Y-48601974I-500001J0D01*
G01*
X121601973Y-48601974D02*
G75*
G02*
X122601975Y-48601974I500001J0D01*
G01*
X124398025Y-50398026D02*
G75*
G02*
X123398027Y-50398026I-499999J0D01*
G01*
X123398027Y-50398026D02*
G75*
G02*
X124398025Y-50398026I499999J0D01*
G01*
G04 #@! TO.C,D1*
X95500000Y-23000000D02*
G75*
G02*
X94500000Y-23000000I-500000J0D01*
G01*
X94500000Y-23000000D02*
G75*
G02*
X95500000Y-23000000I500000J0D01*
G01*
X95500000Y-25540000D02*
G75*
G02*
X94500000Y-25540000I-500000J0D01*
G01*
X94500000Y-25540000D02*
G75*
G02*
X95500000Y-25540000I500000J0D01*
G01*
G04 #@! TO.C,D4*
X95500000Y-104460000D02*
G75*
G02*
X94500000Y-104460000I-500000J0D01*
G01*
X94500000Y-104460000D02*
G75*
G02*
X95500000Y-104460000I500000J0D01*
G01*
X95500000Y-107000000D02*
G75*
G02*
X94500000Y-107000000I-500000J0D01*
G01*
X94500000Y-107000000D02*
G75*
G02*
X95500000Y-107000000I500000J0D01*
G01*
G04 #@! TO.C,D3*
X122601975Y-80796052D02*
G75*
G02*
X121601973Y-80796052I-500001J0D01*
G01*
X121601973Y-80796052D02*
G75*
G02*
X122601975Y-80796052I500001J0D01*
G01*
X124398025Y-79000000D02*
G75*
G02*
X123398027Y-79000000I-499999J0D01*
G01*
X123398027Y-79000000D02*
G75*
G02*
X124398025Y-79000000I499999J0D01*
G01*
G04 #@! TD*
D11*
G04 #@! TO.C,TP3*
X134000000Y-55000000D03*
G04 #@! TD*
D12*
G04 #@! TO.C,H6*
X147500000Y-65000000D03*
G04 #@! TD*
D13*
G04 #@! TO.C,R9*
X114000000Y-41500000D03*
X114000000Y-44600000D03*
G04 #@! TD*
D14*
G04 #@! TO.C,J2_MotorEncoder1*
X90500000Y-84120000D03*
D15*
X90500000Y-81580000D03*
X90500000Y-79040000D03*
X90500000Y-76500000D03*
X90500000Y-73960000D03*
X90500000Y-71420000D03*
G04 #@! TD*
D12*
G04 #@! TO.C,H4*
X84000000Y-94500000D03*
G04 #@! TD*
D16*
G04 #@! TO.C,R1*
X48050000Y-90000000D03*
X44950000Y-90000000D03*
G04 #@! TD*
D17*
G04 #@! TO.C,D6*
X51000000Y-109475000D03*
X51000000Y-106500000D03*
G04 #@! TD*
D18*
G04 #@! TO.C,SW2*
X30000000Y-100000000D03*
X30000000Y-108200000D03*
D19*
X30000000Y-102100000D03*
D20*
X30000000Y-104100000D03*
X30000000Y-106100000D03*
G04 #@! TD*
D21*
G04 #@! TO.C,C1*
X40040000Y-106487500D03*
X40040000Y-109612500D03*
G04 #@! TD*
D12*
G04 #@! TO.C,H1*
X59000000Y-35500000D03*
G04 #@! TD*
D16*
G04 #@! TO.C,R8*
X103050000Y-51000000D03*
X99950000Y-51000000D03*
G04 #@! TD*
D22*
G04 #@! TO.C,C3*
X41562500Y-90000000D03*
X38437500Y-90000000D03*
G04 #@! TD*
D11*
G04 #@! TO.C,TP5*
X103500000Y-76500000D03*
G04 #@! TD*
D16*
G04 #@! TO.C,R4*
X103000000Y-39000000D03*
X99900000Y-39000000D03*
G04 #@! TD*
D23*
G04 #@! TO.C,Q3*
X108500000Y-49500000D03*
D24*
X108500000Y-48230000D03*
X108500000Y-46960000D03*
G04 #@! TD*
D25*
G04 #@! TO.C,Q9*
X39920000Y-96500000D03*
D26*
X42460000Y-96500000D03*
X45000000Y-96500000D03*
G04 #@! TD*
D14*
G04 #@! TO.C,J3*
X97960000Y-73000000D03*
D15*
X100500000Y-73000000D03*
X103040000Y-73000000D03*
X105580000Y-73000000D03*
X108120000Y-73000000D03*
X110660000Y-73000000D03*
X113200000Y-73000000D03*
X115740000Y-73000000D03*
G04 #@! TD*
D13*
G04 #@! TO.C,R6*
X114000000Y-47900000D03*
X114000000Y-51000000D03*
G04 #@! TD*
D23*
G04 #@! TO.C,Q7*
X108500000Y-93500000D03*
D24*
X108500000Y-92230000D03*
X108500000Y-90960000D03*
G04 #@! TD*
D11*
G04 #@! TO.C,TP1*
X51500000Y-93500000D03*
G04 #@! TD*
D13*
G04 #@! TO.C,R16*
X113500000Y-92400000D03*
X113500000Y-95500000D03*
G04 #@! TD*
D11*
G04 #@! TO.C,TP4*
X134000000Y-58500000D03*
G04 #@! TD*
D23*
G04 #@! TO.C,Q5*
X112140000Y-83730000D03*
D24*
X112140000Y-85000000D03*
X112140000Y-86270000D03*
G04 #@! TD*
D27*
G04 #@! TO.C,R15*
X99950000Y-92000000D03*
X103050000Y-92000000D03*
G04 #@! TD*
D28*
G04 #@! TO.C,U1*
X32880000Y-27830000D03*
X32880000Y-30370000D03*
X32880000Y-32910000D03*
X32880000Y-35450000D03*
X32880000Y-60850000D03*
X48120000Y-30370000D03*
X32880000Y-37990000D03*
X32880000Y-40530000D03*
X32880000Y-43070000D03*
X32880000Y-45610000D03*
X32880000Y-48150000D03*
X32880000Y-50690000D03*
X32880000Y-53230000D03*
X32880000Y-55770000D03*
X32880000Y-58310000D03*
X48120000Y-58310000D03*
X48120000Y-55770000D03*
X48120000Y-53230000D03*
X48120000Y-50690000D03*
X48120000Y-48150000D03*
X48120000Y-45610000D03*
X48120000Y-43070000D03*
X48120000Y-40530000D03*
X48120000Y-37990000D03*
X48120000Y-35450000D03*
X48120000Y-32910000D03*
X32880000Y-63390000D03*
X32880000Y-65930000D03*
X32880000Y-68470000D03*
X32880000Y-71010000D03*
X32880000Y-73550000D03*
X32880000Y-76090000D03*
X32880000Y-78630000D03*
X32880000Y-81170000D03*
X32880000Y-83710000D03*
X48120000Y-83710000D03*
X48120000Y-81170000D03*
X48120000Y-78630000D03*
X48120000Y-76090000D03*
X48120000Y-73550000D03*
X48120000Y-71010000D03*
X48120000Y-68470000D03*
X48120000Y-65930000D03*
X48120000Y-63390000D03*
X32880000Y-25290000D03*
X48120000Y-60850000D03*
X48120000Y-27830000D03*
X48120000Y-25290000D03*
G04 #@! TD*
D29*
G04 #@! TO.C,Q8*
X100500000Y-107000000D03*
D30*
X100500000Y-104460000D03*
G04 #@! TD*
D25*
G04 #@! TO.C,U2*
X39960000Y-103000000D03*
D26*
X42500000Y-103000000D03*
X45040000Y-103000000D03*
G04 #@! TD*
D27*
G04 #@! TO.C,R5*
X99900000Y-30500000D03*
X103000000Y-30500000D03*
G04 #@! TD*
D14*
G04 #@! TO.C,J1_MotorEncoder1*
X90500000Y-60040000D03*
D15*
X90500000Y-57500000D03*
X90500000Y-54960000D03*
X90500000Y-52420000D03*
X90500000Y-49880000D03*
X90500000Y-47340000D03*
G04 #@! TD*
D12*
G04 #@! TO.C,H3*
X59000000Y-94500000D03*
G04 #@! TD*
D11*
G04 #@! TO.C,TP6*
X100500000Y-76500000D03*
G04 #@! TD*
D16*
G04 #@! TO.C,R12*
X107500000Y-82000000D03*
X104400000Y-82000000D03*
G04 #@! TD*
D31*
G04 #@! TO.C,R19*
X59000000Y-59050000D03*
X59000000Y-55950000D03*
G04 #@! TD*
D32*
G04 #@! TO.C,D5*
X40487500Y-21000000D03*
X37512500Y-21000000D03*
G04 #@! TD*
D31*
G04 #@! TO.C,R14*
X103500000Y-99500000D03*
X103500000Y-96400000D03*
G04 #@! TD*
D12*
G04 #@! TO.C,H5*
X108000000Y-65000000D03*
G04 #@! TD*
D13*
G04 #@! TO.C,R20*
X59000000Y-50000000D03*
X59000000Y-53100000D03*
G04 #@! TD*
D23*
G04 #@! TO.C,Q1*
X108000000Y-30960000D03*
D24*
X108000000Y-32230000D03*
X108000000Y-33500000D03*
G04 #@! TD*
D16*
G04 #@! TO.C,R21*
X34550000Y-21000000D03*
X31450000Y-21000000D03*
G04 #@! TD*
G04 #@! TO.C,R10*
X114500000Y-79500000D03*
X111400000Y-79500000D03*
G04 #@! TD*
D31*
G04 #@! TO.C,R13*
X118000000Y-88000000D03*
X118000000Y-84900000D03*
G04 #@! TD*
D33*
G04 #@! TO.C,7.4_LiPo1*
X32500000Y-91500000D03*
D34*
X32500000Y-93500000D03*
G04 #@! TD*
D11*
G04 #@! TO.C,TP2*
X51500000Y-97000000D03*
G04 #@! TD*
D12*
G04 #@! TO.C,H2*
X84000000Y-35500000D03*
G04 #@! TD*
D13*
G04 #@! TO.C,R18*
X35500000Y-106450000D03*
X35500000Y-109550000D03*
G04 #@! TD*
D27*
G04 #@! TO.C,R3*
X99900000Y-34500000D03*
X103000000Y-34500000D03*
G04 #@! TD*
D29*
G04 #@! TO.C,Q4*
X127898026Y-46398026D03*
D35*
X126101974Y-44601974D03*
G04 #@! TD*
D36*
G04 #@! TO.C,C2*
X45000000Y-109550000D03*
X45000000Y-106425000D03*
G04 #@! TD*
D29*
G04 #@! TO.C,Q2*
X100500000Y-23000000D03*
D37*
X100500000Y-25540000D03*
G04 #@! TD*
D27*
G04 #@! TO.C,R7*
X99950000Y-46500000D03*
X103050000Y-46500000D03*
G04 #@! TD*
D14*
G04 #@! TO.C,J1*
X54400000Y-47420000D03*
D15*
X54400000Y-49960000D03*
X54400000Y-52500000D03*
X54400000Y-55040000D03*
X54400000Y-57580000D03*
X54400000Y-60120000D03*
X54400000Y-62660000D03*
X54400000Y-65200000D03*
G04 #@! TD*
D14*
G04 #@! TO.C,J4*
X97960000Y-57125000D03*
D15*
X100500000Y-57125000D03*
X103040000Y-57125000D03*
X105580000Y-57125000D03*
X108120000Y-57125000D03*
X110660000Y-57125000D03*
X113200000Y-57125000D03*
X115740000Y-57125000D03*
G04 #@! TD*
D13*
G04 #@! TO.C,R2*
X114500000Y-30400000D03*
X114500000Y-33500000D03*
G04 #@! TD*
G04 #@! TO.C,R1_2*
X51000000Y-100400000D03*
X51000000Y-103500000D03*
G04 #@! TD*
D27*
G04 #@! TO.C,R11*
X104400000Y-85500000D03*
X107500000Y-85500000D03*
G04 #@! TD*
D29*
G04 #@! TO.C,Q6*
X127898026Y-82703948D03*
D38*
X126101974Y-84500000D03*
G04 #@! TD*
D31*
G04 #@! TO.C,R17*
X99000000Y-99500000D03*
X99000000Y-96400000D03*
G04 #@! TD*
M02*
