M48
; DRILL file {KiCad 9.0.4} date 2026-02-05T15:32:58-0500
; FORMAT={-:-/ absolute / metric / decimal}
; #@! TF.CreationDate,2026-02-05T15:32:58-05:00
; #@! TF.GenerationSoftware,Kicad,Pcbnew,9.0.4
; #@! TF.FileFunction,Plated,1,4,PTH
FMAT,2
METRIC
; #@! TA.AperFunction,Plated,PTH,ViaDrill
T1C0.400
; #@! TA.AperFunction,Plated,PTH,ComponentDrill
T2C0.750
; #@! TA.AperFunction,Plated,PTH,ComponentDrill
T3C0.800
; #@! TA.AperFunction,Plated,PTH,ComponentDrill
T4C0.900
; #@! TA.AperFunction,Plated,PTH,ComponentDrill
T5C1.000
; #@! TA.AperFunction,Plated,PTH,ComponentDrill
T6C1.040
; #@! TA.AperFunction,Plated,PTH,ComponentDrill
T7C1.100
; #@! TA.AperFunction,Plated,PTH,ComponentDrill
T8C1.500
%
G90
G05
T1
X38.438Y-90.0
X40.04Y-109.612
X40.487Y-21.0
X45.0Y-106.425
X45.0Y-109.55
X51.0Y-100.4
X51.0Y-109.475
X59.0Y-50.0
X59.0Y-59.05
X69.0Y-64.0
X69.5Y-63.0
X73.0Y-67.0
X74.0Y-66.0
X99.0Y-96.4
X99.9Y-39.0
X99.95Y-51.0
X103.0Y-30.5
X104.4Y-82.0
X113.5Y-95.5
X114.0Y-44.6
X118.0Y-84.9
T2
X32.5Y-91.5
X32.5Y-93.5
X108.0Y-30.96
X108.0Y-32.23
X108.0Y-33.5
X108.5Y-46.96
X108.5Y-48.23
X108.5Y-49.5
X108.5Y-90.96
X108.5Y-92.23
X108.5Y-93.5
X112.14Y-83.73
X112.14Y-85.0
X112.14Y-86.27
T3
X32.88Y-25.29
X32.88Y-27.83
X32.88Y-30.37
X32.88Y-32.91
X32.88Y-35.45
X32.88Y-37.99
X32.88Y-40.53
X32.88Y-43.07
X32.88Y-45.61
X32.88Y-48.15
X32.88Y-50.69
X32.88Y-53.23
X32.88Y-55.77
X32.88Y-58.31
X32.88Y-60.85
X32.88Y-63.39
X32.88Y-65.93
X32.88Y-68.47
X32.88Y-71.01
X32.88Y-73.55
X32.88Y-76.09
X32.88Y-78.63
X32.88Y-81.17
X32.88Y-83.71
X48.12Y-25.29
X48.12Y-27.83
X48.12Y-30.37
X48.12Y-32.91
X48.12Y-35.45
X48.12Y-37.99
X48.12Y-40.53
X48.12Y-43.07
X48.12Y-45.61
X48.12Y-48.15
X48.12Y-50.69
X48.12Y-53.23
X48.12Y-55.77
X48.12Y-58.31
X48.12Y-60.85
X48.12Y-63.39
X48.12Y-65.93
X48.12Y-68.47
X48.12Y-71.01
X48.12Y-73.55
X48.12Y-76.09
X48.12Y-78.63
X48.12Y-81.17
X48.12Y-83.71
T4
X30.0Y-102.1
X30.0Y-104.1
X30.0Y-106.1
T5
X51.5Y-93.5
X51.5Y-97.0
X54.4Y-47.42
X54.4Y-49.96
X54.4Y-52.5
X54.4Y-55.04
X54.4Y-57.58
X54.4Y-60.12
X54.4Y-62.66
X54.4Y-65.2
X90.5Y-47.34
X90.5Y-49.88
X90.5Y-52.42
X90.5Y-54.96
X90.5Y-57.5
X90.5Y-60.04
X90.5Y-71.42
X90.5Y-73.96
X90.5Y-76.5
X90.5Y-79.04
X90.5Y-81.58
X90.5Y-84.12
X95.0Y-23.0
X95.0Y-25.54
X95.0Y-104.46
X95.0Y-107.0
X97.96Y-57.125
X97.96Y-73.0
X100.5Y-57.125
X100.5Y-73.0
X100.5Y-76.5
X103.04Y-57.125
X103.04Y-73.0
X103.5Y-76.5
X105.58Y-57.125
X105.58Y-73.0
X108.12Y-57.125
X108.12Y-73.0
X110.66Y-57.125
X110.66Y-73.0
X113.2Y-57.125
X113.2Y-73.0
X115.74Y-57.125
X115.74Y-73.0
X122.102Y-48.602
X122.102Y-80.796
X123.898Y-50.398
X123.898Y-79.0
X134.0Y-55.0
X134.0Y-58.5
T6
X100.5Y-23.0
X100.5Y-25.54
X100.5Y-104.46
X100.5Y-107.0
X126.102Y-44.602
X126.102Y-84.5
X127.898Y-46.398
X127.898Y-82.704
T7
X39.92Y-96.5
X39.96Y-103.0
X42.46Y-96.5
X42.5Y-103.0
X45.0Y-96.5
X45.04Y-103.0
T8
X30.0Y-100.0
X30.0Y-108.2
M30
