G04 #@! TF.GenerationSoftware,KiCad,Pcbnew,9.0.4*
G04 #@! TF.CreationDate,2026-02-05T15:32:58-05:00*
G04 #@! TF.ProjectId,micromouse-pcb,6d696372-6f6d-46f7-9573-652d7063622e,rev?*
G04 #@! TF.SameCoordinates,Original*
G04 #@! TF.FileFunction,Copper,L1,Top*
G04 #@! TF.FilePolarity,Positive*
%FSLAX46Y46*%
G04 Gerber Fmt 4.6, Leading zero omitted, Abs format (unit mm)*
G04 Created by KiCad (PCBNEW 9.0.4) date 2026-02-05 15:32:58*
%MOMM*%
%LPD*%
G01*
G04 APERTURE LIST*
G04 Aperture macros list*
%AMRoundRect*
0 Rectangle with rounded corners*
0 $1 Rounding radius*
0 $2 $3 $4 $5 $6 $7 $8 $9 X,Y pos of 4 corners*
0 Add a 4 corners polygon primitive as box body*
4,1,4,$2,$3,$4,$5,$6,$7,$8,$9,$2,$3,0*
0 Add four circle primitives for the rounded corners*
1,1,$1+$1,$2,$3*
1,1,$1+$1,$4,$5*
1,1,$1+$1,$6,$7*
1,1,$1+$1,$8,$9*
0 Add four rect primitives between the rounded corners*
20,1,$1+$1,$2,$3,$4,$5,0*
20,1,$1+$1,$4,$5,$6,$7,0*
20,1,$1+$1,$6,$7,$8,$9,0*
20,1,$1+$1,$8,$9,$2,$3,0*%
%AMRotRect*
0 Rectangle, with rotation*
0 The origin of the aperture is its center*
0 $1 length*
0 $2 width*
0 $3 Rotation angle, in degrees counterclockwise*
0 Add horizontal line*
21,1,$1,$2,0,0,$3*%
%AMFreePoly0*
4,1,135,0.625023,2.400499,0.758044,2.394498,0.882044,2.383498,0.882076,2.383494,1.005096,2.364491,1.128096,2.340491,1.249124,2.309484,1.368172,2.272469,1.485201,2.229458,1.599220,2.179449,1.711220,2.124449,1.820266,2.063423,1.925266,1.997423,2.027307,1.925394,2.126329,1.848377,2.220329,1.766377,2.309347,1.680360,2.394382,1.589322,2.475398,1.493302,2.550399,1.394302,
2.620415,1.290279,2.684441,1.184236,2.743441,1.074236,2.796452,0.961212,2.844461,0.846193,2.844472,0.846164,2.885480,0.728140,2.920486,0.608117,2.949486,0.487117,2.949492,0.487088,2.971496,0.364064,2.987496,0.241064,2.997500,0.116013,3.000500,-0.000013,2.997500,-0.116013,2.987496,-0.241064,2.971496,-0.364064,2.949492,-0.487088,2.949486,-0.487117,2.920480,-0.608140,
2.885480,-0.728140,2.844472,-0.846164,2.844461,-0.846193,2.796452,-0.961212,2.743441,-1.074236,2.684441,-1.184236,2.620415,-1.290279,2.550399,-1.394302,2.475398,-1.493302,2.394382,-1.589322,2.309347,-1.680360,2.220329,-1.766377,2.126329,-1.848377,2.027307,-1.925394,1.925266,-1.997423,1.820243,-2.063436,1.711220,-2.124449,1.599200,-2.179458,1.485201,-2.229458,1.368172,-2.272469,
1.249124,-2.309484,1.128096,-2.340491,1.005096,-2.364491,0.882076,-2.383494,0.882044,-2.383498,0.758044,-2.394498,0.625000,-2.400500,0.525000,-2.400500,0.524646,-2.400354,0.524500,-2.400000,0.524520,-2.399949,0.497974,-2.399499,0.439966,-2.396499,0.381959,-2.392498,0.322940,-2.387497,0.264923,-2.380494,0.207915,-2.371493,0.149905,-2.361491,0.092905,-2.350491,0.035888,-2.337487,
0.035881,-2.337486,-0.021137,-2.323481,-0.077145,-2.307478,-0.133153,-2.290477,-0.189171,-2.272470,-0.244181,-2.252466,-0.298189,-2.231463,-0.352203,-2.209457,-0.406217,-2.185451,-0.458230,-2.160444,-0.510237,-2.133440,-0.562247,-2.105435,-0.613247,-2.076435,-0.662270,-2.046421,-0.712277,-2.014416,-0.760289,-1.982409,-0.808308,-1.948395,-0.900318,-1.876386,-0.945332,-1.839373,-1.000333,-1.790373,
-1.000499,-1.790029,-1.000500,-1.790000,-1.000500,1.790000,-1.000355,1.790354,-0.945318,1.839386,-0.900308,1.876394,-0.808289,1.948408,-0.760289,1.982409,-0.712270,2.014421,-0.662261,2.046426,-0.613247,2.076435,-0.562237,2.105439,-0.510230,2.133444,-0.458217,2.160451,-0.406202,2.185457,-0.352189,2.209463,-0.298181,2.231466,-0.244171,2.252470,-0.189153,2.272476,-0.133145,2.290478,
-0.077138,2.307481,-0.021119,2.323486,0.035881,2.337486,0.035888,2.337487,0.092905,2.350491,0.149915,2.361493,0.207923,2.371494,0.264923,2.380494,0.322958,2.387498,0.381966,2.392499,0.439974,2.396499,0.497992,2.399500,0.556992,2.400500,0.625000,2.400500,0.625023,2.400499,0.625023,2.400499,$1*%
%AMFreePoly1*
4,1,134,-0.497992,2.399500,-0.439966,2.396499,-0.381959,2.392498,-0.322940,2.387497,-0.264923,2.380494,-0.207915,2.371493,-0.149905,2.361491,-0.092905,2.350491,-0.035888,2.337487,-0.035881,2.337486,0.021137,2.323481,0.077145,2.307478,0.133153,2.290477,0.189171,2.272470,0.244181,2.252466,0.298189,2.231463,0.352203,2.209457,0.406217,2.185451,0.458230,2.160444,0.510237,2.133440,
0.562247,2.105435,0.613247,2.076435,0.662270,2.046421,0.712277,2.014416,0.760289,1.982409,0.808308,1.948395,0.900318,1.876386,0.945332,1.839373,1.000333,1.790373,1.000499,1.790029,1.000500,1.790000,1.000500,-1.790000,1.000355,-1.790354,0.945318,-1.839386,0.900308,-1.876394,0.808289,-1.948408,0.760289,-1.982409,0.712270,-2.014421,0.662261,-2.046426,0.613247,-2.076435,
0.562237,-2.105439,0.510230,-2.133444,0.458217,-2.160451,0.406202,-2.185457,0.352189,-2.209463,0.298181,-2.231466,0.244171,-2.252470,0.189153,-2.272476,0.133145,-2.290478,0.077138,-2.307481,0.021119,-2.323486,-0.035881,-2.337486,-0.035888,-2.337487,-0.092905,-2.350491,-0.149915,-2.361493,-0.207923,-2.371494,-0.264923,-2.380494,-0.322958,-2.387498,-0.381966,-2.392499,-0.439974,-2.396499,
-0.497992,-2.399500,-0.524520,-2.399949,-0.524500,-2.400000,-0.524646,-2.400354,-0.525000,-2.400500,-0.625000,-2.400500,-0.758044,-2.394498,-0.882044,-2.383498,-0.882076,-2.383494,-1.005096,-2.364491,-1.128096,-2.340491,-1.249124,-2.309484,-1.368172,-2.272469,-1.485201,-2.229458,-1.599220,-2.179449,-1.711220,-2.124449,-1.820266,-2.063423,-1.925266,-1.997423,-2.027307,-1.925394,-2.126329,-1.848377,
-2.220329,-1.766377,-2.309347,-1.680360,-2.394382,-1.589322,-2.475398,-1.493302,-2.550399,-1.394302,-2.620415,-1.290279,-2.684441,-1.184236,-2.743441,-1.074236,-2.796452,-0.961212,-2.844461,-0.846193,-2.844472,-0.846164,-2.885480,-0.728140,-2.920486,-0.608117,-2.949486,-0.487117,-2.949492,-0.487088,-2.971496,-0.364064,-2.987496,-0.241064,-2.997500,-0.116013,-3.000500,0.000013,-2.997500,0.116013,
-2.987496,0.241064,-2.971496,0.364064,-2.949492,0.487088,-2.949486,0.487117,-2.920480,0.608140,-2.885480,0.728140,-2.844472,0.846164,-2.844461,0.846193,-2.796452,0.961212,-2.743441,1.074236,-2.684441,1.184236,-2.620415,1.290279,-2.550399,1.394302,-2.475398,1.493302,-2.394382,1.589322,-2.309347,1.680360,-2.220329,1.766377,-2.126329,1.848377,-2.027307,1.925394,-1.925266,1.997423,
-1.820243,2.063436,-1.711220,2.124449,-1.599200,2.179458,-1.485201,2.229458,-1.368172,2.272469,-1.249124,2.309484,-1.128096,2.340491,-1.005096,2.364491,-0.882076,2.383494,-0.882044,2.383498,-0.758044,2.394498,-0.625000,2.400500,-0.556992,2.400500,-0.497992,2.399500,-0.497992,2.399500,$1*%
G04 Aperture macros list end*
G04 #@! TA.AperFunction,ComponentPad*
%ADD10C,2.000000*%
G04 #@! TD*
G04 #@! TA.AperFunction,SMDPad,CuDef*
%ADD11RoundRect,0.250000X-0.625000X0.400000X-0.625000X-0.400000X0.625000X-0.400000X0.625000X0.400000X0*%
G04 #@! TD*
G04 #@! TA.AperFunction,ComponentPad*
%ADD12R,1.700000X1.700000*%
G04 #@! TD*
G04 #@! TA.AperFunction,ComponentPad*
%ADD13C,1.700000*%
G04 #@! TD*
G04 #@! TA.AperFunction,SMDPad,CuDef*
%ADD14RoundRect,0.250000X0.400000X0.625000X-0.400000X0.625000X-0.400000X-0.625000X0.400000X-0.625000X0*%
G04 #@! TD*
G04 #@! TA.AperFunction,ComponentPad*
%ADD15FreePoly0,315.000000*%
G04 #@! TD*
G04 #@! TA.AperFunction,ComponentPad*
%ADD16FreePoly1,315.000000*%
G04 #@! TD*
G04 #@! TA.AperFunction,SMDPad,CuDef*
%ADD17RoundRect,0.250001X0.624999X-0.462499X0.624999X0.462499X-0.624999X0.462499X-0.624999X-0.462499X0*%
G04 #@! TD*
G04 #@! TA.AperFunction,ComponentPad*
%ADD18O,3.500000X2.200000*%
G04 #@! TD*
G04 #@! TA.AperFunction,ComponentPad*
%ADD19R,2.500000X1.500000*%
G04 #@! TD*
G04 #@! TA.AperFunction,ComponentPad*
%ADD20O,2.500000X1.500000*%
G04 #@! TD*
G04 #@! TA.AperFunction,SMDPad,CuDef*
%ADD21RoundRect,0.250000X-0.650000X0.412500X-0.650000X-0.412500X0.650000X-0.412500X0.650000X0.412500X0*%
G04 #@! TD*
G04 #@! TA.AperFunction,ComponentPad*
%ADD22FreePoly0,270.000000*%
G04 #@! TD*
G04 #@! TA.AperFunction,ComponentPad*
%ADD23FreePoly1,270.000000*%
G04 #@! TD*
G04 #@! TA.AperFunction,SMDPad,CuDef*
%ADD24RoundRect,0.250000X0.412500X0.650000X-0.412500X0.650000X-0.412500X-0.650000X0.412500X-0.650000X0*%
G04 #@! TD*
G04 #@! TA.AperFunction,ComponentPad*
%ADD25R,1.500000X1.050000*%
G04 #@! TD*
G04 #@! TA.AperFunction,ComponentPad*
%ADD26O,1.500000X1.050000*%
G04 #@! TD*
G04 #@! TA.AperFunction,ComponentPad*
%ADD27R,1.905000X2.000000*%
G04 #@! TD*
G04 #@! TA.AperFunction,ComponentPad*
%ADD28O,1.905000X2.000000*%
G04 #@! TD*
G04 #@! TA.AperFunction,SMDPad,CuDef*
%ADD29RoundRect,0.250000X-0.400000X-0.625000X0.400000X-0.625000X0.400000X0.625000X-0.400000X0.625000X0*%
G04 #@! TD*
G04 #@! TA.AperFunction,ComponentPad*
%ADD30C,1.308000*%
G04 #@! TD*
G04 #@! TA.AperFunction,ComponentPad*
%ADD31C,1.560000*%
G04 #@! TD*
G04 #@! TA.AperFunction,ComponentPad*
%ADD32R,1.560000X1.560000*%
G04 #@! TD*
G04 #@! TA.AperFunction,SMDPad,CuDef*
%ADD33RoundRect,0.250000X0.625000X-0.400000X0.625000X0.400000X-0.625000X0.400000X-0.625000X-0.400000X0*%
G04 #@! TD*
G04 #@! TA.AperFunction,SMDPad,CuDef*
%ADD34RoundRect,0.250001X0.462499X0.624999X-0.462499X0.624999X-0.462499X-0.624999X0.462499X-0.624999X0*%
G04 #@! TD*
G04 #@! TA.AperFunction,ComponentPad*
%ADD35FreePoly0,90.000000*%
G04 #@! TD*
G04 #@! TA.AperFunction,ComponentPad*
%ADD36FreePoly1,90.000000*%
G04 #@! TD*
G04 #@! TA.AperFunction,ComponentPad*
%ADD37FreePoly0,45.000000*%
G04 #@! TD*
G04 #@! TA.AperFunction,ComponentPad*
%ADD38FreePoly1,45.000000*%
G04 #@! TD*
G04 #@! TA.AperFunction,ComponentPad*
%ADD39RoundRect,0.250000X-0.625000X0.350000X-0.625000X-0.350000X0.625000X-0.350000X0.625000X0.350000X0*%
G04 #@! TD*
G04 #@! TA.AperFunction,ComponentPad*
%ADD40O,1.750000X1.200000*%
G04 #@! TD*
G04 #@! TA.AperFunction,ComponentPad*
%ADD41RotRect,1.560000X1.560000X315.000000*%
G04 #@! TD*
G04 #@! TA.AperFunction,SMDPad,CuDef*
%ADD42RoundRect,0.250000X0.650000X-0.412500X0.650000X0.412500X-0.650000X0.412500X-0.650000X-0.412500X0*%
G04 #@! TD*
G04 #@! TA.AperFunction,ComponentPad*
%ADD43RotRect,1.560000X1.560000X45.000000*%
G04 #@! TD*
G04 #@! TA.AperFunction,ViaPad*
%ADD44C,0.800000*%
G04 #@! TD*
G04 #@! TA.AperFunction,Conductor*
%ADD45C,0.500000*%
G04 #@! TD*
G04 #@! TA.AperFunction,Conductor*
%ADD46C,1.000000*%
G04 #@! TD*
G04 APERTURE END LIST*
D10*
G04 #@! TO.P,TP3,1,1*
G04 #@! TO.N,+3.3V*
X134000000Y-55000000D03*
G04 #@! TD*
D11*
G04 #@! TO.P,R9,1*
G04 #@! TO.N,Receiver 2*
X114000000Y-41500000D03*
G04 #@! TO.P,R9,2*
G04 #@! TO.N,GND*
X114000000Y-44600000D03*
G04 #@! TD*
D12*
G04 #@! TO.P,J2_MotorEncoder1,1,Pin_1*
G04 #@! TO.N,GND*
X90500000Y-84120000D03*
D13*
G04 #@! TO.P,J2_MotorEncoder1,2,Pin_2*
G04 #@! TO.N,ENC_M2_A*
X90500000Y-81580000D03*
G04 #@! TO.P,J2_MotorEncoder1,3,Pin_3*
G04 #@! TO.N,ENC_M2_B*
X90500000Y-79040000D03*
G04 #@! TO.P,J2_MotorEncoder1,4,Pin_4*
G04 #@! TO.N,+3.3V*
X90500000Y-76500000D03*
G04 #@! TO.P,J2_MotorEncoder1,5,Pin_5*
G04 #@! TO.N,POW_M2_A*
X90500000Y-73960000D03*
G04 #@! TO.P,J2_MotorEncoder1,6,Pin_6*
G04 #@! TO.N,POW_M2_B*
X90500000Y-71420000D03*
G04 #@! TD*
D14*
G04 #@! TO.P,R1,1*
G04 #@! TO.N,Net-(7.4_LiPo1-+)*
X48050000Y-90000000D03*
G04 #@! TO.P,R1,2*
G04 #@! TO.N,Net-(Q9-G)*
X44950000Y-90000000D03*
G04 #@! TD*
D15*
G04 #@! TO.P,D2,A*
G04 #@! TO.N,+5V*
X123898026Y-50398026D03*
D16*
G04 #@! TO.P,D2,C*
G04 #@! TO.N,Net-(D2-PadC)*
X122101974Y-48601974D03*
G04 #@! TD*
D17*
G04 #@! TO.P,D6,1,K*
G04 #@! TO.N,GND*
X51000000Y-109475000D03*
G04 #@! TO.P,D6,2,A*
G04 #@! TO.N,Net-(D6-A)*
X51000000Y-106500000D03*
G04 #@! TD*
D18*
G04 #@! TO.P,SW2,*
G04 #@! TO.N,*
X30000000Y-100000000D03*
X30000000Y-108200000D03*
D19*
G04 #@! TO.P,SW2,1,A*
G04 #@! TO.N,unconnected-(SW2-A-Pad1)*
X30000000Y-102100000D03*
D20*
G04 #@! TO.P,SW2,2,B*
G04 #@! TO.N,Net-(SW2-B)*
X30000000Y-104100000D03*
G04 #@! TO.P,SW2,3,C*
G04 #@! TO.N,GND*
X30000000Y-106100000D03*
G04 #@! TD*
D21*
G04 #@! TO.P,C1,1*
G04 #@! TO.N,7.4V*
X40040000Y-106487500D03*
G04 #@! TO.P,C1,2*
G04 #@! TO.N,GND*
X40040000Y-109612500D03*
G04 #@! TD*
D22*
G04 #@! TO.P,D1,A*
G04 #@! TO.N,+5V*
X95000000Y-25540000D03*
D23*
G04 #@! TO.P,D1,C*
G04 #@! TO.N,Net-(D1-PadC)*
X95000000Y-23000000D03*
G04 #@! TD*
D14*
G04 #@! TO.P,R8,1*
G04 #@! TO.N,Net-(Q3-G)*
X103050000Y-51000000D03*
G04 #@! TO.P,R8,2*
G04 #@! TO.N,GND*
X99950000Y-51000000D03*
G04 #@! TD*
D24*
G04 #@! TO.P,C3,1*
G04 #@! TO.N,Net-(Q9-G)*
X41562500Y-90000000D03*
G04 #@! TO.P,C3,2*
G04 #@! TO.N,GND*
X38437500Y-90000000D03*
G04 #@! TD*
D10*
G04 #@! TO.P,TP5,1,1*
G04 #@! TO.N,Net-(J3-Pin_2)*
X103500000Y-76500000D03*
G04 #@! TD*
D14*
G04 #@! TO.P,R4,1*
G04 #@! TO.N,Net-(Q1-G)*
X103000000Y-39000000D03*
G04 #@! TO.P,R4,2*
G04 #@! TO.N,GND*
X99900000Y-39000000D03*
G04 #@! TD*
D25*
G04 #@! TO.P,Q3,1,D*
G04 #@! TO.N,Net-(Q3-D)*
X108500000Y-49500000D03*
D26*
G04 #@! TO.P,Q3,2,G*
G04 #@! TO.N,Net-(Q3-G)*
X108500000Y-48230000D03*
G04 #@! TO.P,Q3,3,S*
G04 #@! TO.N,GND*
X108500000Y-46960000D03*
G04 #@! TD*
D27*
G04 #@! TO.P,Q9,1,G*
G04 #@! TO.N,Net-(Q9-G)*
X39920000Y-96500000D03*
D28*
G04 #@! TO.P,Q9,2,D*
G04 #@! TO.N,7.4V*
X42460000Y-96500000D03*
G04 #@! TO.P,Q9,3,S*
G04 #@! TO.N,Net-(7.4_LiPo1-+)*
X45000000Y-96500000D03*
G04 #@! TD*
D12*
G04 #@! TO.P,J3,1,Pin_1*
G04 #@! TO.N,+5V*
X97960000Y-73000000D03*
D13*
G04 #@! TO.P,J3,2,Pin_2*
G04 #@! TO.N,Net-(J3-Pin_2)*
X100500000Y-73000000D03*
G04 #@! TO.P,J3,3,Pin_3*
G04 #@! TO.N,GND*
X103040000Y-73000000D03*
G04 #@! TO.P,J3,4,Pin_4*
G04 #@! TO.N,POW_M1_A*
X105580000Y-73000000D03*
G04 #@! TO.P,J3,5,Pin_5*
G04 #@! TO.N,POW_M1_B*
X108120000Y-73000000D03*
G04 #@! TO.P,J3,6,Pin_6*
G04 #@! TO.N,POW_M2_B*
X110660000Y-73000000D03*
G04 #@! TO.P,J3,7,Pin_7*
G04 #@! TO.N,POW_M2_A*
X113200000Y-73000000D03*
G04 #@! TO.P,J3,8,Pin_8*
G04 #@! TO.N,GND*
X115740000Y-73000000D03*
G04 #@! TD*
D11*
G04 #@! TO.P,R6,1*
G04 #@! TO.N,Net-(D2-PadC)*
X114000000Y-47900000D03*
G04 #@! TO.P,R6,2*
G04 #@! TO.N,Net-(Q3-D)*
X114000000Y-51000000D03*
G04 #@! TD*
D25*
G04 #@! TO.P,Q7,1,D*
G04 #@! TO.N,Net-(Q7-D)*
X108500000Y-93500000D03*
D26*
G04 #@! TO.P,Q7,2,G*
G04 #@! TO.N,Net-(Q7-G)*
X108500000Y-92230000D03*
G04 #@! TO.P,Q7,3,S*
G04 #@! TO.N,GND*
X108500000Y-90960000D03*
G04 #@! TD*
D10*
G04 #@! TO.P,TP1,1,1*
G04 #@! TO.N,+5V*
X51500000Y-93500000D03*
G04 #@! TD*
D11*
G04 #@! TO.P,R16,1*
G04 #@! TO.N,Net-(Q7-G)*
X113500000Y-92400000D03*
G04 #@! TO.P,R16,2*
G04 #@! TO.N,GND*
X113500000Y-95500000D03*
G04 #@! TD*
D10*
G04 #@! TO.P,TP4,1,1*
G04 #@! TO.N,+3.3V*
X134000000Y-58500000D03*
G04 #@! TD*
D25*
G04 #@! TO.P,Q5,1,D*
G04 #@! TO.N,Net-(Q5-D)*
X112140000Y-83730000D03*
D26*
G04 #@! TO.P,Q5,2,G*
G04 #@! TO.N,Net-(Q5-G)*
X112140000Y-85000000D03*
G04 #@! TO.P,Q5,3,S*
G04 #@! TO.N,GND*
X112140000Y-86270000D03*
G04 #@! TD*
D29*
G04 #@! TO.P,R15,1*
G04 #@! TO.N,Emitter 4*
X99950000Y-92000000D03*
G04 #@! TO.P,R15,2*
G04 #@! TO.N,Net-(Q7-G)*
X103050000Y-92000000D03*
G04 #@! TD*
D30*
G04 #@! TO.P,U1,0,RX1*
G04 #@! TO.N,Net-(U1-RX1)*
X32880000Y-27830000D03*
G04 #@! TO.P,U1,1,TX1*
G04 #@! TO.N,unconnected-(U1-TX1-Pad1)*
X32880000Y-30370000D03*
G04 #@! TO.P,U1,2,OUT2*
G04 #@! TO.N,unconnected-(U1-OUT2-Pad2)*
X32880000Y-32910000D03*
G04 #@! TO.P,U1,3,LRCLK2*
G04 #@! TO.N,unconnected-(U1-LRCLK2-Pad3)*
X32880000Y-35450000D03*
G04 #@! TO.P,U1,3.3V_1,3.3V*
G04 #@! TO.N,+3.3V*
X32880000Y-60850000D03*
G04 #@! TO.P,U1,3.3V_2,3.3V*
X48120000Y-30370000D03*
G04 #@! TO.P,U1,4,BCLK2*
G04 #@! TO.N,unconnected-(U1-BCLK2-Pad4)*
X32880000Y-37990000D03*
G04 #@! TO.P,U1,5,IN2*
G04 #@! TO.N,unconnected-(U1-IN2-Pad5)*
X32880000Y-40530000D03*
G04 #@! TO.P,U1,6,OUT1D*
G04 #@! TO.N,unconnected-(U1-OUT1D-Pad6)*
X32880000Y-43070000D03*
G04 #@! TO.P,U1,7,RX2*
G04 #@! TO.N,unconnected-(U1-RX2-Pad7)*
X32880000Y-45610000D03*
G04 #@! TO.P,U1,8,TX2*
G04 #@! TO.N,unconnected-(U1-TX2-Pad8)*
X32880000Y-48150000D03*
G04 #@! TO.P,U1,9,OUT1C*
G04 #@! TO.N,unconnected-(U1-OUT1C-Pad9)*
X32880000Y-50690000D03*
G04 #@! TO.P,U1,10,CS1*
G04 #@! TO.N,unconnected-(U1-CS1-Pad10)*
X32880000Y-53230000D03*
G04 #@! TO.P,U1,11,MOSI*
G04 #@! TO.N,unconnected-(U1-MOSI-Pad11)*
X32880000Y-55770000D03*
G04 #@! TO.P,U1,12,MISO*
G04 #@! TO.N,unconnected-(U1-MISO-Pad12)*
X32880000Y-58310000D03*
G04 #@! TO.P,U1,13,SCK*
G04 #@! TO.N,unconnected-(U1-SCK-Pad13)*
X48120000Y-58310000D03*
G04 #@! TO.P,U1,14,A0*
G04 #@! TO.N,PWMB_6612*
X48120000Y-55770000D03*
G04 #@! TO.P,U1,15,A1*
G04 #@! TO.N,PWMA_6612*
X48120000Y-53230000D03*
G04 #@! TO.P,U1,16,A2*
G04 #@! TO.N,unconnected-(U1-A2-Pad16)*
X48120000Y-50690000D03*
G04 #@! TO.P,U1,17,A3*
G04 #@! TO.N,unconnected-(U1-A3-Pad17)*
X48120000Y-48150000D03*
G04 #@! TO.P,U1,18,A4*
G04 #@! TO.N,SDA*
X48120000Y-45610000D03*
G04 #@! TO.P,U1,19,A5*
G04 #@! TO.N,SCL*
X48120000Y-43070000D03*
G04 #@! TO.P,U1,20,A6*
G04 #@! TO.N,STBY*
X48120000Y-40530000D03*
G04 #@! TO.P,U1,21,A7*
G04 #@! TO.N,unconnected-(U1-A7-Pad21)*
X48120000Y-37990000D03*
G04 #@! TO.P,U1,22,A8*
G04 #@! TO.N,PWM M2_A*
X48120000Y-35450000D03*
G04 #@! TO.P,U1,23,A9*
G04 #@! TO.N,PWM M2_B*
X48120000Y-32910000D03*
G04 #@! TO.P,U1,24,A10*
G04 #@! TO.N,Receiver 1*
X32880000Y-63390000D03*
G04 #@! TO.P,U1,25,A11*
G04 #@! TO.N,Emitter 1*
X32880000Y-65930000D03*
G04 #@! TO.P,U1,26,A12*
G04 #@! TO.N,Emitter 4*
X32880000Y-68470000D03*
G04 #@! TO.P,U1,27,A13*
G04 #@! TO.N,Receiver 4*
X32880000Y-71010000D03*
G04 #@! TO.P,U1,28,RX7*
G04 #@! TO.N,PWM M1_A*
X32880000Y-73550000D03*
G04 #@! TO.P,U1,29,TX7*
G04 #@! TO.N,PWM M1_B*
X32880000Y-76090000D03*
G04 #@! TO.P,U1,30,CRX3*
G04 #@! TO.N,unconnected-(U1-CRX3-Pad30)*
X32880000Y-78630000D03*
G04 #@! TO.P,U1,31,CTX3*
G04 #@! TO.N,unconnected-(U1-CTX3-Pad31)*
X32880000Y-81170000D03*
G04 #@! TO.P,U1,32,OUT1B*
G04 #@! TO.N,unconnected-(U1-OUT1B-Pad32)*
X32880000Y-83710000D03*
G04 #@! TO.P,U1,33,MCLK2*
G04 #@! TO.N,unconnected-(U1-MCLK2-Pad33)*
X48120000Y-83710000D03*
G04 #@! TO.P,U1,34,RX8*
G04 #@! TO.N,ENC_M2_A*
X48120000Y-81170000D03*
G04 #@! TO.P,U1,35,TX8*
G04 #@! TO.N,ENC_M2_B*
X48120000Y-78630000D03*
G04 #@! TO.P,U1,36,CS2*
G04 #@! TO.N,ENC_M1_A*
X48120000Y-76090000D03*
G04 #@! TO.P,U1,37,CS3*
G04 #@! TO.N,ENC_M1_B*
X48120000Y-73550000D03*
G04 #@! TO.P,U1,38,A14*
G04 #@! TO.N,Receiver 3*
X48120000Y-71010000D03*
G04 #@! TO.P,U1,39,A15*
G04 #@! TO.N,Emitter 3*
X48120000Y-68470000D03*
G04 #@! TO.P,U1,40,A16*
G04 #@! TO.N,Emitter 2*
X48120000Y-65930000D03*
G04 #@! TO.P,U1,41,A17*
G04 #@! TO.N,Receiver 2*
X48120000Y-63390000D03*
G04 #@! TO.P,U1,GND1,GND*
G04 #@! TO.N,GND*
X32880000Y-25290000D03*
G04 #@! TO.P,U1,GND2,GND*
X48120000Y-60850000D03*
G04 #@! TO.P,U1,GND3,GND*
X48120000Y-27830000D03*
G04 #@! TO.P,U1,VIN,VIN*
G04 #@! TO.N,+5V*
X48120000Y-25290000D03*
G04 #@! TD*
D31*
G04 #@! TO.P,Q8,C*
G04 #@! TO.N,+3.3V*
X100500000Y-107000000D03*
D32*
G04 #@! TO.P,Q8,E*
G04 #@! TO.N,Receiver 4*
X100500000Y-104460000D03*
G04 #@! TD*
D27*
G04 #@! TO.P,U2,1,IN*
G04 #@! TO.N,7.4V*
X39960000Y-103000000D03*
D28*
G04 #@! TO.P,U2,2,GND*
G04 #@! TO.N,GND*
X42500000Y-103000000D03*
G04 #@! TO.P,U2,3,OUT*
G04 #@! TO.N,+5V*
X45040000Y-103000000D03*
G04 #@! TD*
D29*
G04 #@! TO.P,R5,1*
G04 #@! TO.N,Receiver 1*
X99900000Y-30500000D03*
G04 #@! TO.P,R5,2*
G04 #@! TO.N,GND*
X103000000Y-30500000D03*
G04 #@! TD*
D12*
G04 #@! TO.P,J1_MotorEncoder1,1,Pin_1*
G04 #@! TO.N,GND*
X90500000Y-60040000D03*
D13*
G04 #@! TO.P,J1_MotorEncoder1,2,Pin_2*
G04 #@! TO.N,ENC_M1_A*
X90500000Y-57500000D03*
G04 #@! TO.P,J1_MotorEncoder1,3,Pin_3*
G04 #@! TO.N,ENC_M1_B*
X90500000Y-54960000D03*
G04 #@! TO.P,J1_MotorEncoder1,4,Pin_4*
G04 #@! TO.N,+3.3V*
X90500000Y-52420000D03*
G04 #@! TO.P,J1_MotorEncoder1,5,Pin_5*
G04 #@! TO.N,POW_M1_A*
X90500000Y-49880000D03*
G04 #@! TO.P,J1_MotorEncoder1,6,Pin_6*
G04 #@! TO.N,POW_M1_B*
X90500000Y-47340000D03*
G04 #@! TD*
D10*
G04 #@! TO.P,TP6,1,1*
G04 #@! TO.N,Net-(J3-Pin_2)*
X100500000Y-76500000D03*
G04 #@! TD*
D14*
G04 #@! TO.P,R12,1*
G04 #@! TO.N,Net-(Q5-G)*
X107500000Y-82000000D03*
G04 #@! TO.P,R12,2*
G04 #@! TO.N,GND*
X104400000Y-82000000D03*
G04 #@! TD*
D33*
G04 #@! TO.P,R19,1*
G04 #@! TO.N,+3.3V*
X59000000Y-59050000D03*
G04 #@! TO.P,R19,2*
G04 #@! TO.N,SDA*
X59000000Y-55950000D03*
G04 #@! TD*
D34*
G04 #@! TO.P,D5,1,K*
G04 #@! TO.N,GND*
X40487500Y-21000000D03*
G04 #@! TO.P,D5,2,A*
G04 #@! TO.N,Net-(D5-A)*
X37512500Y-21000000D03*
G04 #@! TD*
D33*
G04 #@! TO.P,R14,1*
G04 #@! TO.N,Net-(D4-PadC)*
X103500000Y-99500000D03*
G04 #@! TO.P,R14,2*
G04 #@! TO.N,Net-(Q7-D)*
X103500000Y-96400000D03*
G04 #@! TD*
D35*
G04 #@! TO.P,D4,A*
G04 #@! TO.N,+5V*
X95000000Y-104460000D03*
D36*
G04 #@! TO.P,D4,C*
G04 #@! TO.N,Net-(D4-PadC)*
X95000000Y-107000000D03*
G04 #@! TD*
D37*
G04 #@! TO.P,D3,A*
G04 #@! TO.N,+5V*
X123898026Y-79000000D03*
D38*
G04 #@! TO.P,D3,C*
G04 #@! TO.N,Net-(D3-PadC)*
X122101974Y-80796052D03*
G04 #@! TD*
D11*
G04 #@! TO.P,R20,1*
G04 #@! TO.N,+3.3V*
X59000000Y-50000000D03*
G04 #@! TO.P,R20,2*
G04 #@! TO.N,SCL*
X59000000Y-53100000D03*
G04 #@! TD*
D25*
G04 #@! TO.P,Q1,1,D*
G04 #@! TO.N,Net-(Q1-D)*
X108000000Y-30960000D03*
D26*
G04 #@! TO.P,Q1,2,G*
G04 #@! TO.N,Net-(Q1-G)*
X108000000Y-32230000D03*
G04 #@! TO.P,Q1,3,S*
G04 #@! TO.N,GND*
X108000000Y-33500000D03*
G04 #@! TD*
D14*
G04 #@! TO.P,R21,1*
G04 #@! TO.N,Net-(D5-A)*
X34550000Y-21000000D03*
G04 #@! TO.P,R21,2*
G04 #@! TO.N,Net-(U1-RX1)*
X31450000Y-21000000D03*
G04 #@! TD*
G04 #@! TO.P,R10,1*
G04 #@! TO.N,Net-(D3-PadC)*
X114500000Y-79500000D03*
G04 #@! TO.P,R10,2*
G04 #@! TO.N,Net-(Q5-D)*
X111400000Y-79500000D03*
G04 #@! TD*
D33*
G04 #@! TO.P,R13,1*
G04 #@! TO.N,Receiver 3*
X118000000Y-88000000D03*
G04 #@! TO.P,R13,2*
G04 #@! TO.N,GND*
X118000000Y-84900000D03*
G04 #@! TD*
D39*
G04 #@! TO.P,7.4_LiPo1,1,+*
G04 #@! TO.N,Net-(7.4_LiPo1-+)*
X32500000Y-91500000D03*
D40*
G04 #@! TO.P,7.4_LiPo1,2,-*
G04 #@! TO.N,GND*
X32500000Y-93500000D03*
G04 #@! TD*
D10*
G04 #@! TO.P,TP2,1,1*
G04 #@! TO.N,GND*
X51500000Y-97000000D03*
G04 #@! TD*
D11*
G04 #@! TO.P,R18,1*
G04 #@! TO.N,Net-(Q9-G)*
X35500000Y-106450000D03*
G04 #@! TO.P,R18,2*
G04 #@! TO.N,Net-(SW2-B)*
X35500000Y-109550000D03*
G04 #@! TD*
D29*
G04 #@! TO.P,R3,1*
G04 #@! TO.N,Emitter 1*
X99900000Y-34500000D03*
G04 #@! TO.P,R3,2*
G04 #@! TO.N,Net-(Q1-G)*
X103000000Y-34500000D03*
G04 #@! TD*
D31*
G04 #@! TO.P,Q4,C*
G04 #@! TO.N,+3.3V*
X127898026Y-46398026D03*
D41*
G04 #@! TO.P,Q4,E*
G04 #@! TO.N,Receiver 2*
X126101974Y-44601974D03*
G04 #@! TD*
D42*
G04 #@! TO.P,C2,1*
G04 #@! TO.N,GND*
X45000000Y-109550000D03*
G04 #@! TO.P,C2,2*
G04 #@! TO.N,+5V*
X45000000Y-106425000D03*
G04 #@! TD*
D31*
G04 #@! TO.P,Q2,C*
G04 #@! TO.N,+3.3V*
X100500000Y-23000000D03*
D32*
G04 #@! TO.P,Q2,E*
G04 #@! TO.N,Receiver 1*
X100500000Y-25540000D03*
G04 #@! TD*
D29*
G04 #@! TO.P,R7,1*
G04 #@! TO.N,Emitter 2*
X99950000Y-46500000D03*
G04 #@! TO.P,R7,2*
G04 #@! TO.N,Net-(Q3-G)*
X103050000Y-46500000D03*
G04 #@! TD*
D12*
G04 #@! TO.P,J1,1,Pin_1*
G04 #@! TO.N,+3.3V*
X54400000Y-47420000D03*
D13*
G04 #@! TO.P,J1,2,Pin_2*
G04 #@! TO.N,GND*
X54400000Y-49960000D03*
G04 #@! TO.P,J1,3,Pin_3*
G04 #@! TO.N,SCL*
X54400000Y-52500000D03*
G04 #@! TO.P,J1,4,Pin_4*
G04 #@! TO.N,SDA*
X54400000Y-55040000D03*
G04 #@! TO.P,J1,5,Pin_5*
G04 #@! TO.N,unconnected-(J1-Pin_5-Pad5)*
X54400000Y-57580000D03*
G04 #@! TO.P,J1,6,Pin_6*
G04 #@! TO.N,unconnected-(J1-Pin_6-Pad6)*
X54400000Y-60120000D03*
G04 #@! TO.P,J1,7,Pin_7*
G04 #@! TO.N,GND*
X54400000Y-62660000D03*
G04 #@! TO.P,J1,8,Pin_8*
G04 #@! TO.N,unconnected-(J1-Pin_8-Pad8)*
X54400000Y-65200000D03*
G04 #@! TD*
D12*
G04 #@! TO.P,J4,1,Pin_1*
G04 #@! TO.N,PWMA_6612*
X97960000Y-57125000D03*
D13*
G04 #@! TO.P,J4,2,Pin_2*
G04 #@! TO.N,PWM M1_B*
X100500000Y-57125000D03*
G04 #@! TO.P,J4,3,Pin_3*
G04 #@! TO.N,PWM M1_A*
X103040000Y-57125000D03*
G04 #@! TO.P,J4,4,Pin_4*
G04 #@! TO.N,STBY*
X105580000Y-57125000D03*
G04 #@! TO.P,J4,5,Pin_5*
G04 #@! TO.N,PWM M2_A*
X108120000Y-57125000D03*
G04 #@! TO.P,J4,6,Pin_6*
G04 #@! TO.N,PWM M2_B*
X110660000Y-57125000D03*
G04 #@! TO.P,J4,7,Pin_7*
G04 #@! TO.N,PWMB_6612*
X113200000Y-57125000D03*
G04 #@! TO.P,J4,8,Pin_8*
G04 #@! TO.N,GND*
X115740000Y-57125000D03*
G04 #@! TD*
D11*
G04 #@! TO.P,R2,1*
G04 #@! TO.N,Net-(D1-PadC)*
X114500000Y-30400000D03*
G04 #@! TO.P,R2,2*
G04 #@! TO.N,Net-(Q1-D)*
X114500000Y-33500000D03*
G04 #@! TD*
G04 #@! TO.P,R1_2,1*
G04 #@! TO.N,+5V*
X51000000Y-100400000D03*
G04 #@! TO.P,R1_2,2*
G04 #@! TO.N,Net-(D6-A)*
X51000000Y-103500000D03*
G04 #@! TD*
D29*
G04 #@! TO.P,R11,1*
G04 #@! TO.N,Emitter 3*
X104400000Y-85500000D03*
G04 #@! TO.P,R11,2*
G04 #@! TO.N,Net-(Q5-G)*
X107500000Y-85500000D03*
G04 #@! TD*
D31*
G04 #@! TO.P,Q6,C*
G04 #@! TO.N,+3.3V*
X127898026Y-82703948D03*
D43*
G04 #@! TO.P,Q6,E*
G04 #@! TO.N,Receiver 3*
X126101974Y-84500000D03*
G04 #@! TD*
D33*
G04 #@! TO.P,R17,1*
G04 #@! TO.N,Receiver 4*
X99000000Y-99500000D03*
G04 #@! TO.P,R17,2*
G04 #@! TO.N,GND*
X99000000Y-96400000D03*
G04 #@! TD*
D44*
G04 #@! TO.N,GND*
X118000000Y-84900000D03*
X99950000Y-51000000D03*
X99000000Y-96400000D03*
X114000000Y-44600000D03*
X51000000Y-109475000D03*
X40487500Y-21000000D03*
X40040000Y-109612500D03*
X38437500Y-90000000D03*
X113500000Y-95500000D03*
X103000000Y-30500000D03*
X104400000Y-82000000D03*
X45000000Y-109550000D03*
X99900000Y-39000000D03*
G04 #@! TO.N,+5V*
X51000000Y-100400000D03*
X45000000Y-106425000D03*
G04 #@! TO.N,PWMB_6612*
X69000000Y-64000000D03*
X73000000Y-67000000D03*
G04 #@! TO.N,+3.3V*
X59000000Y-50000000D03*
X59000000Y-59050000D03*
G04 #@! TO.N,PWMA_6612*
X74000000Y-66000000D03*
X69500000Y-63000000D03*
G04 #@! TD*
D45*
G04 #@! TO.N,Net-(D1-PadC)*
X97199539Y-20800461D02*
X104900461Y-20800461D01*
X104900461Y-20800461D02*
X114500000Y-30400000D01*
X95000000Y-23000000D02*
X97199539Y-20800461D01*
G04 #@! TO.N,Net-(D2-PadC)*
X121400000Y-47900000D02*
X122101974Y-48601974D01*
X114000000Y-47900000D02*
X121400000Y-47900000D01*
G04 #@! TO.N,Net-(D3-PadC)*
X122101974Y-80796052D02*
X120805922Y-79500000D01*
X120805922Y-79500000D02*
X114500000Y-79500000D01*
G04 #@! TO.N,Net-(D4-PadC)*
X95000000Y-107000000D02*
X97500000Y-109500000D01*
X103500000Y-108000000D02*
X103500000Y-99500000D01*
X102000000Y-109500000D02*
X103500000Y-108000000D01*
X97500000Y-109500000D02*
X102000000Y-109500000D01*
G04 #@! TO.N,Net-(D5-A)*
X34550000Y-21000000D02*
X37512500Y-21000000D01*
G04 #@! TO.N,PWMB_6612*
X111825000Y-58500000D02*
X98000000Y-58500000D01*
X50500000Y-58150000D02*
X48120000Y-55770000D01*
X50500000Y-65000000D02*
X50500000Y-58150000D01*
X69000000Y-64000000D02*
X65000000Y-68000000D01*
X65000000Y-68000000D02*
X53500000Y-68000000D01*
X113200000Y-57125000D02*
X111825000Y-58500000D01*
X98000000Y-58500000D02*
X89500000Y-67000000D01*
X89500000Y-67000000D02*
X73000000Y-67000000D01*
X53500000Y-68000000D02*
X50500000Y-65000000D01*
G04 #@! TO.N,Net-(Q1-G)*
X104930000Y-34500000D02*
X103000000Y-34500000D01*
X103000000Y-34500000D02*
X103000000Y-39000000D01*
X107200000Y-32230000D02*
X104930000Y-34500000D01*
X108000000Y-32230000D02*
X107200000Y-32230000D01*
G04 #@! TO.N,Net-(Q1-D)*
X111960000Y-30960000D02*
X108000000Y-30960000D01*
X114500000Y-33500000D02*
X111960000Y-30960000D01*
G04 #@! TO.N,Receiver 1*
X100500000Y-29900000D02*
X99900000Y-30500000D01*
X34500000Y-61770000D02*
X32880000Y-63390000D01*
X99900000Y-30500000D02*
X91305000Y-39095000D01*
X47905000Y-39095000D02*
X34500000Y-52500000D01*
X100500000Y-25540000D02*
X100500000Y-29900000D01*
X91305000Y-39095000D02*
X47905000Y-39095000D01*
X34500000Y-52500000D02*
X34500000Y-61770000D01*
G04 #@! TO.N,Net-(Q3-D)*
X110000000Y-51000000D02*
X108500000Y-49500000D01*
X114000000Y-51000000D02*
X110000000Y-51000000D01*
G04 #@! TO.N,Net-(Q3-G)*
X103050000Y-46500000D02*
X104780000Y-48230000D01*
X103050000Y-51000000D02*
X103050000Y-46500000D01*
X104780000Y-48230000D02*
X108500000Y-48230000D01*
G04 #@! TO.N,Receiver 2*
X93000000Y-41500000D02*
X65500000Y-69000000D01*
X48120000Y-64120000D02*
X48120000Y-63390000D01*
X53000000Y-69000000D02*
X48120000Y-64120000D01*
X65500000Y-69000000D02*
X53000000Y-69000000D01*
X114000000Y-41500000D02*
X93000000Y-41500000D01*
X123000000Y-41500000D02*
X126101974Y-44601974D01*
X114000000Y-41500000D02*
X123000000Y-41500000D01*
G04 #@! TO.N,Net-(Q5-G)*
X108000000Y-85000000D02*
X107500000Y-85500000D01*
X107500000Y-82000000D02*
X107500000Y-85500000D01*
X112140000Y-85000000D02*
X108000000Y-85000000D01*
G04 #@! TO.N,Net-(Q5-D)*
X111400000Y-82990000D02*
X112140000Y-83730000D01*
X111400000Y-79500000D02*
X111400000Y-82990000D01*
G04 #@! TO.N,Receiver 3*
X106476708Y-86500000D02*
X106802708Y-86826000D01*
X122601974Y-88000000D02*
X126101974Y-84500000D01*
X113341000Y-86674272D02*
X113341000Y-86500000D01*
X112769272Y-87246000D02*
X113341000Y-86674272D01*
X108197292Y-86826000D02*
X108523292Y-86500000D01*
X48120000Y-71010000D02*
X63610000Y-86500000D01*
X118000000Y-88000000D02*
X122601974Y-88000000D01*
X103702708Y-86826000D02*
X105097292Y-86826000D01*
X63610000Y-86500000D02*
X103376708Y-86500000D01*
X105097292Y-86826000D02*
X105423292Y-86500000D01*
X106802708Y-86826000D02*
X108197292Y-86826000D01*
X116500000Y-86500000D02*
X118000000Y-88000000D01*
X110939000Y-86500000D02*
X110939000Y-86674272D01*
X103376708Y-86500000D02*
X103702708Y-86826000D01*
X105423292Y-86500000D02*
X106476708Y-86500000D01*
X108523292Y-86500000D02*
X110939000Y-86500000D01*
X113341000Y-86500000D02*
X116500000Y-86500000D01*
X110939000Y-86674272D02*
X111510728Y-87246000D01*
X111510728Y-87246000D02*
X112769272Y-87246000D01*
G04 #@! TO.N,Net-(Q7-G)*
X108270000Y-92000000D02*
X108500000Y-92230000D01*
X103050000Y-92000000D02*
X108270000Y-92000000D01*
X108670000Y-92400000D02*
X108500000Y-92230000D01*
X113500000Y-92400000D02*
X108670000Y-92400000D01*
G04 #@! TO.N,Net-(Q7-D)*
X105600000Y-96400000D02*
X108500000Y-93500000D01*
X103500000Y-96400000D02*
X105600000Y-96400000D01*
G04 #@! TO.N,Receiver 4*
X88000000Y-88500000D02*
X99000000Y-99500000D01*
X32880000Y-71010000D02*
X39065000Y-77195000D01*
X59882706Y-88500000D02*
X88000000Y-88500000D01*
X99000000Y-99500000D02*
X99000000Y-100000000D01*
X99000000Y-100000000D02*
X100500000Y-101500000D01*
X39065000Y-77195000D02*
X48577706Y-77195000D01*
X48577706Y-77195000D02*
X59882706Y-88500000D01*
X100500000Y-101500000D02*
X100500000Y-104460000D01*
G04 #@! TO.N,Emitter 1*
X35500000Y-53000000D02*
X35500000Y-63310000D01*
X51000000Y-40000000D02*
X49035000Y-41965000D01*
X99900000Y-34500000D02*
X94400000Y-40000000D01*
X46535000Y-41965000D02*
X35500000Y-53000000D01*
X94400000Y-40000000D02*
X51000000Y-40000000D01*
X35500000Y-63310000D02*
X32880000Y-65930000D01*
X49035000Y-41965000D02*
X46535000Y-41965000D01*
G04 #@! TO.N,Emitter 2*
X66000108Y-70000000D02*
X89961108Y-46039000D01*
X48120000Y-65930000D02*
X52190000Y-70000000D01*
X52190000Y-70000000D02*
X66000108Y-70000000D01*
X89961108Y-46039000D02*
X99489000Y-46039000D01*
X99489000Y-46039000D02*
X99950000Y-46500000D01*
G04 #@! TO.N,Emitter 3*
X104400000Y-85500000D02*
X65150000Y-85500000D01*
X65150000Y-85500000D02*
X48120000Y-68470000D01*
G04 #@! TO.N,Emitter 4*
X33985000Y-69575000D02*
X32880000Y-68470000D01*
X47015000Y-73092294D02*
X47053647Y-73053647D01*
X95450000Y-87500000D02*
X61500000Y-87500000D01*
X48577706Y-74655000D02*
X47662294Y-74655000D01*
X47053647Y-73053647D02*
X43575000Y-69575000D01*
X99950000Y-92000000D02*
X95450000Y-87500000D01*
X47662294Y-74655000D02*
X47015000Y-74007706D01*
X47015000Y-74007706D02*
X47015000Y-73092294D01*
X48616353Y-74616353D02*
X48577706Y-74655000D01*
X43575000Y-69575000D02*
X33985000Y-69575000D01*
X61500000Y-87500000D02*
X48616353Y-74616353D01*
G04 #@! TO.N,SCL*
X48120000Y-43070000D02*
X51599000Y-46549000D01*
X51599000Y-49699000D02*
X54400000Y-52500000D01*
X54400000Y-52500000D02*
X58400000Y-52500000D01*
X58400000Y-52500000D02*
X59000000Y-53100000D01*
X51599000Y-46549000D02*
X51599000Y-49699000D01*
G04 #@! TO.N,Net-(7.4_LiPo1-+)*
X45500000Y-96500000D02*
X45000000Y-96500000D01*
D46*
X47000000Y-87500000D02*
X48050000Y-88550000D01*
X48050000Y-90000000D02*
X48050000Y-93950000D01*
X48050000Y-93950000D02*
X45500000Y-96500000D01*
X36500000Y-87500000D02*
X47000000Y-87500000D01*
X48050000Y-88550000D02*
X48050000Y-90000000D01*
X32500000Y-91500000D02*
X36500000Y-87500000D01*
G04 #@! TO.N,7.4V*
X42460000Y-100500000D02*
X39960000Y-103000000D01*
X40040000Y-106487500D02*
X40040000Y-103080000D01*
D45*
X40040000Y-103080000D02*
X39960000Y-103000000D01*
D46*
X42460000Y-96500000D02*
X42460000Y-100500000D01*
D45*
G04 #@! TO.N,Net-(D6-A)*
X51000000Y-103500000D02*
X51000000Y-106500000D01*
G04 #@! TO.N,SDA*
X54400000Y-55040000D02*
X58090000Y-55040000D01*
X48120000Y-45610000D02*
X50000000Y-47490000D01*
X58090000Y-55040000D02*
X59000000Y-55950000D01*
X50000000Y-50640000D02*
X54400000Y-55040000D01*
X50000000Y-47490000D02*
X50000000Y-50640000D01*
G04 #@! TO.N,PWMA_6612*
X68500000Y-63000000D02*
X64500000Y-67000000D01*
X51500000Y-56610000D02*
X48120000Y-53230000D01*
X54000000Y-67000000D02*
X51500000Y-64500000D01*
X64500000Y-67000000D02*
X54000000Y-67000000D01*
X89085000Y-66000000D02*
X74000000Y-66000000D01*
X69500000Y-63000000D02*
X68500000Y-63000000D01*
X97960000Y-57125000D02*
X89085000Y-66000000D01*
X51500000Y-64500000D02*
X51500000Y-56610000D01*
G04 #@! TO.N,Net-(Q9-G)*
X41562500Y-94857500D02*
X39920000Y-96500000D01*
X35500000Y-100920000D02*
X35500000Y-106450000D01*
X39920000Y-96500000D02*
X35500000Y-100920000D01*
X41562500Y-90000000D02*
X41562500Y-94857500D01*
X44950000Y-90000000D02*
X41562500Y-90000000D01*
G04 #@! TO.N,Net-(SW2-B)*
X30750000Y-104100000D02*
X35500000Y-108850000D01*
X30000000Y-104100000D02*
X30750000Y-104100000D01*
X35500000Y-108850000D02*
X35500000Y-109550000D01*
G04 #@! TO.N,Net-(U1-RX1)*
X31450000Y-26400000D02*
X32880000Y-27830000D01*
X31450000Y-21000000D02*
X31450000Y-26400000D01*
G04 #@! TD*
M02*
