G04 #@! TF.GenerationSoftware,KiCad,Pcbnew,9.0.4*
G04 #@! TF.CreationDate,2026-02-05T15:32:58-05:00*
G04 #@! TF.ProjectId,micromouse-pcb,6d696372-6f6d-46f7-9573-652d7063622e,rev?*
G04 #@! TF.SameCoordinates,Original*
G04 #@! TF.FileFunction,Profile,NP*
%FSLAX46Y46*%
G04 Gerber Fmt 4.6, Leading zero omitted, Abs format (unit mm)*
G04 Created by KiCad (PCBNEW 9.0.4) date 2026-02-05 15:32:58*
%MOMM*%
%LPD*%
G01*
G04 APERTURE LIST*
G04 #@! TA.AperFunction,Profile*
%ADD10C,0.050000*%
G04 #@! TD*
G04 APERTURE END LIST*
D10*
X54500000Y-111500000D02*
X54500000Y-105500000D01*
X90500000Y-17500000D02*
X94600000Y-17500000D01*
X55500000Y-25500000D02*
X89500000Y-25500000D01*
X27000000Y-18500000D02*
X27000000Y-111500000D01*
X27000000Y-18500000D02*
G75*
G02*
X28000000Y-17500000I1000000J0D01*
G01*
X54500000Y-111500000D02*
G75*
G02*
X53500000Y-112500000I-1000000J0D01*
G01*
X132187705Y-86180806D02*
G75*
G02*
X94600000Y-112500000I-37587705J13680806D01*
G01*
X55500000Y-25500000D02*
G75*
G02*
X54500000Y-24500000I0J1000000D01*
G01*
X89500000Y-104500000D02*
G75*
G02*
X90500000Y-105500000I0J-1000000D01*
G01*
X90500000Y-112500000D02*
X94600000Y-112500000D01*
X28000000Y-112500000D02*
G75*
G02*
X27000000Y-111500000I0J1000000D01*
G01*
X54500000Y-105500000D02*
G75*
G02*
X55500000Y-104500000I1000000J0D01*
G01*
X90500000Y-105500000D02*
X90500000Y-112500000D01*
X28000000Y-17500000D02*
X53500000Y-17500000D01*
X28000000Y-112500000D02*
X53500000Y-112500000D01*
X90500000Y-24500000D02*
G75*
G02*
X89500000Y-25500000I-1000000J0D01*
G01*
X53500000Y-17500000D02*
G75*
G02*
X54500000Y-18500000I0J-1000000D01*
G01*
X54500000Y-18500000D02*
X54500000Y-24500000D01*
X55500000Y-104500000D02*
X89500000Y-104500000D01*
X90500000Y-24500000D02*
X90500000Y-17500000D01*
X94600000Y-17500000D02*
G75*
G02*
X132187705Y-43819194I0J-40000000D01*
G01*
X132187705Y-43819194D02*
G75*
G02*
X132187704Y-86180806I-187705J-21180806D01*
G01*
M02*
