%TF.GenerationSoftware,KiCad,Pcbnew,9.0.4*%
%TF.CreationDate,2026-01-27T20:49:19-05:00*%
%TF.ProjectId,micromouse-pcb,6d696372-6f6d-46f7-9573-652d7063622e,rev?*%
%TF.SameCoordinates,Original*%
%TF.FileFunction,Paste,Top*%
%TF.FilePolarity,Positive*%
%FSLAX46Y46*%
G04 Gerber Fmt 4.6, Leading zero omitted, Abs format (unit mm)*
G04 Created by KiCad (PCBNEW 9.0.4) date 2026-01-27 20:49:19*
%MOMM*%
%LPD*%
G01*
G04 APERTURE LIST*
G04 Aperture macros list*
%AMRoundRect*
0 Rectangle with rounded corners*
0 $1 Rounding radius*
0 $2 $3 $4 $5 $6 $7 $8 $9 X,Y pos of 4 corners*
0 Add a 4 corners polygon primitive as box body*
4,1,4,$2,$3,$4,$5,$6,$7,$8,$9,$2,$3,0*
0 Add four circle primitives for the rounded corners*
1,1,$1+$1,$2,$3*
1,1,$1+$1,$4,$5*
1,1,$1+$1,$6,$7*
1,1,$1+$1,$8,$9*
0 Add four rect primitives between the rounded corners*
20,1,$1+$1,$2,$3,$4,$5,0*
20,1,$1+$1,$4,$5,$6,$7,0*
20,1,$1+$1,$6,$7,$8,$9,0*
20,1,$1+$1,$8,$9,$2,$3,0*%
G04 Aperture macros list end*
%ADD10RoundRect,0.250000X-0.625000X0.400000X-0.625000X-0.400000X0.625000X-0.400000X0.625000X0.400000X0*%
%ADD11RoundRect,0.250000X0.400000X0.625000X-0.400000X0.625000X-0.400000X-0.625000X0.400000X-0.625000X0*%
%ADD12RoundRect,0.250001X0.624999X-0.462499X0.624999X0.462499X-0.624999X0.462499X-0.624999X-0.462499X0*%
%ADD13RoundRect,0.250000X-0.650000X0.412500X-0.650000X-0.412500X0.650000X-0.412500X0.650000X0.412500X0*%
%ADD14RoundRect,0.250000X0.412500X0.650000X-0.412500X0.650000X-0.412500X-0.650000X0.412500X-0.650000X0*%
%ADD15RoundRect,0.250000X-0.400000X-0.625000X0.400000X-0.625000X0.400000X0.625000X-0.400000X0.625000X0*%
%ADD16RoundRect,0.250000X0.625000X-0.400000X0.625000X0.400000X-0.625000X0.400000X-0.625000X-0.400000X0*%
%ADD17RoundRect,0.250001X0.462499X0.624999X-0.462499X0.624999X-0.462499X-0.624999X0.462499X-0.624999X0*%
%ADD18RoundRect,0.250000X0.650000X-0.412500X0.650000X0.412500X-0.650000X0.412500X-0.650000X-0.412500X0*%
G04 APERTURE END LIST*
D10*
%TO.C,R9*%
X114000000Y-41500000D03*
X114000000Y-44600000D03*
%TD*%
D11*
%TO.C,R1*%
X48050000Y-90000000D03*
X44950000Y-90000000D03*
%TD*%
D12*
%TO.C,D6*%
X51000000Y-109475000D03*
X51000000Y-106500000D03*
%TD*%
D13*
%TO.C,C1*%
X40040000Y-106487500D03*
X40040000Y-109612500D03*
%TD*%
D11*
%TO.C,R8*%
X103050000Y-51000000D03*
X99950000Y-51000000D03*
%TD*%
D14*
%TO.C,C3*%
X41562500Y-90000000D03*
X38437500Y-90000000D03*
%TD*%
D11*
%TO.C,R4*%
X103000000Y-39000000D03*
X99900000Y-39000000D03*
%TD*%
D10*
%TO.C,R6*%
X114000000Y-47900000D03*
X114000000Y-51000000D03*
%TD*%
%TO.C,R16*%
X113500000Y-92400000D03*
X113500000Y-95500000D03*
%TD*%
D15*
%TO.C,R15*%
X99950000Y-92000000D03*
X103050000Y-92000000D03*
%TD*%
%TO.C,R5*%
X99900000Y-30500000D03*
X103000000Y-30500000D03*
%TD*%
D11*
%TO.C,R12*%
X107500000Y-82000000D03*
X104400000Y-82000000D03*
%TD*%
D16*
%TO.C,R19*%
X59000000Y-59050000D03*
X59000000Y-55950000D03*
%TD*%
D17*
%TO.C,D5*%
X40487500Y-21000000D03*
X37512500Y-21000000D03*
%TD*%
D16*
%TO.C,R14*%
X103500000Y-99500000D03*
X103500000Y-96400000D03*
%TD*%
D10*
%TO.C,R20*%
X59000000Y-50000000D03*
X59000000Y-53100000D03*
%TD*%
D11*
%TO.C,R21*%
X34550000Y-21000000D03*
X31450000Y-21000000D03*
%TD*%
%TO.C,R10*%
X114500000Y-79500000D03*
X111400000Y-79500000D03*
%TD*%
D16*
%TO.C,R13*%
X118000000Y-88000000D03*
X118000000Y-84900000D03*
%TD*%
D10*
%TO.C,R18*%
X35500000Y-106450000D03*
X35500000Y-109550000D03*
%TD*%
D15*
%TO.C,R3*%
X99900000Y-34500000D03*
X103000000Y-34500000D03*
%TD*%
D18*
%TO.C,C2*%
X45000000Y-109550000D03*
X45000000Y-106425000D03*
%TD*%
D15*
%TO.C,R7*%
X99950000Y-46500000D03*
X103050000Y-46500000D03*
%TD*%
D10*
%TO.C,R2*%
X114500000Y-30400000D03*
X114500000Y-33500000D03*
%TD*%
%TO.C,R1_2*%
X51000000Y-100400000D03*
X51000000Y-103500000D03*
%TD*%
D15*
%TO.C,R11*%
X104400000Y-85500000D03*
X107500000Y-85500000D03*
%TD*%
D16*
%TO.C,R17*%
X99000000Y-99500000D03*
X99000000Y-96400000D03*
%TD*%
M02*
